<svg width="342" height="320" viewBox="0 0 342 320" fill="none" xmlns="http://www.w3.org/2000/svg">
<mask id="path-1-inside-1" fill="white">
<path d="M92.23 200.58C86.7504 188.402 84.29 175.082 85.0577 161.75C85.8255 148.418 89.7987 135.468 96.64 124C114.18 95.05 149.12 79.4 182.4 86.14C198.86 89.5408 213.892 97.8791 225.491 110.043C237.09 122.206 244.705 137.617 247.32 154.22C252.851 156.021 258.164 158.432 263.16 161.41C262.027 142.409 255.384 124.149 244.043 108.86C232.703 93.5721 217.155 81.9175 199.3 75.32C161.61 61.5 117.4 73.7 92.03 104.75C67.03 135.35 62.77 179.05 82.03 213.55C84.889 208.827 88.3144 204.472 92.23 200.58Z"/>
<path d="M174.07 41.54V7.89C174.07 -1.76 159.07 -1.78 159.07 7.89V41.54C159.07 51.19 174.07 51.21 174.07 41.54Z"/>
<path d="M97.66 62.05C102.49 70.41 115.45 62.86 110.66 54.48L93.83 25.33C89 16.97 76.04 24.52 80.83 32.9L97.66 62.05Z"/>
<path d="M62.22 97.49L33.07 80.66C24.7 75.82 17.13 88.78 25.5 93.66L54.65 110.49C63 115.28 70.59 102.32 62.22 97.49Z"/>
<path d="M8.06003 173.9H41.71C51.36 173.9 51.38 158.9 41.71 158.9H8.06003C-1.59997 158.9 -1.60997 173.9 8.06003 173.9Z"/>
<path d="M33.08 252.13L62.23 235.3C70.59 230.47 63.04 217.51 54.66 222.3L25.51 239.13C17.15 244 24.69 257 33.08 252.13Z"/>
<path d="M291.42 173.9H325.07C334.72 173.9 334.74 158.9 325.07 158.9H291.42C281.77 158.9 281.75 173.9 291.42 173.9Z"/>
<path d="M278.48 110.44L307.63 93.61C315.99 88.78 308.44 75.82 300.06 80.61L270.91 97.44C262.55 102.32 270.1 115.28 278.48 110.44Z"/>
<path d="M235.47 62.05L252.3 32.9C257.14 24.53 244.18 16.96 239.3 25.33L222.47 54.48C217.68 62.86 230.64 70.42 235.47 62.05Z"/>
<path d="M298.25 203.37C298.79 204.78 299.3 206.21 299.76 207.66C300.215 208.978 300.271 210.401 299.92 211.75C311.349 215.916 320.945 223.976 327.023 234.513C333.101 245.051 335.273 257.393 333.157 269.372C331.04 281.351 324.772 292.202 315.452 300.02C306.131 307.837 294.355 312.121 282.19 312.12H141.54C130.809 312.121 120.261 309.346 110.919 304.067C101.577 298.787 93.7585 291.182 88.2236 281.989C82.6886 272.795 79.6249 262.327 79.3299 251.601C79.0349 240.874 81.5187 230.253 86.54 220.77C85.54 219.33 84.59 217.87 83.68 216.37C83.12 215.44 82.58 214.5 82.06 213.56C73.4197 227.971 70.1505 244.972 72.83 261.56C74.6995 272.556 79.1785 282.942 85.8913 291.849C92.6042 300.756 101.355 307.924 111.41 312.75C123.09 318.22 135.19 319.61 147.86 319.61H271.31C281.11 319.61 290.81 319.89 300.31 316.79C324.94 308.73 342.16 284.96 341.44 258.92C341.017 246.29 336.613 234.116 328.856 224.139C321.099 214.162 310.387 206.893 298.25 203.37Z"/>
<path d="M141.54 187.65C148.051 187.639 154.523 188.652 160.72 190.65C169.962 176.748 183.647 166.394 199.538 161.278C215.428 156.163 232.584 156.59 248.2 162.49C248.044 159.713 247.747 156.946 247.31 154.2C243.937 153.108 240.492 152.252 237 151.64C222.274 149.04 207.119 150.503 193.162 155.871C179.206 161.24 166.977 170.311 157.79 182.11C159.46 182.49 161.11 182.93 162.79 183.44L154.32 186.89C155.44 185.25 156.607 183.657 157.82 182.11C146.551 179.482 134.809 179.667 123.628 182.649C112.448 185.631 102.173 191.319 93.71 199.21C93.23 199.66 92.71 200.12 92.29 200.59C93.3802 203.003 94.5917 205.359 95.92 207.65C101.73 201.346 108.783 196.314 116.635 192.871C124.487 189.429 132.967 187.651 141.54 187.65Z"/>
<path d="M162.72 183.44C161.07 182.93 159.42 182.49 157.72 182.11C156.507 183.657 155.34 185.25 154.22 186.89L162.72 183.44Z"/>
<path d="M263.22 170.28C275.103 178.286 284.406 189.569 290 202.76C291.434 202.179 293.013 202.057 294.52 202.41C295.78 202.68 297.02 203.01 298.25 203.41C291.589 185.871 279.227 171.079 263.15 161.41C263.25 163.06 263.32 164.72 263.33 166.41C263.32 167.7 263.28 169 263.22 170.28Z"/>
<path d="M290 202.76C290.958 205.013 291.803 207.312 292.53 209.65C295.042 210.164 297.513 210.866 299.92 211.75C300.271 210.401 300.215 208.978 299.76 207.66C299.3 206.21 298.76 204.79 298.25 203.37C297.02 203.02 295.78 202.69 294.52 202.37C293.009 202.03 291.43 202.166 290 202.76Z"/>
<path d="M263.33 166.4C263.39 158.11 252.33 156.94 249.18 162.9C253.872 164.767 258.359 167.112 262.57 169.9C263.105 168.813 263.365 167.611 263.33 166.4Z"/>
<path d="M263.22 170.28C263.28 168.99 263.33 167.69 263.34 166.39C263.366 167.589 263.102 168.776 262.57 169.85L263.22 170.28Z"/>
<path d="M86.54 220.77C89.0662 216.009 92.199 211.596 95.86 207.64C94.5318 205.349 93.3202 202.993 92.23 200.58C88.3229 204.483 84.9076 208.848 82.06 213.58C82.59 214.52 83.12 215.46 83.68 216.39C84.59 217.87 85.56 219.33 86.54 220.77Z"/>
<path d="M248.21 162.51L249.21 162.89C252.38 156.89 263.43 158.1 263.36 166.39C263.36 164.72 263.28 163.06 263.18 161.39C258.184 158.412 252.871 156.001 247.34 154.2C247.771 156.953 248.061 159.727 248.21 162.51Z"/>
<path d="M158.73 197.91C162.07 198.91 165.36 197.17 167.2 194.46C181.85 172.92 208.62 161.32 234.35 166.36C239.099 167.292 243.733 168.737 248.17 170.67C248.26 169.25 248.32 167.83 248.33 166.4C248.34 164.97 248.27 163.8 248.2 162.52C232.584 156.62 215.428 156.193 199.538 161.308C183.647 166.424 169.962 176.778 160.72 190.68C149.413 187.024 137.295 186.682 125.799 189.694C114.304 192.707 103.911 198.948 95.85 207.68C97.14 209.89 98.55 212.04 100.07 214.13C114.47 197.39 137.64 191.4 158.73 197.91Z"/>
<path d="M290 202.76C288.381 203.506 287.043 204.752 286.185 206.314C285.326 207.877 284.992 209.673 285.23 211.44L285.3 211.64C287.75 219.29 298.25 217.82 299.93 211.74C297.523 210.856 295.052 210.154 292.54 209.64C291.809 207.306 290.961 205.009 290 202.76Z"/>
<path d="M285.3 211.64L285.23 211.44C285.41 212.798 286.024 214.062 286.981 215.042C287.938 216.023 289.187 216.667 290.54 216.88C309.93 221.09 325.26 237.27 326.36 257.49C327.36 276.55 316.16 294.77 298.18 301.66C290.06 304.77 281.93 304.61 273.46 304.61H158C152.52 304.61 147 304.66 141.55 304.61C132.412 304.624 123.416 302.348 115.384 297.991C107.351 293.634 100.538 287.335 95.5661 279.668C90.5941 272.001 87.6216 263.211 86.9201 254.1C86.2186 244.989 87.8103 235.848 91.55 227.51C89.77 225.35 88.0834 223.103 86.49 220.77C81.4687 230.253 78.9849 240.874 79.2799 251.601C79.5749 262.327 82.6386 272.795 88.1736 281.989C93.7085 291.182 101.527 298.787 110.869 304.067C120.211 309.346 130.759 312.121 141.49 312.12H282.19C294.355 312.121 306.131 307.837 315.452 300.02C324.772 292.202 331.04 281.351 333.157 269.372C335.273 257.393 333.101 245.051 327.023 234.513C320.945 223.976 311.349 215.916 299.92 211.75C298.25 217.82 287.75 219.3 285.3 211.64Z"/>
<path d="M285.24 211.45C285.002 209.683 285.336 207.887 286.195 206.324C287.054 204.762 288.391 203.516 290.01 202.77C284.413 189.578 275.107 178.294 263.22 170.29C263.08 173.237 262.807 176.16 262.4 179.06C273.112 187.3 281.076 198.593 285.24 211.45Z"/>
<path d="M250.75 171.85C251.723 172.323 252.683 172.817 253.63 173.33C256.97 174.24 260.93 173.08 262.56 169.85C258.349 167.062 253.862 164.717 249.17 162.85C248.606 163.93 248.314 165.132 248.32 166.35C248.291 167.39 248.494 168.423 248.914 169.374C249.335 170.326 249.962 171.171 250.75 171.85Z"/>
<path d="M97.64 217.12C98.42 216.07 99.24 215.06 100.08 214.12C98.56 212.03 97.15 209.88 95.86 207.67C92.199 211.626 89.0662 216.039 86.54 220.8C88.1334 223.133 89.82 225.38 91.6 227.54C93.2185 223.852 95.2444 220.357 97.64 217.12Z"/>
<path d="M248.33 166.4C248.33 167.83 248.26 169.25 248.17 170.67C249.037 171.05 249.893 171.443 250.74 171.85C249.962 171.175 249.343 170.336 248.926 169.394C248.51 168.452 248.306 167.43 248.33 166.4Z"/>
<path d="M249.18 162.89L248.18 162.51C248.25 163.8 248.3 165.09 248.31 166.39C248.31 165.17 248.609 163.968 249.18 162.89Z"/>
<path d="M253.63 173.33C256.694 175.006 259.623 176.919 262.39 179.05C262.797 176.157 263.07 173.233 263.21 170.28L262.56 169.85C260.93 173.09 257 174.24 253.63 173.33Z"/>
</mask>
<path d="M92.23 200.58C86.7504 188.402 84.29 175.082 85.0577 161.75C85.8255 148.418 89.7987 135.468 96.64 124C114.18 95.05 149.12 79.4 182.4 86.14C198.86 89.5408 213.892 97.8791 225.491 110.043C237.09 122.206 244.705 137.617 247.32 154.22C252.851 156.021 258.164 158.432 263.16 161.41C262.027 142.409 255.384 124.149 244.043 108.86C232.703 93.5721 217.155 81.9175 199.3 75.32C161.61 61.5 117.4 73.7 92.03 104.75C67.03 135.35 62.77 179.05 82.03 213.55C84.889 208.827 88.3144 204.472 92.23 200.58Z" fill="white"/>
<path d="M174.07 41.54V7.89C174.07 -1.76 159.07 -1.78 159.07 7.89V41.54C159.07 51.19 174.07 51.21 174.07 41.54Z" fill="white"/>
<path d="M97.66 62.05C102.49 70.41 115.45 62.86 110.66 54.48L93.83 25.33C89 16.97 76.04 24.52 80.83 32.9L97.66 62.05Z" fill="white"/>
<path d="M62.22 97.49L33.07 80.66C24.7 75.82 17.13 88.78 25.5 93.66L54.65 110.49C63 115.28 70.59 102.32 62.22 97.49Z" fill="white"/>
<path d="M8.06003 173.9H41.71C51.36 173.9 51.38 158.9 41.71 158.9H8.06003C-1.59997 158.9 -1.60997 173.9 8.06003 173.9Z" fill="white"/>
<path d="M33.08 252.13L62.23 235.3C70.59 230.47 63.04 217.51 54.66 222.3L25.51 239.13C17.15 244 24.69 257 33.08 252.13Z" fill="white"/>
<path d="M291.42 173.9H325.07C334.72 173.9 334.74 158.9 325.07 158.9H291.42C281.77 158.9 281.75 173.9 291.42 173.9Z" fill="white"/>
<path d="M278.48 110.44L307.63 93.61C315.99 88.78 308.44 75.82 300.06 80.61L270.91 97.44C262.55 102.32 270.1 115.28 278.48 110.44Z" fill="white"/>
<path d="M235.47 62.05L252.3 32.9C257.14 24.53 244.18 16.96 239.3 25.33L222.47 54.48C217.68 62.86 230.64 70.42 235.47 62.05Z" fill="white"/>
<path d="M298.25 203.37C298.79 204.78 299.3 206.21 299.76 207.66C300.215 208.978 300.271 210.401 299.92 211.75C311.349 215.916 320.945 223.976 327.023 234.513C333.101 245.051 335.273 257.393 333.157 269.372C331.04 281.351 324.772 292.202 315.452 300.02C306.131 307.837 294.355 312.121 282.19 312.12H141.54C130.809 312.121 120.261 309.346 110.919 304.067C101.577 298.787 93.7585 291.182 88.2236 281.989C82.6886 272.795 79.6249 262.327 79.3299 251.601C79.0349 240.874 81.5187 230.253 86.54 220.77C85.54 219.33 84.59 217.87 83.68 216.37C83.12 215.44 82.58 214.5 82.06 213.56C73.4197 227.971 70.1505 244.972 72.83 261.56C74.6995 272.556 79.1785 282.942 85.8913 291.849C92.6042 300.756 101.355 307.924 111.41 312.75C123.09 318.22 135.19 319.61 147.86 319.61H271.31C281.11 319.61 290.81 319.89 300.31 316.79C324.94 308.73 342.16 284.96 341.44 258.92C341.017 246.29 336.613 234.116 328.856 224.139C321.099 214.162 310.387 206.893 298.25 203.37Z" fill="white"/>
<path d="M141.54 187.65C148.051 187.639 154.523 188.652 160.72 190.65C169.962 176.748 183.647 166.394 199.538 161.278C215.428 156.163 232.584 156.59 248.2 162.49C248.044 159.713 247.747 156.946 247.31 154.2C243.937 153.108 240.492 152.252 237 151.64C222.274 149.04 207.119 150.503 193.162 155.871C179.206 161.24 166.977 170.311 157.79 182.11C159.46 182.49 161.11 182.93 162.79 183.44L154.32 186.89C155.44 185.25 156.607 183.657 157.82 182.11C146.551 179.482 134.809 179.667 123.628 182.649C112.448 185.631 102.173 191.319 93.71 199.21C93.23 199.66 92.71 200.12 92.29 200.59C93.3802 203.003 94.5917 205.359 95.92 207.65C101.73 201.346 108.783 196.314 116.635 192.871C124.487 189.429 132.967 187.651 141.54 187.65Z" fill="white"/>
<path d="M162.72 183.44C161.07 182.93 159.42 182.49 157.72 182.11C156.507 183.657 155.34 185.25 154.22 186.89L162.72 183.44Z" fill="white"/>
<path d="M263.22 170.28C275.103 178.286 284.406 189.569 290 202.76C291.434 202.179 293.013 202.057 294.52 202.41C295.78 202.68 297.02 203.01 298.25 203.41C291.589 185.871 279.227 171.079 263.15 161.41C263.25 163.06 263.32 164.72 263.33 166.41C263.32 167.7 263.28 169 263.22 170.28Z" fill="white"/>
<path d="M290 202.76C290.958 205.013 291.803 207.312 292.53 209.65C295.042 210.164 297.513 210.866 299.92 211.75C300.271 210.401 300.215 208.978 299.76 207.66C299.3 206.21 298.76 204.79 298.25 203.37C297.02 203.02 295.78 202.69 294.52 202.37C293.009 202.03 291.43 202.166 290 202.76Z" fill="white"/>
<path d="M263.33 166.4C263.39 158.11 252.33 156.94 249.18 162.9C253.872 164.767 258.359 167.112 262.57 169.9C263.105 168.813 263.365 167.611 263.33 166.4Z" fill="white"/>
<path d="M263.22 170.28C263.28 168.99 263.33 167.69 263.34 166.39C263.366 167.589 263.102 168.776 262.57 169.85L263.22 170.28Z" fill="white"/>
<path d="M86.54 220.77C89.0662 216.009 92.199 211.596 95.86 207.64C94.5318 205.349 93.3202 202.993 92.23 200.58C88.3229 204.483 84.9076 208.848 82.06 213.58C82.59 214.52 83.12 215.46 83.68 216.39C84.59 217.87 85.56 219.33 86.54 220.77Z" fill="white"/>
<path d="M248.21 162.51L249.21 162.89C252.38 156.89 263.43 158.1 263.36 166.39C263.36 164.72 263.28 163.06 263.18 161.39C258.184 158.412 252.871 156.001 247.34 154.2C247.771 156.953 248.061 159.727 248.21 162.51Z" fill="white"/>
<path d="M158.73 197.91C162.07 198.91 165.36 197.17 167.2 194.46C181.85 172.92 208.62 161.32 234.35 166.36C239.099 167.292 243.733 168.737 248.17 170.67C248.26 169.25 248.32 167.83 248.33 166.4C248.34 164.97 248.27 163.8 248.2 162.52C232.584 156.62 215.428 156.193 199.538 161.308C183.647 166.424 169.962 176.778 160.72 190.68C149.413 187.024 137.295 186.682 125.799 189.694C114.304 192.707 103.911 198.948 95.85 207.68C97.14 209.89 98.55 212.04 100.07 214.13C114.47 197.39 137.64 191.4 158.73 197.91Z" fill="white"/>
<path d="M290 202.76C288.381 203.506 287.043 204.752 286.185 206.314C285.326 207.877 284.992 209.673 285.23 211.44L285.3 211.64C287.75 219.29 298.25 217.82 299.93 211.74C297.523 210.856 295.052 210.154 292.54 209.64C291.809 207.306 290.961 205.009 290 202.76Z" fill="white"/>
<path d="M285.3 211.64L285.23 211.44C285.41 212.798 286.024 214.062 286.981 215.042C287.938 216.023 289.187 216.667 290.54 216.88C309.93 221.09 325.26 237.27 326.36 257.49C327.36 276.55 316.16 294.77 298.18 301.66C290.06 304.77 281.93 304.61 273.46 304.61H158C152.52 304.61 147 304.66 141.55 304.61C132.412 304.624 123.416 302.348 115.384 297.991C107.351 293.634 100.538 287.335 95.5661 279.668C90.5941 272.001 87.6216 263.211 86.9201 254.1C86.2186 244.989 87.8103 235.848 91.55 227.51C89.77 225.35 88.0834 223.103 86.49 220.77C81.4687 230.253 78.9849 240.874 79.2799 251.601C79.5749 262.327 82.6386 272.795 88.1736 281.989C93.7085 291.182 101.527 298.787 110.869 304.067C120.211 309.346 130.759 312.121 141.49 312.12H282.19C294.355 312.121 306.131 307.837 315.452 300.02C324.772 292.202 331.04 281.351 333.157 269.372C335.273 257.393 333.101 245.051 327.023 234.513C320.945 223.976 311.349 215.916 299.92 211.75C298.25 217.82 287.75 219.3 285.3 211.64Z" fill="white"/>
<path d="M285.24 211.45C285.002 209.683 285.336 207.887 286.195 206.324C287.054 204.762 288.391 203.516 290.01 202.77C284.413 189.578 275.107 178.294 263.22 170.29C263.08 173.237 262.807 176.16 262.4 179.06C273.112 187.3 281.076 198.593 285.24 211.45Z" fill="white"/>
<path d="M250.75 171.85C251.723 172.323 252.683 172.817 253.63 173.33C256.97 174.24 260.93 173.08 262.56 169.85C258.349 167.062 253.862 164.717 249.17 162.85C248.606 163.93 248.314 165.132 248.32 166.35C248.291 167.39 248.494 168.423 248.914 169.374C249.335 170.326 249.962 171.171 250.75 171.85Z" fill="white"/>
<path d="M97.64 217.12C98.42 216.07 99.24 215.06 100.08 214.12C98.56 212.03 97.15 209.88 95.86 207.67C92.199 211.626 89.0662 216.039 86.54 220.8C88.1334 223.133 89.82 225.38 91.6 227.54C93.2185 223.852 95.2444 220.357 97.64 217.12Z" fill="white"/>
<path d="M248.33 166.4C248.33 167.83 248.26 169.25 248.17 170.67C249.037 171.05 249.893 171.443 250.74 171.85C249.962 171.175 249.343 170.336 248.926 169.394C248.51 168.452 248.306 167.43 248.33 166.4Z" fill="white"/>
<path d="M249.18 162.89L248.18 162.51C248.25 163.8 248.3 165.09 248.31 166.39C248.31 165.17 248.609 163.968 249.18 162.89Z" fill="white"/>
<path d="M253.63 173.33C256.694 175.006 259.623 176.919 262.39 179.05C262.797 176.157 263.07 173.233 263.21 170.28L262.56 169.85C260.93 173.09 257 174.24 253.63 173.33Z" fill="white"/>
<path d="M299.92 211.75L299.436 211.624L299.322 212.064L299.749 212.22L299.92 211.75ZM104.573 58.01L87.743 28.86L86.877 29.36L103.707 58.51L104.573 58.01ZM29.0397 87.5728L58.1897 104.433L58.6904 103.567L29.5404 86.7072L29.0397 87.5728ZM58.19 228.397L29.04 245.227L29.54 246.093L58.69 229.263L58.19 228.397ZM303.59 86.7072L274.45 103.567L274.95 104.433L304.09 87.5728L303.59 86.7072ZM245.387 28.8701L228.567 58.0201L229.433 58.5199L246.253 29.3699L245.387 28.8701ZM299.287 207.823C299.71 209.048 299.762 210.37 299.436 211.624L300.404 211.876C300.779 210.431 300.72 208.908 300.233 207.497L299.287 207.823ZM299.749 212.22C311.067 216.346 320.571 224.328 326.59 234.763L327.456 234.264C321.319 223.624 311.631 215.487 300.091 211.28L299.749 212.22ZM326.59 234.763C332.609 245.199 334.76 257.422 332.664 269.285L333.649 269.459C335.785 257.364 333.593 244.903 327.456 234.264L326.59 234.763ZM332.664 269.285C330.569 281.149 324.361 291.895 315.13 299.637L315.773 300.403C325.183 292.51 331.512 281.554 333.649 269.459L332.664 269.285ZM315.13 299.637C305.9 307.379 294.237 311.621 282.19 311.62L282.19 312.62C294.472 312.621 306.362 308.296 315.773 300.403L315.13 299.637ZM284.758 211.605L284.828 211.805L285.772 211.475L285.702 211.275L284.758 211.605ZM96.64 124L95.7847 123.482L95.7812 123.488L96.64 124ZM182.4 86.14L182.602 85.1607L182.599 85.1599L182.4 86.14ZM247.32 154.22L246.332 154.376L246.428 154.981L247.01 155.171L247.32 154.22ZM263.16 161.41L262.648 162.269L264.271 163.236L264.158 161.35L263.16 161.41ZM199.3 75.32L199.647 74.382L199.644 74.3811L199.3 75.32ZM92.03 104.75L91.2556 104.117L91.2556 104.117L92.03 104.75ZM82.03 213.55L81.1569 214.037L81.995 215.539L82.8855 214.068L82.03 213.55ZM97.66 62.05L96.794 62.55L96.7942 62.5503L97.66 62.05ZM110.66 54.48L111.528 53.9837L111.526 53.98L110.66 54.48ZM93.83 25.33L94.696 24.83L94.6959 24.8297L93.83 25.33ZM80.83 32.9L79.9618 33.3963L79.964 33.4L80.83 32.9ZM62.22 97.49L61.72 98.356L61.7202 98.3561L62.22 97.49ZM33.07 80.66L32.5694 81.5257L32.57 81.526L33.07 80.66ZM25.5 93.66L24.9963 94.5239L25 94.526L25.5 93.66ZM54.65 110.49L54.15 111.356L54.1524 111.357L54.65 110.49ZM8.06003 158.9L8.06003 157.9L8.06003 158.9ZM33.08 252.13L32.58 251.264L32.578 251.265L33.08 252.13ZM62.23 235.3L62.73 236.166L62.7303 236.166L62.23 235.3ZM54.66 222.3L54.1638 221.432L54.16 221.434L54.66 222.3ZM25.51 239.13L25.01 238.264L25.0067 238.266L25.51 239.13ZM291.42 158.9V157.9V158.9ZM278.48 110.44L277.98 109.574L277.98 109.574L278.48 110.44ZM307.63 93.61L308.13 94.476L308.13 94.4759L307.63 93.61ZM300.06 80.61L299.564 79.7418L299.56 79.744L300.06 80.61ZM270.91 97.44L270.41 96.574L270.406 96.5764L270.91 97.44ZM235.47 62.05L234.604 61.55L234.604 61.5502L235.47 62.05ZM252.3 32.9L251.434 32.3994L251.434 32.4L252.3 32.9ZM239.3 25.33L238.436 24.8263L238.434 24.83L239.3 25.33ZM222.47 54.48L221.604 53.98L221.602 53.9837L222.47 54.48ZM298.25 203.37L298.529 202.41L298.524 202.408L298.25 203.37ZM299.92 211.75L300.884 212.015L301.128 211.128L300.265 210.811L299.92 211.75ZM141.54 312.12L141.54 311.12L141.54 311.12L141.54 312.12ZM83.68 216.37L82.8233 216.886L82.8251 216.889L83.68 216.37ZM82.06 213.56L82.9351 213.076L82.0949 211.557L81.2024 213.046L82.06 213.56ZM72.83 261.56L71.8428 261.719L71.8442 261.728L72.83 261.56ZM111.41 312.75L110.977 313.652L110.986 313.656L111.41 312.75ZM300.31 316.79L300.62 317.741L300.621 317.74L300.31 316.79ZM341.44 258.92L342.44 258.892L342.439 258.887L341.44 258.92ZM141.54 187.65L141.54 188.65L141.542 188.65L141.54 187.65ZM160.72 190.65L160.413 191.602L161.134 191.834L161.553 191.204L160.72 190.65ZM248.2 162.49L247.847 163.425L249.285 163.969L249.198 162.434L248.2 162.49ZM247.31 154.2L248.298 154.043L248.201 153.437L247.618 153.249L247.31 154.2ZM237 151.64L236.826 152.625L236.827 152.625L237 151.64ZM157.79 182.11L157.001 181.496L156.035 182.736L157.568 183.085L157.79 182.11ZM162.79 183.44L163.167 184.366L165.779 183.302L163.081 182.483L162.79 183.44ZM154.32 186.89L153.494 186.326L151.621 189.069L154.697 187.816L154.32 186.89ZM157.82 182.11L158.607 182.727L159.575 181.493L158.047 181.136L157.82 182.11ZM93.71 199.21L93.0281 198.479L93.0261 198.48L93.71 199.21ZM92.29 200.59L91.5444 199.924L91.1108 200.409L91.3787 201.002L92.29 200.59ZM95.92 207.65L95.055 208.152L95.7357 209.326L96.6554 208.328L95.92 207.65ZM162.72 183.44L163.096 184.367L165.693 183.312L163.015 182.485L162.72 183.44ZM157.72 182.11L157.938 181.134L157.323 180.996L156.933 181.493L157.72 182.11ZM154.22 186.89L153.394 186.326L151.525 189.063L154.596 187.817L154.22 186.89ZM294.52 202.41L294.292 203.384L294.301 203.386L294.31 203.388L294.52 202.41ZM298.25 203.41L297.941 204.361L299.926 205.007L299.185 203.055L298.25 203.41ZM263.15 161.41L263.665 160.553L262.037 159.574L262.152 161.471L263.15 161.41ZM263.33 166.41L264.33 166.418L264.33 166.404L263.33 166.41ZM292.53 209.65L291.575 209.947L291.751 210.511L292.329 210.63L292.53 209.65ZM294.52 202.37L294.766 201.401L294.753 201.397L294.74 201.394L294.52 202.37ZM263.33 166.4L262.33 166.393L262.33 166.411L262.33 166.429L263.33 166.4ZM249.18 162.9L248.296 162.433L247.775 163.417L248.81 163.829L249.18 162.9ZM262.57 169.9L262.018 170.734L262.966 171.361L263.467 170.341L262.57 169.9ZM263.34 166.39L264.34 166.368L262.34 166.382L263.34 166.39ZM262.57 169.85L261.674 169.407L261.282 170.197L262.018 170.684L262.57 169.85ZM95.86 207.64L96.5939 208.319L97.0956 207.777L96.7251 207.138L95.86 207.64ZM82.06 213.58L81.2032 213.064L80.9028 213.564L81.1889 214.071L82.06 213.58ZM83.68 216.39L82.8233 216.906L82.8282 216.914L83.68 216.39ZM248.21 162.51L247.211 162.563L247.246 163.214L247.855 163.445L248.21 162.51ZM249.21 162.89L248.855 163.825L249.681 164.139L250.094 163.357L249.21 162.89ZM263.36 166.39H262.36L264.36 166.398L263.36 166.39ZM263.18 161.39L264.178 161.33L264.147 160.802L263.692 160.531L263.18 161.39ZM247.34 154.2L247.65 153.249L246.1 152.745L246.352 154.355L247.34 154.2ZM158.73 197.91L158.435 198.866L158.443 198.868L158.73 197.91ZM167.2 194.46L166.373 193.898L166.373 193.898L167.2 194.46ZM234.35 166.36L234.543 165.379L234.542 165.379L234.35 166.36ZM248.2 162.52L249.199 162.465L249.163 161.815L248.553 161.585L248.2 162.52ZM160.72 190.68L160.412 191.631L161.133 191.865L161.553 191.234L160.72 190.68ZM95.85 207.68L95.1153 207.002L94.6135 207.545L94.9864 208.184L95.85 207.68ZM100.07 214.13L99.2613 214.718L100.004 215.74L100.828 214.782L100.07 214.13ZM285.23 211.44L286.221 211.309L286.221 211.306L285.23 211.44ZM285.3 211.64L286.252 211.335L284.348 211.945L285.3 211.64ZM299.93 211.74L300.894 212.006L301.139 211.119L300.275 210.801L299.93 211.74ZM292.54 209.64L291.586 209.939L291.762 210.501L292.339 210.62L292.54 209.64ZM290.54 216.88L290.752 215.903L290.724 215.897L290.695 215.892L290.54 216.88ZM326.36 257.49L327.359 257.438L327.359 257.436L326.36 257.49ZM298.18 301.66L298.538 302.594L298.538 302.594L298.18 301.66ZM141.55 304.61L141.559 303.61L141.549 303.61L141.55 304.61ZM91.55 227.51L92.4624 227.919L92.7164 227.353L92.3217 226.874L91.55 227.51ZM86.49 220.77L87.3159 220.206L86.3816 218.838L85.6063 220.302L86.49 220.77ZM141.49 312.12L141.49 311.12L141.49 311.12L141.49 312.12ZM285.24 211.45L284.289 211.758L286.231 211.316L285.24 211.45ZM290.01 202.77L290.428 203.678L291.309 203.272L290.931 202.379L290.01 202.77ZM263.22 170.29L263.779 169.461L262.305 168.469L262.221 170.243L263.22 170.29ZM262.4 179.06L261.41 178.921L261.329 179.498L261.79 179.853L262.4 179.06ZM250.75 171.85L250.098 172.608L250.196 172.693L250.313 172.749L250.75 171.85ZM249.17 162.85L249.54 161.921L248.701 161.587L248.284 162.387L249.17 162.85ZM248.32 166.35L249.32 166.378L249.32 166.362L249.32 166.345L248.32 166.35ZM97.64 217.12L96.8373 216.524L96.8362 216.525L97.64 217.12ZM100.08 214.12L100.826 214.786L101.363 214.185L100.889 213.532L100.08 214.12ZM95.86 207.67L96.7237 207.166L96.0431 206L95.1261 206.991L95.86 207.67ZM86.54 220.8L85.6567 220.331L85.3735 220.865L85.7142 221.364L86.54 220.8ZM91.6 227.54L90.8283 228.176L91.8623 229.431L92.5157 227.942L91.6 227.54ZM250.74 171.85L250.307 172.751L251.395 171.095L250.74 171.85ZM249.18 162.89L250.064 163.358L250.594 162.357L249.535 161.955L249.18 162.89ZM248.18 162.51L248.535 161.575L247.098 161.029L247.181 162.564L248.18 162.51ZM248.31 166.39L247.31 166.398L249.31 166.39L248.31 166.39ZM262.39 179.05L261.78 179.842L263.141 180.891L263.38 179.189L262.39 179.05ZM263.21 170.28L264.209 170.327L264.236 169.76L263.762 169.446L263.21 170.28ZM93.142 200.17C87.7283 188.138 85.2976 174.979 86.0561 161.807L84.0594 161.692C83.2824 175.185 85.7724 188.666 91.3181 200.99L93.142 200.17ZM86.0561 161.807C86.8146 148.636 90.7399 135.842 97.4988 124.512L95.7812 123.488C88.8574 135.094 84.8364 148.2 84.0594 161.692L86.0561 161.807ZM97.4953 124.518C114.82 95.9232 149.342 80.4652 182.202 87.1201L182.599 85.1599C148.898 78.3348 113.54 94.1768 95.7848 123.482L97.4953 124.518ZM182.198 87.1193C198.458 90.479 213.308 98.7163 224.767 110.733L226.214 109.353C214.475 97.0418 199.261 88.6026 182.602 85.1607L182.198 87.1193ZM224.767 110.733C236.226 122.749 243.749 137.974 246.332 154.376L248.308 154.064C245.661 137.261 237.954 121.663 226.214 109.353L224.767 110.733ZM247.01 155.171C252.471 156.949 257.715 159.329 262.648 162.269L263.672 160.551C258.612 157.535 253.231 155.093 247.63 153.269L247.01 155.171ZM264.158 161.35C263.013 142.155 256.303 123.709 244.846 108.265L243.24 109.456C254.465 124.588 261.04 142.662 262.162 161.47L264.158 161.35ZM244.846 108.265C233.39 92.8203 217.684 81.0468 199.647 74.382L198.953 76.258C216.627 82.7882 232.015 94.3239 243.24 109.456L244.846 108.265ZM199.644 74.3811C161.553 60.4139 116.894 72.7387 91.2556 104.117L92.8044 105.383C117.906 74.6613 161.667 62.5861 198.956 76.2589L199.644 74.3811ZM91.2556 104.117C66.0015 135.028 61.6927 179.172 81.1569 214.037L82.9032 213.063C63.8473 178.928 68.0586 135.672 92.8044 105.383L91.2556 104.117ZM82.8855 214.068C85.7022 209.415 89.0771 205.124 92.935 201.289L91.5251 199.871C87.5516 203.82 84.0757 208.24 81.1746 213.032L82.8855 214.068ZM175.07 41.54V7.89H173.07V41.54H175.07ZM175.07 7.89C175.07 5.19351 174.011 3.10314 172.378 1.70046C170.766 0.31571 168.65 -0.353615 166.571 -0.355001C164.492 -0.356387 162.375 0.310142 160.762 1.69467C159.129 3.09718 158.07 5.18914 158.07 7.89H160.07C160.07 5.75585 160.886 4.22407 162.065 3.2122C163.265 2.18235 164.898 1.64388 166.569 1.645C168.24 1.64611 169.874 2.18679 171.075 3.21766C172.254 4.23061 173.07 5.76149 173.07 7.89H175.07ZM158.07 7.89V41.54H160.07V7.89H158.07ZM158.07 41.54C158.07 44.2365 159.129 46.3269 160.762 47.7295C162.374 49.1143 164.49 49.7836 166.569 49.785C168.648 49.7864 170.765 49.1198 172.378 47.7353C174.011 46.3328 175.07 44.2408 175.07 41.54H173.07C173.07 43.6741 172.254 45.2059 171.075 46.2178C169.875 47.2476 168.242 47.7861 166.571 47.785C164.9 47.7839 163.266 47.2432 162.065 46.2123C160.886 45.1994 160.07 43.6685 160.07 41.54H158.07ZM96.7942 62.5503C98.1437 64.8861 100.105 66.1641 102.22 66.5558C104.308 66.9424 106.473 66.454 108.271 65.4066C110.069 64.3591 111.566 62.7152 112.272 60.7052C112.987 58.6698 112.867 56.3251 111.528 53.9837L109.792 54.9762C110.849 56.8249 110.904 58.5664 110.385 60.0422C109.858 61.5435 108.711 62.8358 107.264 63.6784C105.817 64.521 104.136 64.8764 102.585 64.5892C101.061 64.3071 99.5914 63.3939 98.5259 61.5497L96.7942 62.5503ZM111.526 53.98L94.696 24.83L92.964 25.83L109.794 54.98L111.526 53.98ZM94.6959 24.8297C93.3464 22.4939 91.3849 21.2159 89.2696 20.8242C87.1818 20.4376 85.0175 20.926 83.2192 21.9734C81.4208 23.0209 79.9241 24.6648 79.2178 26.6747C78.5026 28.7102 78.6235 31.0549 79.9618 33.3963L81.6982 32.4038C80.6415 30.5551 80.5862 28.8136 81.1047 27.3378C81.6322 25.8365 82.7792 24.5442 84.2258 23.7016C85.6726 22.859 87.3545 22.5036 88.9055 22.7908C90.4289 23.0729 91.8987 23.9861 92.9641 25.8303L94.6959 24.8297ZM79.964 33.4L96.794 62.55L98.526 61.55L81.696 32.4L79.964 33.4ZM62.72 96.624L33.57 79.794L32.57 81.526L61.72 98.356L62.72 96.624ZM33.5706 79.7943C31.2328 78.4424 28.8881 78.3101 26.8506 79.0186C24.8388 79.7182 23.1928 81.2124 22.1437 83.0112C21.0947 84.81 20.6054 86.9773 20.9913 89.0707C21.3822 91.1911 22.6595 93.1614 24.9964 94.5239L26.0037 92.7961C24.1556 91.7186 23.2404 90.2389 22.9581 88.7081C22.671 87.1503 23.0279 85.465 23.8714 84.0188C24.7148 82.5726 26.0075 81.4293 27.5075 80.9076C28.9819 80.3949 30.7223 80.4576 32.5694 81.5257L33.5706 79.7943ZM25 94.526L54.15 111.356L55.15 109.624L26 92.794L25 94.526ZM54.1524 111.357C56.4872 112.697 58.8295 112.817 60.8641 112.102C62.8731 111.396 64.5186 109.9 65.5686 108.102C66.6184 106.304 67.1105 104.14 66.726 102.051C66.3364 99.9353 65.0585 97.9734 62.7198 96.6239L61.7202 98.3561C63.5666 99.4216 64.4787 100.891 64.7591 102.414C65.0445 103.964 64.6867 105.646 63.8415 107.093C62.9964 108.54 61.702 109.688 60.2009 110.215C58.7255 110.734 56.9878 110.678 55.1476 109.623L54.1524 111.357ZM8.06003 174.9H41.71V172.9H8.06003V174.9ZM41.71 174.9C44.4065 174.9 46.4969 173.841 47.8996 172.208C49.2843 170.596 49.9536 168.48 49.955 166.401C49.9564 164.322 49.2899 162.205 47.9054 160.592C46.5029 158.959 44.4109 157.9 41.71 157.9V159.9C43.8442 159.9 45.376 160.716 46.3878 161.895C47.4177 163.095 47.9561 164.728 47.955 166.399C47.9539 168.07 47.4132 169.704 46.3824 170.905C45.3694 172.084 43.8385 172.9 41.71 172.9V174.9ZM41.71 157.9H8.06003V159.9H41.71V157.9ZM8.06003 157.9C5.36139 157.9 3.26972 158.959 1.8664 160.592C0.480995 162.204 -0.188027 164.321 -0.18872 166.4C-0.189413 168.479 0.478211 170.595 1.8635 172.208C3.26674 173.841 5.3592 174.9 8.06003 174.9V172.9C5.92586 172.9 4.39332 172.084 3.38062 170.905C2.34997 169.705 1.81072 168.071 1.81128 166.4C1.81184 164.729 2.35219 163.096 3.38335 161.895C4.39659 160.716 5.92867 159.9 8.06003 159.9V157.9ZM33.58 252.996L62.73 236.166L61.73 234.434L32.58 251.264L33.58 252.996ZM62.7303 236.166C65.0661 234.816 66.3441 232.855 66.7358 230.74C67.1224 228.652 66.634 226.487 65.5866 224.689C64.5392 222.891 62.8953 221.394 60.8853 220.688C58.8499 219.973 56.5051 220.094 54.1638 221.432L55.1563 223.168C57.005 222.111 58.7465 222.056 60.2223 222.575C61.7236 223.102 63.0159 224.249 63.8584 225.696C64.701 227.143 65.0564 228.825 64.7692 230.375C64.4872 231.899 63.5739 233.369 61.7298 234.434L62.7303 236.166ZM54.16 221.434L25.01 238.264L26.01 239.996L55.16 223.166L54.16 221.434ZM25.0067 238.266C22.6715 239.626 21.3947 241.597 21.0028 243.719C20.6158 245.813 21.1023 247.984 22.1492 249.785C23.1961 251.586 24.8408 253.083 26.8539 253.783C28.893 254.491 31.2399 254.354 33.582 252.995L32.578 251.265C30.7252 252.341 28.9833 252.405 27.5102 251.894C26.0111 251.373 24.7202 250.229 23.8784 248.78C23.0365 247.331 22.6812 245.643 22.9695 244.082C23.2528 242.549 24.1685 241.069 26.0134 239.994L25.0067 238.266ZM291.42 174.9H325.07V172.9H291.42V174.9ZM325.07 174.9C327.767 174.9 329.857 173.841 331.26 172.208C332.644 170.596 333.314 168.48 333.315 166.401C333.316 164.322 332.65 162.205 331.265 160.592C329.863 158.959 327.771 157.9 325.07 157.9V159.9C327.204 159.9 328.736 160.716 329.748 161.895C330.778 163.095 331.316 164.728 331.315 166.399C331.314 168.07 330.773 169.704 329.742 170.905C328.729 172.084 327.199 172.9 325.07 172.9V174.9ZM325.07 157.9H291.42V159.9H325.07V157.9ZM291.42 157.9C288.724 157.9 286.633 158.959 285.231 160.592C283.846 162.204 283.176 164.32 283.175 166.399C283.174 168.478 283.84 170.595 285.225 172.208C286.627 173.841 288.719 174.9 291.42 174.9V172.9C289.286 172.9 287.754 172.084 286.742 170.905C285.712 169.705 285.174 168.072 285.175 166.401C285.176 164.73 285.717 163.096 286.748 161.895C287.761 160.716 289.292 159.9 291.42 159.9V157.9ZM278.98 111.306L308.13 94.476L307.13 92.744L277.98 109.574L278.98 111.306ZM308.13 94.4759C310.466 93.1263 311.744 91.1648 312.136 89.0496C312.522 86.9617 312.034 84.7975 310.987 82.9992C309.939 81.2008 308.295 79.704 306.285 78.9978C304.25 78.2826 301.905 78.4035 299.564 79.7418L300.556 81.4782C302.405 80.4215 304.146 80.3661 305.622 80.8847C307.124 81.4122 308.416 82.5592 309.258 84.0058C310.101 85.4525 310.456 87.1345 310.169 88.6854C309.887 90.2089 308.974 91.6787 307.13 92.7441L308.13 94.4759ZM299.56 79.744L270.41 96.574L271.41 98.306L300.56 81.476L299.56 79.744ZM270.406 96.5764C268.072 97.939 266.795 99.9092 266.404 102.029C266.018 104.122 266.506 106.289 267.553 108.088C268.601 109.887 270.246 111.382 272.258 112.081C274.295 112.79 276.64 112.657 278.98 111.306L277.98 109.574C276.13 110.643 274.389 110.705 272.915 110.192C271.415 109.671 270.124 108.528 269.282 107.082C268.439 105.636 268.083 103.95 268.371 102.392C268.653 100.861 269.568 99.381 271.414 98.3036L270.406 96.5764ZM236.336 62.55L253.166 33.4L251.434 32.4L234.604 61.55L236.336 62.55ZM253.166 33.4006C254.518 31.0627 254.65 28.7181 253.941 26.6806C253.242 24.6688 251.748 23.0227 249.949 21.9737C248.15 20.9246 245.983 20.4353 243.889 20.8213C241.769 21.2122 239.799 22.4895 238.436 24.8263L240.164 25.8337C241.241 23.9856 242.721 23.0703 244.252 22.7881C245.81 22.5009 247.495 22.8579 248.941 23.7013C250.387 24.5448 251.531 25.8374 252.052 27.3375C252.565 28.8119 252.502 30.5523 251.434 32.3994L253.166 33.4006ZM238.434 24.83L221.604 53.98L223.336 54.98L240.166 25.83L238.434 24.83ZM221.602 53.9837C220.264 56.3251 220.143 58.6705 220.858 60.7065C221.564 62.7172 223.061 64.362 224.859 65.4102C226.657 66.4583 228.822 66.9471 230.91 66.56C233.025 66.1677 234.987 64.8881 236.336 62.5498L234.604 61.5502C233.538 63.3969 232.068 64.3111 230.545 64.5935C228.995 64.881 227.313 64.5255 225.866 63.6823C224.42 62.8392 223.272 61.546 222.745 60.0438C222.226 58.567 222.282 56.8249 223.338 54.9763L221.602 53.9837ZM297.316 203.728C297.851 205.123 298.354 206.535 298.807 207.962L300.713 207.358C300.246 205.885 299.729 204.437 299.184 203.012L297.316 203.728ZM282.19 311.12H141.54V313.12H282.19V311.12ZM141.54 311.12C130.982 311.121 120.603 308.391 111.411 303.196L110.427 304.937C119.919 310.302 130.637 313.121 141.54 313.12L141.54 311.12ZM111.411 303.196C102.219 298.001 94.5263 290.518 89.0803 281.473L87.3669 282.504C92.9908 291.845 100.935 299.573 110.427 304.937L111.411 303.196ZM89.0803 281.473C83.6343 272.427 80.6198 262.128 80.3295 251.573L78.3303 251.628C78.63 262.527 81.743 273.164 87.3669 282.504L89.0803 281.473ZM80.3295 251.573C80.0393 241.019 82.4831 230.569 87.4238 221.238L85.6563 220.302C80.5542 229.938 78.0305 240.729 78.3303 251.628L80.3295 251.573ZM87.3614 220.2C86.3729 218.776 85.4341 217.333 84.535 215.851L82.8251 216.889C83.746 218.407 84.7072 219.884 85.7187 221.34L87.3614 220.2ZM84.5367 215.854C83.9837 214.936 83.4498 214.007 82.9351 213.076L81.185 214.044C81.7102 214.994 82.2563 215.944 82.8233 216.886L84.5367 215.854ZM81.2024 213.046C72.4408 227.659 69.1257 244.899 71.8428 261.719L73.8172 261.401C71.1754 245.046 74.3986 228.283 82.9177 214.074L81.2024 213.046ZM71.8442 261.728C73.7404 272.881 78.2837 283.417 85.0927 292.451L86.6899 291.247C80.0733 282.468 75.6585 272.23 73.8159 261.392L71.8442 261.728ZM85.0927 292.451C91.9018 301.486 100.778 308.756 110.977 313.652L111.843 311.848C101.932 307.091 93.3065 300.027 86.6899 291.247L85.0927 292.451ZM110.986 313.656C122.854 319.214 135.121 320.61 147.86 320.61V318.61C135.26 318.61 123.326 317.226 111.834 311.844L110.986 313.656ZM147.86 320.61H271.31V318.61H147.86V320.61ZM271.31 320.61C281.055 320.61 290.936 320.901 300.62 317.741L300 315.839C290.684 318.879 281.165 318.61 271.31 318.61V320.61ZM300.621 317.74C325.66 309.546 343.172 285.387 342.44 258.892L340.44 258.948C341.148 284.533 324.22 307.914 299.999 315.84L300.621 317.74ZM342.439 258.887C342.01 246.045 337.532 233.669 329.645 223.525L328.066 224.753C335.694 234.563 340.025 246.534 340.441 258.953L342.439 258.887ZM329.645 223.525C321.759 213.382 310.868 205.991 298.529 202.41L297.971 204.33C309.905 207.794 320.439 214.943 328.066 224.753L329.645 223.525ZM141.542 188.65C147.948 188.639 154.316 189.636 160.413 191.602L161.027 189.698C154.731 187.668 148.154 186.639 141.538 186.65L141.542 188.65ZM161.553 191.204C170.67 177.491 184.169 167.276 199.844 162.23L199.231 160.326C183.125 165.511 169.255 176.006 159.887 190.096L161.553 191.204ZM199.844 162.23C215.519 157.184 232.442 157.606 247.847 163.425L248.553 161.555C232.726 155.575 215.337 155.142 199.231 160.326L199.844 162.23ZM249.198 162.434C249.041 159.623 248.74 156.823 248.298 154.043L246.322 154.357C246.754 157.07 247.047 159.803 247.202 162.546L249.198 162.434ZM247.618 153.249C244.201 152.142 240.711 151.275 237.173 150.655L236.827 152.625C240.274 153.229 243.673 154.074 247.002 155.151L247.618 153.249ZM237.174 150.655C222.269 148.023 206.929 149.504 192.803 154.938L193.521 156.805C207.308 151.501 222.28 150.056 236.826 152.625L237.174 150.655ZM192.803 154.938C178.677 160.372 166.299 169.553 157.001 181.496L158.579 182.724C167.654 171.069 179.734 162.108 193.521 156.805L192.803 154.938ZM157.568 183.085C159.214 183.46 160.841 183.893 162.5 184.397L163.081 182.483C161.379 181.967 159.706 181.52 158.012 181.135L157.568 183.085ZM162.413 182.514L153.943 185.964L154.697 187.816L163.167 184.366L162.413 182.514ZM155.146 187.454C156.254 185.832 157.407 184.256 158.607 182.727L157.033 181.493C155.806 183.057 154.627 184.668 153.494 186.326L155.146 187.454ZM158.047 181.136C146.619 178.471 134.71 178.658 123.371 181.683L123.886 183.615C134.908 180.675 146.484 180.493 157.593 183.084L158.047 181.136ZM123.371 181.683C112.032 184.707 101.611 190.475 93.0281 198.479L94.392 199.941C102.735 192.162 112.864 186.555 123.886 183.615L123.371 181.683ZM93.0261 198.48C92.5782 198.9 92.0033 199.41 91.5444 199.924L93.0357 201.256C93.4167 200.83 93.8819 200.42 94.394 199.94L93.0261 198.48ZM91.3787 201.002C92.4828 203.445 93.7098 205.832 95.055 208.152L96.7851 207.148C95.4737 204.887 94.2776 202.561 93.2013 200.178L91.3787 201.002ZM96.6554 208.328C102.372 202.125 109.311 197.174 117.037 193.787L116.234 191.955C108.255 195.453 101.088 200.566 95.1847 206.972L96.6554 208.328ZM117.037 193.787C124.762 190.4 133.105 188.651 141.54 188.65L141.54 186.65C132.828 186.651 124.212 188.458 116.234 191.955L117.037 193.787ZM163.015 182.485C161.34 181.967 159.665 181.52 157.938 181.134L157.502 183.086C159.176 183.46 160.8 183.893 162.425 184.395L163.015 182.485ZM156.933 181.493C155.706 183.057 154.527 184.668 153.394 186.326L155.046 187.454C156.154 185.832 157.307 184.256 158.507 182.727L156.933 181.493ZM154.596 187.817L163.096 184.367L162.344 182.513L153.844 185.963L154.596 187.817ZM262.661 171.109C274.384 179.007 283.561 190.138 289.079 203.15L290.921 202.37C285.251 189 275.822 177.565 263.779 169.451L262.661 171.109ZM290.375 203.687C291.618 203.184 292.986 203.078 294.292 203.384L294.748 201.436C293.04 201.036 291.251 201.175 289.625 201.833L290.375 203.687ZM294.31 203.388C295.538 203.651 296.745 203.972 297.941 204.361L298.559 202.459C297.295 202.048 296.022 201.709 294.73 201.432L294.31 203.388ZM299.185 203.055C292.444 185.306 279.935 170.338 263.665 160.553L262.635 162.267C278.52 171.821 290.734 186.436 297.315 203.765L299.185 203.055ZM262.152 161.471C262.251 163.108 262.32 164.749 262.33 166.416L264.33 166.404C264.32 164.691 264.249 163.012 264.148 161.35L262.152 161.471ZM262.33 166.402C262.32 167.677 262.281 168.964 262.221 170.233L264.219 170.327C264.279 169.036 264.32 167.723 264.33 166.418L262.33 166.402ZM289.08 203.151C290.025 205.373 290.858 207.641 291.575 209.947L293.485 209.353C292.748 206.983 291.892 204.652 290.92 202.369L289.08 203.151ZM292.329 210.63C294.793 211.134 297.215 211.822 299.575 212.689L300.265 210.811C297.81 209.91 295.292 209.195 292.731 208.67L292.329 210.63ZM300.713 207.358C300.246 205.884 299.693 204.429 299.191 203.032L297.309 203.708C297.827 205.151 298.354 206.536 298.807 207.962L300.713 207.358ZM298.524 202.408C297.283 202.055 296.033 201.723 294.766 201.401L294.274 203.339C295.527 203.657 296.757 203.985 297.976 204.332L298.524 202.408ZM294.74 201.394C293.027 201.009 291.237 201.163 289.616 201.837L290.384 203.683C291.623 203.169 292.991 203.051 294.3 203.346L294.74 201.394ZM264.33 166.407C264.347 164.097 263.583 162.222 262.326 160.844C261.081 159.477 259.398 158.648 257.641 158.323C254.172 157.68 250.124 158.974 248.296 162.433L250.064 163.367C251.386 160.866 254.443 159.765 257.277 160.29C258.671 160.548 259.939 161.193 260.848 162.191C261.747 163.177 262.343 164.558 262.33 166.393L264.33 166.407ZM248.81 163.829C253.439 165.67 257.865 167.984 262.018 170.734L263.122 169.066C258.854 166.241 254.306 163.863 249.55 161.971L248.81 163.829ZM263.467 170.341C264.074 169.108 264.37 167.745 264.33 166.371L262.33 166.429C262.361 167.478 262.135 168.518 261.673 169.459L263.467 170.341ZM264.219 170.326C264.279 169.032 264.33 167.717 264.34 166.398L262.34 166.382C262.33 167.663 262.281 168.948 262.221 170.234L264.219 170.326ZM262.34 166.412C262.363 167.449 262.134 168.476 261.674 169.407L263.466 170.294C264.069 169.075 264.369 167.728 264.34 166.368L262.34 166.412ZM262.018 170.684L262.668 171.114L263.772 169.446L263.122 169.016L262.018 170.684ZM87.4234 221.239C89.9091 216.554 92.9916 212.211 96.5939 208.319L95.1261 206.961C91.4064 210.98 88.2234 215.464 85.6567 220.301L87.4234 221.239ZM96.7251 207.138C95.4137 204.877 94.2176 202.551 93.1413 200.168L91.3187 200.992C92.4228 203.435 93.6498 205.822 94.995 208.142L96.7251 207.138ZM91.5233 199.872C87.5586 203.833 84.0928 208.263 81.2032 213.064L82.9168 214.096C85.7224 209.434 89.0873 205.133 92.9367 201.287L91.5233 199.872ZM81.1889 214.071C81.7178 215.009 82.2547 215.962 82.8233 216.906L84.5367 215.874C83.9853 214.958 83.4623 214.031 82.9311 213.089L81.1889 214.071ZM82.8282 216.914C83.7499 218.413 84.7298 219.887 85.7133 221.333L87.3667 220.207C86.3903 218.773 85.4301 217.327 84.5319 215.866L82.8282 216.914ZM247.855 163.445L248.855 163.825L249.565 161.955L248.565 161.575L247.855 163.445ZM250.094 163.357C251.427 160.835 254.487 159.735 257.316 160.264C258.709 160.525 259.976 161.173 260.884 162.174C261.781 163.163 262.376 164.546 262.36 166.382L264.36 166.398C264.379 164.089 263.619 162.212 262.365 160.83C261.122 159.46 259.441 158.627 257.684 158.298C254.213 157.65 250.163 158.945 248.326 162.423L250.094 163.357ZM264.36 166.39C264.36 164.69 264.279 163.006 264.178 161.33L262.182 161.45C262.281 163.114 262.36 164.75 262.36 166.39H264.36ZM263.692 160.531C258.632 157.515 253.251 155.073 247.65 153.249L247.03 155.151C252.491 156.929 257.735 159.309 262.668 162.249L263.692 160.531ZM246.352 154.355C246.778 157.075 247.065 159.814 247.211 162.563L249.209 162.457C249.058 159.64 248.764 156.832 248.328 154.045L246.352 154.355ZM158.443 198.868C162.312 200.026 166.014 197.987 168.027 195.022L166.373 193.898C164.706 196.353 161.828 197.794 159.017 196.952L158.443 198.868ZM168.027 195.022C182.461 173.8 208.836 162.381 234.158 167.341L234.542 165.379C208.404 160.259 181.239 172.04 166.373 193.898L168.027 195.022ZM234.157 167.341C238.835 168.26 243.4 169.683 247.771 171.587L248.569 169.753C244.066 167.792 239.363 166.325 234.543 165.379L234.157 167.341ZM249.168 170.733C249.259 169.299 249.32 167.86 249.33 166.407L247.33 166.393C247.32 167.8 247.261 169.201 247.172 170.607L249.168 170.733ZM249.33 166.407C249.34 164.941 249.268 163.74 249.199 162.465L247.202 162.575C247.272 163.86 247.34 164.999 247.33 166.393L249.33 166.407ZM248.553 161.585C232.726 155.605 215.337 155.172 199.231 160.356L199.844 162.26C215.519 157.214 232.442 157.636 247.847 163.455L248.553 161.585ZM199.231 160.356C183.125 165.541 169.255 176.036 159.887 190.126L161.553 191.234C170.67 177.521 184.169 167.306 199.844 162.26L199.231 160.356ZM161.028 189.729C149.539 186.014 137.226 185.666 125.546 188.727L126.053 190.662C137.364 187.698 149.287 188.034 160.412 191.631L161.028 189.729ZM125.546 188.727C113.865 191.788 103.306 198.13 95.1153 207.002L96.5848 208.358C104.516 199.767 114.742 193.626 126.053 190.662L125.546 188.727ZM94.9864 208.184C96.294 210.424 97.7224 212.602 99.2613 214.718L100.879 213.542C99.3776 211.478 97.9861 209.356 96.7137 207.176L94.9864 208.184ZM100.828 214.782C114.953 198.362 137.701 192.465 158.435 198.866L159.025 196.954C137.579 190.335 113.987 196.418 99.3119 213.478L100.828 214.782ZM289.582 201.852C287.768 202.687 286.27 204.082 285.308 205.832L287.061 206.796C287.817 205.421 288.994 204.325 290.418 203.668L289.582 201.852ZM285.308 205.832C284.347 207.582 283.972 209.595 284.239 211.574L286.221 211.306C286.011 209.752 286.306 208.171 287.061 206.796L285.308 205.832ZM284.348 211.945C285.735 216.276 289.444 218.029 292.958 217.837C296.406 217.649 299.91 215.568 300.894 212.006L298.966 211.474C298.27 213.992 295.684 215.686 292.849 215.84C290.081 215.991 287.315 214.654 286.252 211.335L284.348 211.945ZM300.275 210.801C297.82 209.9 295.302 209.185 292.741 208.66L292.339 210.62C294.803 211.124 297.225 211.812 299.585 212.679L300.275 210.801ZM293.494 209.341C292.753 206.975 291.894 204.647 290.92 202.367L289.081 203.153C290.029 205.372 290.865 207.636 291.586 209.939L293.494 209.341ZM284.239 211.571C284.447 213.143 285.158 214.606 286.265 215.741L287.697 214.344C286.89 213.518 286.373 212.453 286.221 211.309L284.239 211.571ZM286.265 215.741C287.373 216.876 288.818 217.622 290.385 217.868L290.695 215.892C289.555 215.713 288.503 215.17 287.697 214.344L286.265 215.741ZM290.328 217.857C309.324 221.982 324.288 237.819 325.361 257.544L327.359 257.436C326.232 236.721 310.536 220.198 290.752 215.903L290.328 217.857ZM325.361 257.542C326.34 276.191 315.377 293.999 297.822 300.726L298.538 302.594C316.943 295.541 328.38 276.909 327.359 257.438L325.361 257.542ZM297.822 300.726C289.908 303.758 281.976 303.61 273.46 303.61V305.61C281.884 305.61 290.212 305.782 298.538 302.594L297.822 300.726ZM273.46 303.61H158V305.61H273.46V303.61ZM158 303.61C152.507 303.61 147.004 303.66 141.559 303.61L141.541 305.61C146.996 305.66 152.533 305.61 158 305.61V303.61ZM141.549 303.61C132.578 303.623 123.746 301.389 115.861 297.112L114.907 298.87C123.086 303.307 132.247 305.624 141.552 305.61L141.549 303.61ZM115.861 297.112C107.975 292.835 101.286 286.651 96.4052 279.124L94.7271 280.212C99.79 288.019 106.728 294.434 114.907 298.87L115.861 297.112ZM96.4052 279.124C91.524 271.597 88.6059 262.968 87.9172 254.023L85.9231 254.177C86.6374 263.455 89.6642 272.405 94.7271 280.212L96.4052 279.124ZM87.9172 254.023C87.2285 245.079 88.7911 236.105 92.4624 227.919L90.6376 227.101C86.8295 235.591 85.2087 244.899 85.9231 254.177L87.9172 254.023ZM92.3217 226.874C90.561 224.737 88.8924 222.515 87.3159 220.206L85.6642 221.334C87.2743 223.692 88.979 225.963 90.7783 228.146L92.3217 226.874ZM85.6063 220.302C80.5042 229.938 77.9805 240.729 78.2803 251.628L80.2795 251.573C79.9893 241.019 82.4331 230.569 87.3738 221.238L85.6063 220.302ZM78.2803 251.628C78.58 262.527 81.693 273.164 87.3169 282.504L89.0303 281.473C83.5843 272.427 80.5698 262.128 80.2795 251.573L78.2803 251.628ZM87.3169 282.504C92.9408 291.845 100.884 299.573 110.377 304.937L111.361 303.196C102.169 298.001 94.4763 290.518 89.0303 281.473L87.3169 282.504ZM110.377 304.937C119.869 310.302 130.587 313.121 141.49 313.12L141.49 311.12C130.932 311.121 120.553 308.391 111.361 303.196L110.377 304.937ZM141.49 313.12H282.19V311.12H141.49V313.12ZM298.956 211.485C298.265 213.997 295.682 215.691 292.848 215.845C290.082 215.996 287.316 214.66 286.252 211.335L284.348 211.945C285.734 216.281 289.443 218.034 292.957 217.842C296.403 217.654 299.905 215.573 300.884 212.015L298.956 211.485ZM286.231 211.316C286.021 209.762 286.316 208.181 287.071 206.806L285.318 205.842C284.357 207.592 283.982 209.605 284.249 211.584L286.231 211.316ZM287.071 206.806C287.827 205.431 289.004 204.335 290.428 203.678L289.592 201.862C287.778 202.697 286.28 204.092 285.318 205.842L287.071 206.806ZM290.931 202.379C285.258 189.009 275.826 177.573 263.779 169.461L262.661 171.119C274.387 179.016 283.568 190.147 289.089 203.161L290.931 202.379ZM262.221 170.243C262.083 173.159 261.812 176.052 261.41 178.921L263.39 179.199C263.801 176.268 264.077 173.315 264.219 170.337L262.221 170.243ZM261.79 179.853C272.342 187.969 280.187 199.093 284.289 211.758L286.191 211.142C281.965 198.092 273.882 186.63 263.01 178.267L261.79 179.853ZM250.313 172.749C251.273 173.216 252.22 173.703 253.153 174.209L254.107 172.451C253.147 171.931 252.174 171.43 251.187 170.951L250.313 172.749ZM253.367 174.295C257.039 175.295 261.555 174.062 263.453 170.301L261.667 169.399C260.306 172.098 256.901 173.185 253.893 172.365L253.367 174.295ZM263.112 169.016C258.844 166.191 254.296 163.813 249.54 161.921L248.8 163.779C253.429 165.62 257.855 167.934 262.008 170.684L263.112 169.016ZM248.284 162.387C247.644 163.611 247.313 164.974 247.32 166.355L249.32 166.345C249.315 165.29 249.568 164.249 250.056 163.313L248.284 162.387ZM247.32 166.322C247.287 167.51 247.519 168.691 248 169.778L249.829 168.97C249.469 168.155 249.295 167.269 249.32 166.378L247.32 166.322ZM248 169.778C248.48 170.866 249.197 171.832 250.098 172.608L251.403 171.092C250.727 170.511 250.189 169.786 249.829 168.97L248 169.778ZM98.4428 217.716C99.206 216.689 100.007 215.702 100.826 214.786L99.3344 213.454C98.473 214.418 97.634 215.451 96.8373 216.524L98.4428 217.716ZM100.889 213.532C99.3876 211.468 97.9961 209.346 96.7237 207.166L94.9964 208.174C96.304 210.414 97.7324 212.592 99.2713 214.708L100.889 213.532ZM95.1261 206.991C91.4064 211.01 88.2234 215.494 85.6567 220.331L87.4234 221.269C89.9091 216.584 92.9916 212.241 96.5939 208.349L95.1261 206.991ZM85.7142 221.364C87.3243 223.722 89.029 225.993 90.8283 228.176L92.3718 226.904C90.611 224.767 88.9424 222.545 87.3659 220.236L85.7142 221.364ZM92.5157 227.942C94.1042 224.322 96.0926 220.892 98.4439 217.715L96.8362 216.525C94.3962 219.822 92.3328 223.382 90.6843 227.138L92.5157 227.942ZM247.33 166.4C247.33 167.799 247.262 169.195 247.172 170.607L249.168 170.733C249.259 169.305 249.33 167.861 249.33 166.4H247.33ZM247.768 171.586C248.625 171.961 249.471 172.35 250.307 172.751L251.173 170.949C250.316 170.537 249.449 170.139 248.572 169.754L247.768 171.586ZM251.395 171.095C250.729 170.516 250.198 169.797 249.841 168.99L248.012 169.799C248.488 170.875 249.195 171.834 250.085 172.605L251.395 171.095ZM249.841 168.99C249.484 168.182 249.309 167.306 249.33 166.423L247.33 166.377C247.303 167.554 247.535 168.722 248.012 169.799L249.841 168.99ZM249.535 161.955L248.535 161.575L247.825 163.445L248.825 163.825L249.535 161.955ZM247.181 162.564C247.251 163.844 247.3 165.118 247.31 166.398L249.31 166.382C249.3 165.062 249.249 163.756 249.179 162.456L247.181 162.564ZM249.31 166.39C249.31 165.333 249.569 164.292 250.064 163.358L248.296 162.422C247.649 163.644 247.31 165.007 247.31 166.39L249.31 166.39ZM253.15 174.207C256.169 175.859 259.054 177.743 261.78 179.842L263 178.258C260.192 176.095 257.22 174.154 254.11 172.453L253.15 174.207ZM263.38 179.189C263.791 176.265 264.067 173.311 264.209 170.327L262.211 170.233C262.073 173.156 261.802 176.048 261.4 178.911L263.38 179.189ZM263.762 169.446L263.112 169.016L262.008 170.684L262.658 171.114L263.762 169.446ZM261.667 169.401C260.305 172.107 256.932 173.186 253.891 172.365L253.369 174.295C257.068 175.294 261.555 174.073 263.453 170.299L261.667 169.401Z" fill="white" mask="url(#path-1-inside-1)"/>
</svg>
