<svg width="316" height="236" viewBox="0 0 316 236" fill="none" xmlns="http://www.w3.org/2000/svg">
<mask id="path-1-inside-1" fill="white">
<path d="M104.59 39.27C102.937 38.7567 101.27 38.2967 99.59 37.89C98.39 39.4633 97.2333 41.07 96.12 42.71L104.59 39.27Z"/>
<path d="M99.46 180.3C93.07 180.3 86.67 180.35 80.28 180.3C63.2199 180.25 46.8653 173.486 34.7542 161.47C22.643 149.455 15.7491 133.155 15.5638 116.095C15.3785 99.0362 21.9167 82.5899 33.7639 70.3142C45.6112 58.0385 61.815 50.9205 78.87 50.5C86.2408 50.3989 93.5793 51.4931 100.6 53.74C103.93 54.74 107.23 53 109.07 50.29C126.36 24.78 158 11.11 188.42 17C202.309 19.7048 215.219 26.0806 225.81 35.4645C236.4 44.8484 244.283 56.8978 248.64 70.36C247.98 65.69 251.82 60.03 257.94 61.36C259.2 61.63 260.45 61.95 261.69 62.29C253.05 39.02 235.55 19.34 212.69 9.14999C193.383 0.307538 171.632 -1.66128 151.051 3.57078C130.47 8.80283 112.3 20.9206 99.56 37.91C101.233 38.3167 102.9 38.7767 104.56 39.29L96.09 42.74C97.2033 41.1 98.36 39.4933 99.56 37.92C86.7173 34.7982 73.305 34.8733 60.498 38.1387C47.691 41.4041 35.8802 47.7601 26.1 56.65C6.26001 74.79 -2.66998 102.09 1.44002 128.48C5.44002 154.19 23.07 177.22 46.75 187.94C60.03 193.94 73.75 195.32 88.05 195.32H109.23C107.488 190.502 106.509 185.441 106.33 180.32L99.46 180.3Z"/>
<path d="M276.25 68.09C271.633 65.6077 266.748 63.6585 261.69 62.28C262.217 63.7067 262.713 65.1433 263.18 66.59C266.12 75.83 251.63 79.74 248.72 70.59L248.65 70.38C248.826 71.7407 249.439 73.0074 250.397 73.9902C251.354 74.9729 252.604 75.6185 253.96 75.83C276.42 80.65 294.52 99.29 296.43 122.64C297.278 133.081 295.079 143.544 290.1 152.76C294.381 155.661 298.079 159.342 301 163.61C306.562 154.811 310.053 144.865 311.21 134.52C314.21 107.77 299.9 80.84 276.25 68.09Z"/>
<path d="M248.65 70.36L248.72 70.57C251.64 79.73 266.12 75.82 263.18 66.57C262.72 65.1167 262.223 63.68 261.69 62.26C260.45 61.92 259.2 61.6 257.94 61.33C251.82 60 248 65.69 248.65 70.36Z"/>
<path d="M282.6 144.57C275.18 121.57 255.67 103.16 231.51 99.03C205.14 94.52 179.43 105.72 164.39 127.73L172.86 124.28C163.345 121.345 153.232 120.924 143.506 123.059C133.779 125.193 124.772 129.81 117.36 136.46C103.17 149.23 96.78 168.64 99.57 187.37C100.966 196.185 104.418 204.548 109.648 211.78C114.877 219.013 121.736 224.912 129.67 229C139.44 233.93 149.67 235.29 160.45 235.29H258.91C267.3 235.29 275.58 235.39 283.62 232.4C303.04 225.18 316.37 206.19 315.68 185.31C315.261 174.491 311.277 164.114 304.348 155.795C297.419 147.475 287.935 141.679 277.37 139.31C267.96 137.23 263.95 151.69 273.37 153.77C288.37 157.08 300.14 169.56 300.67 185.3C301.16 199.82 292.25 213.54 278.39 218.37C272.33 220.48 266.26 220.28 259.98 220.28H169.51C164.91 220.28 160.31 220.33 155.71 220.28C148.043 220.291 140.521 218.195 133.964 214.222C127.407 210.248 122.068 204.55 118.529 197.75C114.989 190.949 113.386 183.306 113.894 175.656C114.403 168.006 117.002 160.643 121.41 154.37C131.94 139.04 151.41 133.37 168.88 138.73C172.23 139.73 175.5 138 177.35 135.28C188.62 118.8 209.17 109.86 228.92 113.73C237.969 115.5 246.379 119.661 253.276 125.781C260.173 131.901 265.306 139.756 268.14 148.53C271.09 157.71 285.57 153.8 282.6 144.57Z"/>
</mask>
<path d="M104.59 39.27C102.937 38.7567 101.27 38.2967 99.59 37.89C98.39 39.4633 97.2333 41.07 96.12 42.71L104.59 39.27Z" fill="white"/>
<path d="M99.46 180.3C93.07 180.3 86.67 180.35 80.28 180.3C63.2199 180.25 46.8653 173.486 34.7542 161.47C22.643 149.455 15.7491 133.155 15.5638 116.095C15.3785 99.0362 21.9167 82.5899 33.7639 70.3142C45.6112 58.0385 61.815 50.9205 78.87 50.5C86.2408 50.3989 93.5793 51.4931 100.6 53.74C103.93 54.74 107.23 53 109.07 50.29C126.36 24.78 158 11.11 188.42 17C202.309 19.7048 215.219 26.0806 225.81 35.4645C236.4 44.8484 244.283 56.8978 248.64 70.36C247.98 65.69 251.82 60.03 257.94 61.36C259.2 61.63 260.45 61.95 261.69 62.29C253.05 39.02 235.55 19.34 212.69 9.14999C193.383 0.307538 171.632 -1.66128 151.051 3.57078C130.47 8.80283 112.3 20.9206 99.56 37.91C101.233 38.3167 102.9 38.7767 104.56 39.29L96.09 42.74C97.2033 41.1 98.36 39.4933 99.56 37.92C86.7173 34.7982 73.305 34.8733 60.498 38.1387C47.691 41.4041 35.8802 47.7601 26.1 56.65C6.26001 74.79 -2.66998 102.09 1.44002 128.48C5.44002 154.19 23.07 177.22 46.75 187.94C60.03 193.94 73.75 195.32 88.05 195.32H109.23C107.488 190.502 106.509 185.441 106.33 180.32L99.46 180.3Z" fill="white"/>
<path d="M276.25 68.09C271.633 65.6077 266.748 63.6585 261.69 62.28C262.217 63.7067 262.713 65.1433 263.18 66.59C266.12 75.83 251.63 79.74 248.72 70.59L248.65 70.38C248.826 71.7407 249.439 73.0074 250.397 73.9902C251.354 74.9729 252.604 75.6185 253.96 75.83C276.42 80.65 294.52 99.29 296.43 122.64C297.278 133.081 295.079 143.544 290.1 152.76C294.381 155.661 298.079 159.342 301 163.61C306.562 154.811 310.053 144.865 311.21 134.52C314.21 107.77 299.9 80.84 276.25 68.09Z" fill="white"/>
<path d="M248.65 70.36L248.72 70.57C251.64 79.73 266.12 75.82 263.18 66.57C262.72 65.1167 262.223 63.68 261.69 62.26C260.45 61.92 259.2 61.6 257.94 61.33C251.82 60 248 65.69 248.65 70.36Z" fill="white"/>
<path d="M282.6 144.57C275.18 121.57 255.67 103.16 231.51 99.03C205.14 94.52 179.43 105.72 164.39 127.73L172.86 124.28C163.345 121.345 153.232 120.924 143.506 123.059C133.779 125.193 124.772 129.81 117.36 136.46C103.17 149.23 96.78 168.64 99.57 187.37C100.966 196.185 104.418 204.548 109.648 211.78C114.877 219.013 121.736 224.912 129.67 229C139.44 233.93 149.67 235.29 160.45 235.29H258.91C267.3 235.29 275.58 235.39 283.62 232.4C303.04 225.18 316.37 206.19 315.68 185.31C315.261 174.491 311.277 164.114 304.348 155.795C297.419 147.475 287.935 141.679 277.37 139.31C267.96 137.23 263.95 151.69 273.37 153.77C288.37 157.08 300.14 169.56 300.67 185.3C301.16 199.82 292.25 213.54 278.39 218.37C272.33 220.48 266.26 220.28 259.98 220.28H169.51C164.91 220.28 160.31 220.33 155.71 220.28C148.043 220.291 140.521 218.195 133.964 214.222C127.407 210.248 122.068 204.55 118.529 197.75C114.989 190.949 113.386 183.306 113.894 175.656C114.403 168.006 117.002 160.643 121.41 154.37C131.94 139.04 151.41 133.37 168.88 138.73C172.23 139.73 175.5 138 177.35 135.28C188.62 118.8 209.17 109.86 228.92 113.73C237.969 115.5 246.379 119.661 253.276 125.781C260.173 131.901 265.306 139.756 268.14 148.53C271.09 157.71 285.57 153.8 282.6 144.57Z" fill="white"/>
<path d="M188.42 17L188.515 16.5091L188.515 16.5091L188.42 17ZM109.07 50.29L109.484 50.5709L109.484 50.5705L109.07 50.29ZM106.37 180.3V180.8H106.87V180.3H106.37ZM106.37 178.46L105.87 178.46V178.46H106.37ZM170.92 131.52L170.766 131.996L171.127 132.112L171.337 131.797L170.92 131.52ZM275.42 146.52L274.943 146.668L275.03 146.951L275.321 147.01L275.42 146.52ZM290.15 152.7L289.87 153.114L290.328 153.423L290.59 152.938L290.15 152.7ZM296.48 122.58L296.978 122.54L296.978 122.539L296.48 122.58ZM254.01 75.77L254.115 75.2811L254.101 75.2781L254.087 75.276L254.01 75.77ZM248.7 70.32L249.196 70.2558L249.19 70.2098L249.176 70.1657L248.7 70.32ZM188.515 16.5091C157.882 10.5798 126.055 24.3394 108.656 50.0095L109.484 50.5705C126.665 25.2206 158.098 11.6402 188.325 17.4909L188.515 16.5091ZM108.656 50.0091C106.9 52.5952 103.808 54.2088 100.748 53.2623L100.452 54.2177C104.052 55.3312 107.56 53.4048 109.484 50.5709L108.656 50.0091ZM99.46 180.8H106.37V179.8H99.46V180.8ZM106.87 180.3C106.87 180.299 106.87 180.298 106.87 180.296C106.87 180.295 106.87 180.294 106.87 180.293C106.87 180.292 106.87 180.29 106.87 180.289C106.87 180.288 106.87 180.287 106.87 180.286C106.87 180.284 106.87 180.283 106.87 180.282C106.87 180.281 106.87 180.28 106.87 180.279C106.87 180.277 106.87 180.276 106.87 180.275C106.87 180.274 106.87 180.273 106.87 180.271C106.87 180.27 106.87 180.269 106.87 180.268C106.87 180.267 106.87 180.265 106.87 180.264C106.87 180.263 106.87 180.262 106.87 180.261C106.87 180.259 106.87 180.258 106.87 180.257C106.87 180.256 106.87 180.255 106.87 180.254C106.87 180.252 106.87 180.251 106.87 180.25C106.87 180.249 106.87 180.248 106.87 180.246C106.87 180.245 106.87 180.244 106.87 180.243C106.87 180.242 106.87 180.24 106.87 180.239C106.87 180.238 106.87 180.237 106.87 180.236C106.87 180.234 106.87 180.233 106.87 180.232C106.87 180.231 106.87 180.23 106.87 180.229C106.87 180.227 106.87 180.226 106.87 180.225C106.87 180.224 106.87 180.223 106.87 180.221C106.87 180.22 106.87 180.219 106.87 180.218C106.87 180.217 106.87 180.215 106.87 180.214C106.87 180.213 106.87 180.212 106.87 180.211C106.87 180.209 106.87 180.208 106.87 180.207C106.87 180.206 106.87 180.205 106.87 180.203C106.87 180.202 106.87 180.201 106.87 180.2C106.87 180.199 106.87 180.198 106.87 180.196C106.87 180.195 106.87 180.194 106.87 180.193C106.87 180.192 106.87 180.19 106.87 180.189C106.87 180.188 106.87 180.187 106.87 180.186C106.87 180.184 106.87 180.183 106.87 180.182C106.87 180.181 106.87 180.18 106.87 180.178C106.87 180.177 106.87 180.176 106.87 180.175C106.87 180.174 106.87 180.173 106.87 180.171C106.87 180.17 106.87 180.169 106.87 180.168C106.87 180.167 106.87 180.165 106.87 180.164C106.87 180.163 106.87 180.162 106.87 180.161C106.87 180.159 106.87 180.158 106.87 180.157C106.87 180.156 106.87 180.155 106.87 180.153C106.87 180.152 106.87 180.151 106.87 180.15C106.87 180.149 106.87 180.147 106.87 180.146C106.87 180.145 106.87 180.144 106.87 180.143C106.87 180.142 106.87 180.14 106.87 180.139C106.87 180.138 106.87 180.137 106.87 180.136C106.87 180.134 106.87 180.133 106.87 180.132C106.87 180.131 106.87 180.13 106.87 180.128C106.87 180.127 106.87 180.126 106.87 180.125C106.87 180.124 106.87 180.122 106.87 180.121C106.87 180.12 106.87 180.119 106.87 180.118C106.87 180.117 106.87 180.115 106.87 180.114C106.87 180.113 106.87 180.112 106.87 180.111C106.87 180.109 106.87 180.108 106.87 180.107C106.87 180.106 106.87 180.105 106.87 180.103C106.87 180.102 106.87 180.101 106.87 180.1C106.87 180.099 106.87 180.097 106.87 180.096C106.87 180.095 106.87 180.094 106.87 180.093C106.87 180.091 106.87 180.09 106.87 180.089C106.87 180.088 106.87 180.087 106.87 180.086C106.87 180.084 106.87 180.083 106.87 180.082C106.87 180.081 106.87 180.08 106.87 180.078C106.87 180.077 106.87 180.076 106.87 180.075C106.87 180.074 106.87 180.072 106.87 180.071C106.87 180.07 106.87 180.069 106.87 180.068C106.87 180.066 106.87 180.065 106.87 180.064C106.87 180.063 106.87 180.062 106.87 180.06C106.87 180.059 106.87 180.058 106.87 180.057C106.87 180.056 106.87 180.055 106.87 180.053C106.87 180.052 106.87 180.051 106.87 180.05C106.87 180.049 106.87 180.047 106.87 180.046C106.87 180.045 106.87 180.044 106.87 180.043C106.87 180.041 106.87 180.04 106.87 180.039C106.87 180.038 106.87 180.037 106.87 180.035C106.87 180.034 106.87 180.033 106.87 180.032C106.87 180.031 106.87 180.03 106.87 180.028C106.87 180.027 106.87 180.026 106.87 180.025C106.87 180.024 106.87 180.022 106.87 180.021C106.87 180.02 106.87 180.019 106.87 180.018C106.87 180.016 106.87 180.015 106.87 180.014C106.87 180.013 106.87 180.012 106.87 180.01C106.87 180.009 106.87 180.008 106.87 180.007C106.87 180.006 106.87 180.004 106.87 180.003C106.87 180.002 106.87 180.001 106.87 180C106.87 179.999 106.87 179.997 106.87 179.996C106.87 179.995 106.87 179.994 106.87 179.993C106.87 179.991 106.87 179.99 106.87 179.989C106.87 179.988 106.87 179.987 106.87 179.985C106.87 179.984 106.87 179.983 106.87 179.982C106.87 179.981 106.87 179.979 106.87 179.978C106.87 179.977 106.87 179.976 106.87 179.975C106.87 179.973 106.87 179.972 106.87 179.971C106.87 179.97 106.87 179.969 106.87 179.968C106.87 179.966 106.87 179.965 106.87 179.964C106.87 179.963 106.87 179.962 106.87 179.96C106.87 179.959 106.87 179.958 106.87 179.957C106.87 179.956 106.87 179.954 106.87 179.953C106.87 179.952 106.87 179.951 106.87 179.95C106.87 179.948 106.87 179.947 106.87 179.946C106.87 179.945 106.87 179.944 106.87 179.942C106.87 179.941 106.87 179.94 106.87 179.939C106.87 179.938 106.87 179.937 106.87 179.935C106.87 179.934 106.87 179.933 106.87 179.932C106.87 179.931 106.87 179.929 106.87 179.928C106.87 179.927 106.87 179.926 106.87 179.925C106.87 179.923 106.87 179.922 106.87 179.921C106.87 179.92 106.87 179.919 106.87 179.917C106.87 179.916 106.87 179.915 106.87 179.914C106.87 179.913 106.87 179.911 106.87 179.91C106.87 179.909 106.87 179.908 106.87 179.907C106.87 179.906 106.87 179.904 106.87 179.903C106.87 179.902 106.87 179.901 106.87 179.9C106.87 179.898 106.87 179.897 106.87 179.896C106.87 179.895 106.87 179.894 106.87 179.892C106.87 179.891 106.87 179.89 106.87 179.889C106.87 179.888 106.87 179.886 106.87 179.885C106.87 179.884 106.87 179.883 106.87 179.882C106.87 179.88 106.87 179.879 106.87 179.878C106.87 179.877 106.87 179.876 106.87 179.875C106.87 179.873 106.87 179.872 106.87 179.871C106.87 179.87 106.87 179.869 106.87 179.867C106.87 179.866 106.87 179.865 106.87 179.864C106.87 179.863 106.87 179.861 106.87 179.86C106.87 179.859 106.87 179.858 106.87 179.857C106.87 179.855 106.87 179.854 106.87 179.853C106.87 179.852 106.87 179.851 106.87 179.849C106.87 179.848 106.87 179.847 106.87 179.846C106.87 179.845 106.87 179.844 106.87 179.842C106.87 179.841 106.87 179.84 106.87 179.839C106.87 179.838 106.87 179.836 106.87 179.835C106.87 179.834 106.87 179.833 106.87 179.832C106.87 179.83 106.87 179.829 106.87 179.828C106.87 179.827 106.87 179.826 106.87 179.824C106.87 179.823 106.87 179.822 106.87 179.821C106.87 179.82 106.87 179.818 106.87 179.817C106.87 179.816 106.87 179.815 106.87 179.814C106.87 179.813 106.87 179.811 106.87 179.81C106.87 179.809 106.87 179.808 106.87 179.807C106.87 179.805 106.87 179.804 106.87 179.803C106.87 179.802 106.87 179.801 106.87 179.799C106.87 179.798 106.87 179.797 106.87 179.796C106.87 179.795 106.87 179.793 106.87 179.792C106.87 179.791 106.87 179.79 106.87 179.789C106.87 179.787 106.87 179.786 106.87 179.785C106.87 179.784 106.87 179.783 106.87 179.781C106.87 179.78 106.87 179.779 106.87 179.778C106.87 179.777 106.87 179.776 106.87 179.774C106.87 179.773 106.87 179.772 106.87 179.771C106.87 179.77 106.87 179.768 106.87 179.767C106.87 179.766 106.87 179.765 106.87 179.764C106.87 179.762 106.87 179.761 106.87 179.76C106.87 179.759 106.87 179.758 106.87 179.756C106.87 179.755 106.87 179.754 106.87 179.753C106.87 179.752 106.87 179.75 106.87 179.749C106.87 179.748 106.87 179.747 106.87 179.746C106.87 179.745 106.87 179.743 106.87 179.742C106.87 179.741 106.87 179.74 106.87 179.739C106.87 179.737 106.87 179.736 106.87 179.735C106.87 179.734 106.87 179.733 106.87 179.731C106.87 179.73 106.87 179.729 106.87 179.728C106.87 179.727 106.87 179.725 106.87 179.724C106.87 179.723 106.87 179.722 106.87 179.721C106.87 179.719 106.87 179.718 106.87 179.717C106.87 179.716 106.87 179.715 106.87 179.713C106.87 179.712 106.87 179.711 106.87 179.71C106.87 179.709 106.87 179.708 106.87 179.706C106.87 179.705 106.87 179.704 106.87 179.703C106.87 179.702 106.87 179.7 106.87 179.699C106.87 179.698 106.87 179.697 106.87 179.696C106.87 179.694 106.87 179.693 106.87 179.692C106.87 179.691 106.87 179.69 106.87 179.688C106.87 179.687 106.87 179.686 106.87 179.685C106.87 179.684 106.87 179.682 106.87 179.681C106.87 179.68 106.87 179.679 106.87 179.678C106.87 179.676 106.87 179.675 106.87 179.674C106.87 179.673 106.87 179.672 106.87 179.671C106.87 179.669 106.87 179.668 106.87 179.667C106.87 179.666 106.87 179.665 106.87 179.663C106.87 179.662 106.87 179.661 106.87 179.66C106.87 179.659 106.87 179.657 106.87 179.656C106.87 179.655 106.87 179.654 106.87 179.653C106.87 179.651 106.87 179.65 106.87 179.649C106.87 179.648 106.87 179.647 106.87 179.645C106.87 179.644 106.87 179.643 106.87 179.642C106.87 179.641 106.87 179.639 106.87 179.638C106.87 179.637 106.87 179.636 106.87 179.635C106.87 179.634 106.87 179.632 106.87 179.631C106.87 179.63 106.87 179.629 106.87 179.628C106.87 179.626 106.87 179.625 106.87 179.624C106.87 179.623 106.87 179.622 106.87 179.62C106.87 179.619 106.87 179.618 106.87 179.617C106.87 179.616 106.87 179.614 106.87 179.613C106.87 179.612 106.87 179.611 106.87 179.61C106.87 179.608 106.87 179.607 106.87 179.606C106.87 179.605 106.87 179.604 106.87 179.602C106.87 179.601 106.87 179.6 106.87 179.599C106.87 179.598 106.87 179.596 106.87 179.595C106.87 179.594 106.87 179.593 106.87 179.592C106.87 179.591 106.87 179.589 106.87 179.588C106.87 179.587 106.87 179.586 106.87 179.585C106.87 179.583 106.87 179.582 106.87 179.581C106.87 179.58 106.87 179.579 106.87 179.577C106.87 179.576 106.87 179.575 106.87 179.574C106.87 179.573 106.87 179.571 106.87 179.57C106.87 179.569 106.87 179.568 106.87 179.567C106.87 179.565 106.87 179.564 106.87 179.563C106.87 179.562 106.87 179.561 106.87 179.559C106.87 179.558 106.87 179.557 106.87 179.556C106.87 179.555 106.87 179.553 106.87 179.552C106.87 179.551 106.87 179.55 106.87 179.549C106.87 179.548 106.87 179.546 106.87 179.545C106.87 179.544 106.87 179.543 106.87 179.542C106.87 179.54 106.87 179.539 106.87 179.538C106.87 179.537 106.87 179.536 106.87 179.534C106.87 179.533 106.87 179.532 106.87 179.531C106.87 179.53 106.87 179.528 106.87 179.527C106.87 179.526 106.87 179.525 106.87 179.524C106.87 179.522 106.87 179.521 106.87 179.52C106.87 179.519 106.87 179.518 106.87 179.516C106.87 179.515 106.87 179.514 106.87 179.513C106.87 179.512 106.87 179.51 106.87 179.509C106.87 179.508 106.87 179.507 106.87 179.506C106.87 179.505 106.87 179.503 106.87 179.502C106.87 179.501 106.87 179.5 106.87 179.499C106.87 179.497 106.87 179.496 106.87 179.495C106.87 179.494 106.87 179.493 106.87 179.491C106.87 179.49 106.87 179.489 106.87 179.488C106.87 179.487 106.87 179.485 106.87 179.484C106.87 179.483 106.87 179.482 106.87 179.481C106.87 179.479 106.87 179.478 106.87 179.477C106.87 179.476 106.87 179.475 106.87 179.473C106.87 179.472 106.87 179.471 106.87 179.47C106.87 179.469 106.87 179.467 106.87 179.466C106.87 179.465 106.87 179.464 106.87 179.463C106.87 179.461 106.87 179.46 106.87 179.459C106.87 179.458 106.87 179.457 106.87 179.455C106.87 179.454 106.87 179.453 106.87 179.452C106.87 179.451 106.87 179.45 106.87 179.448C106.87 179.447 106.87 179.446 106.87 179.445C106.87 179.444 106.87 179.442 106.87 179.441C106.87 179.44 106.87 179.439 106.87 179.438C106.87 179.436 106.87 179.435 106.87 179.434C106.87 179.433 106.87 179.432 106.87 179.43C106.87 179.429 106.87 179.428 106.87 179.427C106.87 179.426 106.87 179.424 106.87 179.423C106.87 179.422 106.87 179.421 106.87 179.42C106.87 179.418 106.87 179.417 106.87 179.416C106.87 179.415 106.87 179.414 106.87 179.412C106.87 179.411 106.87 179.41 106.87 179.409C106.87 179.408 106.87 179.406 106.87 179.405C106.87 179.404 106.87 179.403 106.87 179.402C106.87 179.4 106.87 179.399 106.87 179.398C106.87 179.397 106.87 179.396 106.87 179.395C106.87 179.393 106.87 179.392 106.87 179.391C106.87 179.39 106.87 179.389 106.87 179.387C106.87 179.386 106.87 179.385 106.87 179.384C106.87 179.383 106.87 179.381 106.87 179.38C106.87 179.379 106.87 179.378 106.87 179.377C106.87 179.375 106.87 179.374 106.87 179.373C106.87 179.372 106.87 179.371 106.87 179.369C106.87 179.368 106.87 179.367 106.87 179.366C106.87 179.365 106.87 179.363 106.87 179.362C106.87 179.361 106.87 179.36 106.87 179.359C106.87 179.357 106.87 179.356 106.87 179.355C106.87 179.354 106.87 179.353 106.87 179.351C106.87 179.35 106.87 179.349 106.87 179.348C106.87 179.347 106.87 179.345 106.87 179.344C106.87 179.343 106.87 179.342 106.87 179.341C106.87 179.339 106.87 179.338 106.87 179.337C106.87 179.336 106.87 179.335 106.87 179.333C106.87 179.332 106.87 179.331 106.87 179.33C106.87 179.329 106.87 179.327 106.87 179.326C106.87 179.325 106.87 179.324 106.87 179.323C106.87 179.322 106.87 179.32 106.87 179.319C106.87 179.318 106.87 179.317 106.87 179.316C106.87 179.314 106.87 179.313 106.87 179.312C106.87 179.311 106.87 179.31 106.87 179.308C106.87 179.307 106.87 179.306 106.87 179.305C106.87 179.304 106.87 179.302 106.87 179.301C106.87 179.3 106.87 179.299 106.87 179.298C106.87 179.296 106.87 179.295 106.87 179.294C106.87 179.293 106.87 179.292 106.87 179.29C106.87 179.289 106.87 179.288 106.87 179.287C106.87 179.286 106.87 179.284 106.87 179.283C106.87 179.282 106.87 179.281 106.87 179.28C106.87 179.278 106.87 179.277 106.87 179.276C106.87 179.275 106.87 179.274 106.87 179.272C106.87 179.271 106.87 179.27 106.87 179.269C106.87 179.268 106.87 179.266 106.87 179.265C106.87 179.264 106.87 179.263 106.87 179.262C106.87 179.26 106.87 179.259 106.87 179.258C106.87 179.257 106.87 179.256 106.87 179.254C106.87 179.253 106.87 179.252 106.87 179.251C106.87 179.25 106.87 179.248 106.87 179.247C106.87 179.246 106.87 179.245 106.87 179.244C106.87 179.242 106.87 179.241 106.87 179.24C106.87 179.239 106.87 179.238 106.87 179.236C106.87 179.235 106.87 179.234 106.87 179.233C106.87 179.232 106.87 179.231 106.87 179.229C106.87 179.228 106.87 179.227 106.87 179.226C106.87 179.225 106.87 179.223 106.87 179.222C106.87 179.221 106.87 179.22 106.87 179.219C106.87 179.217 106.87 179.216 106.87 179.215C106.87 179.214 106.87 179.213 106.87 179.211C106.87 179.21 106.87 179.209 106.87 179.208C106.87 179.207 106.87 179.205 106.87 179.204C106.87 179.203 106.87 179.202 106.87 179.201C106.87 179.199 106.87 179.198 106.87 179.197C106.87 179.196 106.87 179.195 106.87 179.193C106.87 179.192 106.87 179.191 106.87 179.19C106.87 179.189 106.87 179.187 106.87 179.186C106.87 179.185 106.87 179.184 106.87 179.183C106.87 179.181 106.87 179.18 106.87 179.179C106.87 179.178 106.87 179.177 106.87 179.175C106.87 179.174 106.87 179.173 106.87 179.172C106.87 179.171 106.87 179.169 106.87 179.168C106.87 179.167 106.87 179.166 106.87 179.165C106.87 179.163 106.87 179.162 106.87 179.161C106.87 179.16 106.87 179.159 106.87 179.157C106.87 179.156 106.87 179.155 106.87 179.154C106.87 179.153 106.87 179.151 106.87 179.15C106.87 179.149 106.87 179.148 106.87 179.147C106.87 179.145 106.87 179.144 106.87 179.143C106.87 179.142 106.87 179.141 106.87 179.139C106.87 179.138 106.87 179.137 106.87 179.136C106.87 179.135 106.87 179.133 106.87 179.132C106.87 179.131 106.87 179.13 106.87 179.129C106.87 179.127 106.87 179.126 106.87 179.125C106.87 179.124 106.87 179.123 106.87 179.121C106.87 179.12 106.87 179.119 106.87 179.118C106.87 179.117 106.87 179.115 106.87 179.114C106.87 179.113 106.87 179.112 106.87 179.111C106.87 179.109 106.87 179.108 106.87 179.107C106.87 179.106 106.87 179.105 106.87 179.103C106.87 179.102 106.87 179.101 106.87 179.1C106.87 179.099 106.87 179.097 106.87 179.096C106.87 179.095 106.87 179.094 106.87 179.093C106.87 179.091 106.87 179.09 106.87 179.089C106.87 179.088 106.87 179.087 106.87 179.085C106.87 179.084 106.87 179.083 106.87 179.082C106.87 179.081 106.87 179.079 106.87 179.078C106.87 179.077 106.87 179.076 106.87 179.075C106.87 179.073 106.87 179.072 106.87 179.071C106.87 179.07 106.87 179.069 106.87 179.067C106.87 179.066 106.87 179.065 106.87 179.064C106.87 179.063 106.87 179.061 106.87 179.06C106.87 179.059 106.87 179.058 106.87 179.057C106.87 179.055 106.87 179.054 106.87 179.053C106.87 179.052 106.87 179.051 106.87 179.049C106.87 179.048 106.87 179.047 106.87 179.046C106.87 179.045 106.87 179.043 106.87 179.042C106.87 179.041 106.87 179.04 106.87 179.039C106.87 179.037 106.87 179.036 106.87 179.035C106.87 179.034 106.87 179.033 106.87 179.031C106.87 179.03 106.87 179.029 106.87 179.028C106.87 179.027 106.87 179.025 106.87 179.024C106.87 179.023 106.87 179.022 106.87 179.021C106.87 179.019 106.87 179.018 106.87 179.017C106.87 179.016 106.87 179.015 106.87 179.013C106.87 179.012 106.87 179.011 106.87 179.01C106.87 179.009 106.87 179.007 106.87 179.006C106.87 179.005 106.87 179.004 106.87 179.003C106.87 179.001 106.87 179 106.87 178.999C106.87 178.998 106.87 178.997 106.87 178.995C106.87 178.994 106.87 178.993 106.87 178.992C106.87 178.991 106.87 178.989 106.87 178.988C106.87 178.987 106.87 178.986 106.87 178.985C106.87 178.983 106.87 178.982 106.87 178.981C106.87 178.98 106.87 178.979 106.87 178.977C106.87 178.976 106.87 178.975 106.87 178.974C106.87 178.973 106.87 178.971 106.87 178.97C106.87 178.969 106.87 178.968 106.87 178.967C106.87 178.965 106.87 178.964 106.87 178.963C106.87 178.962 106.87 178.961 106.87 178.959C106.87 178.958 106.87 178.957 106.87 178.956C106.87 178.955 106.87 178.953 106.87 178.952C106.87 178.951 106.87 178.95 106.87 178.949C106.87 178.947 106.87 178.946 106.87 178.945C106.87 178.944 106.87 178.943 106.87 178.941C106.87 178.94 106.87 178.939 106.87 178.938C106.87 178.936 106.87 178.935 106.87 178.934C106.87 178.933 106.87 178.932 106.87 178.93C106.87 178.929 106.87 178.928 106.87 178.927C106.87 178.926 106.87 178.924 106.87 178.923C106.87 178.922 106.87 178.921 106.87 178.92C106.87 178.918 106.87 178.917 106.87 178.916C106.87 178.915 106.87 178.914 106.87 178.912C106.87 178.911 106.87 178.91 106.87 178.909C106.87 178.908 106.87 178.906 106.87 178.905C106.87 178.904 106.87 178.903 106.87 178.902C106.87 178.9 106.87 178.899 106.87 178.898C106.87 178.897 106.87 178.896 106.87 178.894C106.87 178.893 106.87 178.892 106.87 178.891C106.87 178.89 106.87 178.888 106.87 178.887C106.87 178.886 106.87 178.885 106.87 178.884C106.87 178.882 106.87 178.881 106.87 178.88C106.87 178.879 106.87 178.878 106.87 178.876C106.87 178.875 106.87 178.874 106.87 178.873C106.87 178.872 106.87 178.87 106.87 178.869C106.87 178.868 106.87 178.867 106.87 178.866C106.87 178.864 106.87 178.863 106.87 178.862C106.87 178.861 106.87 178.86 106.87 178.858C106.87 178.857 106.87 178.856 106.87 178.855C106.87 178.854 106.87 178.852 106.87 178.851C106.87 178.85 106.87 178.849 106.87 178.847C106.87 178.846 106.87 178.845 106.87 178.844C106.87 178.843 106.87 178.841 106.87 178.84C106.87 178.839 106.87 178.838 106.87 178.837C106.87 178.835 106.87 178.834 106.87 178.833C106.87 178.832 106.87 178.831 106.87 178.829C106.87 178.828 106.87 178.827 106.87 178.826C106.87 178.825 106.87 178.823 106.87 178.822C106.87 178.821 106.87 178.82 106.87 178.819C106.87 178.817 106.87 178.816 106.87 178.815C106.87 178.814 106.87 178.813 106.87 178.811C106.87 178.81 106.87 178.809 106.87 178.808C106.87 178.807 106.87 178.805 106.87 178.804C106.87 178.803 106.87 178.802 106.87 178.801C106.87 178.799 106.87 178.798 106.87 178.797C106.87 178.796 106.87 178.795 106.87 178.793C106.87 178.792 106.87 178.791 106.87 178.79C106.87 178.788 106.87 178.787 106.87 178.786C106.87 178.785 106.87 178.784 106.87 178.782C106.87 178.781 106.87 178.78 106.87 178.779C106.87 178.778 106.87 178.776 106.87 178.775C106.87 178.774 106.87 178.773 106.87 178.772C106.87 178.77 106.87 178.769 106.87 178.768C106.87 178.767 106.87 178.766 106.87 178.764C106.87 178.763 106.87 178.762 106.87 178.761C106.87 178.76 106.87 178.758 106.87 178.757C106.87 178.756 106.87 178.755 106.87 178.754C106.87 178.752 106.87 178.751 106.87 178.75C106.87 178.749 106.87 178.748 106.87 178.746C106.87 178.745 106.87 178.744 106.87 178.743C106.87 178.741 106.87 178.74 106.87 178.739C106.87 178.738 106.87 178.737 106.87 178.735C106.87 178.734 106.87 178.733 106.87 178.732C106.87 178.731 106.87 178.729 106.87 178.728C106.87 178.727 106.87 178.726 106.87 178.725C106.87 178.723 106.87 178.722 106.87 178.721C106.87 178.72 106.87 178.719 106.87 178.717C106.87 178.716 106.87 178.715 106.87 178.714C106.87 178.713 106.87 178.711 106.87 178.71C106.87 178.709 106.87 178.708 106.87 178.707C106.87 178.705 106.87 178.704 106.87 178.703C106.87 178.702 106.87 178.7 106.87 178.699C106.87 178.698 106.87 178.697 106.87 178.696C106.87 178.694 106.87 178.693 106.87 178.692C106.87 178.691 106.87 178.69 106.87 178.688C106.87 178.687 106.87 178.686 106.87 178.685C106.87 178.684 106.87 178.682 106.87 178.681C106.87 178.68 106.87 178.679 106.87 178.678C106.87 178.676 106.87 178.675 106.87 178.674C106.87 178.673 106.87 178.672 106.87 178.67C106.87 178.669 106.87 178.668 106.87 178.667C106.87 178.665 106.87 178.664 106.87 178.663C106.87 178.662 106.87 178.661 106.87 178.659C106.87 178.658 106.87 178.657 106.87 178.656C106.87 178.655 106.87 178.653 106.87 178.652C106.87 178.651 106.87 178.65 106.87 178.649C106.87 178.647 106.87 178.646 106.87 178.645C106.87 178.644 106.87 178.643 106.87 178.641C106.87 178.64 106.87 178.639 106.87 178.638C106.87 178.637 106.87 178.635 106.87 178.634C106.87 178.633 106.87 178.632 106.87 178.63C106.87 178.629 106.87 178.628 106.87 178.627C106.87 178.626 106.87 178.624 106.87 178.623C106.87 178.622 106.87 178.621 106.87 178.62C106.87 178.618 106.87 178.617 106.87 178.616C106.87 178.615 106.87 178.614 106.87 178.612C106.87 178.611 106.87 178.61 106.87 178.609C106.87 178.608 106.87 178.606 106.87 178.605C106.87 178.604 106.87 178.603 106.87 178.602C106.87 178.6 106.87 178.599 106.87 178.598C106.87 178.597 106.87 178.595 106.87 178.594C106.87 178.593 106.87 178.592 106.87 178.591C106.87 178.589 106.87 178.588 106.87 178.587C106.87 178.586 106.87 178.585 106.87 178.583C106.87 178.582 106.87 178.581 106.87 178.58C106.87 178.579 106.87 178.577 106.87 178.576C106.87 178.575 106.87 178.574 106.87 178.573C106.87 178.571 106.87 178.57 106.87 178.569C106.87 178.568 106.87 178.566 106.87 178.565C106.87 178.564 106.87 178.563 106.87 178.562C106.87 178.56 106.87 178.559 106.87 178.558C106.87 178.557 106.87 178.556 106.87 178.554C106.87 178.553 106.87 178.552 106.87 178.551C106.87 178.55 106.87 178.548 106.87 178.547C106.87 178.546 106.87 178.545 106.87 178.543C106.87 178.542 106.87 178.541 106.87 178.54C106.87 178.539 106.87 178.537 106.87 178.536C106.87 178.535 106.87 178.534 106.87 178.533C106.87 178.531 106.87 178.53 106.87 178.529C106.87 178.528 106.87 178.527 106.87 178.525C106.87 178.524 106.87 178.523 106.87 178.522C106.87 178.521 106.87 178.519 106.87 178.518C106.87 178.517 106.87 178.516 106.87 178.514C106.87 178.513 106.87 178.512 106.87 178.511C106.87 178.51 106.87 178.508 106.87 178.507C106.87 178.506 106.87 178.505 106.87 178.504C106.87 178.502 106.87 178.501 106.87 178.5C106.87 178.499 106.87 178.498 106.87 178.496C106.87 178.495 106.87 178.494 106.87 178.493C106.87 178.491 106.87 178.49 106.87 178.489C106.87 178.488 106.87 178.487 106.87 178.485C106.87 178.484 106.87 178.483 106.87 178.482C106.87 178.481 106.87 178.479 106.87 178.478C106.87 178.477 106.87 178.476 106.87 178.475C106.87 178.473 106.87 178.472 106.87 178.471C106.87 178.47 106.87 178.468 106.87 178.467C106.87 178.466 106.87 178.465 106.87 178.464C106.87 178.462 106.87 178.461 106.87 178.46H105.87C105.87 178.461 105.87 178.462 105.87 178.464C105.87 178.465 105.87 178.466 105.87 178.467C105.87 178.468 105.87 178.47 105.87 178.471C105.87 178.472 105.87 178.473 105.87 178.475C105.87 178.476 105.87 178.477 105.87 178.478C105.87 178.479 105.87 178.481 105.87 178.482C105.87 178.483 105.87 178.484 105.87 178.485C105.87 178.487 105.87 178.488 105.87 178.489C105.87 178.49 105.87 178.491 105.87 178.493C105.87 178.494 105.87 178.495 105.87 178.496C105.87 178.498 105.87 178.499 105.87 178.5C105.87 178.501 105.87 178.502 105.87 178.504C105.87 178.505 105.87 178.506 105.87 178.507C105.87 178.508 105.87 178.51 105.87 178.511C105.87 178.512 105.87 178.513 105.87 178.514C105.87 178.516 105.87 178.517 105.87 178.518C105.87 178.519 105.87 178.521 105.87 178.522C105.87 178.523 105.87 178.524 105.87 178.525C105.87 178.527 105.87 178.528 105.87 178.529C105.87 178.53 105.87 178.531 105.87 178.533C105.87 178.534 105.87 178.535 105.87 178.536C105.87 178.537 105.87 178.539 105.87 178.54C105.87 178.541 105.87 178.542 105.87 178.543C105.87 178.545 105.87 178.546 105.87 178.547C105.87 178.548 105.87 178.55 105.87 178.551C105.87 178.552 105.87 178.553 105.87 178.554C105.87 178.556 105.87 178.557 105.87 178.558C105.87 178.559 105.87 178.56 105.87 178.562C105.87 178.563 105.87 178.564 105.87 178.565C105.87 178.566 105.87 178.568 105.87 178.569C105.87 178.57 105.87 178.571 105.87 178.573C105.87 178.574 105.87 178.575 105.87 178.576C105.87 178.577 105.87 178.579 105.87 178.58C105.87 178.581 105.87 178.582 105.87 178.583C105.87 178.585 105.87 178.586 105.87 178.587C105.87 178.588 105.87 178.589 105.87 178.591C105.87 178.592 105.87 178.593 105.87 178.594C105.87 178.595 105.87 178.597 105.87 178.598C105.87 178.599 105.87 178.6 105.87 178.602C105.87 178.603 105.87 178.604 105.87 178.605C105.87 178.606 105.87 178.608 105.87 178.609C105.87 178.61 105.87 178.611 105.87 178.612C105.87 178.614 105.87 178.615 105.87 178.616C105.87 178.617 105.87 178.618 105.87 178.62C105.87 178.621 105.87 178.622 105.87 178.623C105.87 178.624 105.87 178.626 105.87 178.627C105.87 178.628 105.87 178.629 105.87 178.63C105.87 178.632 105.87 178.633 105.87 178.634C105.87 178.635 105.87 178.637 105.87 178.638C105.87 178.639 105.87 178.64 105.87 178.641C105.87 178.643 105.87 178.644 105.87 178.645C105.87 178.646 105.87 178.647 105.87 178.649C105.87 178.65 105.87 178.651 105.87 178.652C105.87 178.653 105.87 178.655 105.87 178.656C105.87 178.657 105.87 178.658 105.87 178.659C105.87 178.661 105.87 178.662 105.87 178.663C105.87 178.664 105.87 178.665 105.87 178.667C105.87 178.668 105.87 178.669 105.87 178.67C105.87 178.672 105.87 178.673 105.87 178.674C105.87 178.675 105.87 178.676 105.87 178.678C105.87 178.679 105.87 178.68 105.87 178.681C105.87 178.682 105.87 178.684 105.87 178.685C105.87 178.686 105.87 178.687 105.87 178.688C105.87 178.69 105.87 178.691 105.87 178.692C105.87 178.693 105.87 178.694 105.87 178.696C105.87 178.697 105.87 178.698 105.87 178.699C105.87 178.7 105.87 178.702 105.87 178.703C105.87 178.704 105.87 178.705 105.87 178.707C105.87 178.708 105.87 178.709 105.87 178.71C105.87 178.711 105.87 178.713 105.87 178.714C105.87 178.715 105.87 178.716 105.87 178.717C105.87 178.719 105.87 178.72 105.87 178.721C105.87 178.722 105.87 178.723 105.87 178.725C105.87 178.726 105.87 178.727 105.87 178.728C105.87 178.729 105.87 178.731 105.87 178.732C105.87 178.733 105.87 178.734 105.87 178.735C105.87 178.737 105.87 178.738 105.87 178.739C105.87 178.74 105.87 178.741 105.87 178.743C105.87 178.744 105.87 178.745 105.87 178.746C105.87 178.748 105.87 178.749 105.87 178.75C105.87 178.751 105.87 178.752 105.87 178.754C105.87 178.755 105.87 178.756 105.87 178.757C105.87 178.758 105.87 178.76 105.87 178.761C105.87 178.762 105.87 178.763 105.87 178.764C105.87 178.766 105.87 178.767 105.87 178.768C105.87 178.769 105.87 178.77 105.87 178.772C105.87 178.773 105.87 178.774 105.87 178.775C105.87 178.776 105.87 178.778 105.87 178.779C105.87 178.78 105.87 178.781 105.87 178.782C105.87 178.784 105.87 178.785 105.87 178.786C105.87 178.787 105.87 178.788 105.87 178.79C105.87 178.791 105.87 178.792 105.87 178.793C105.87 178.795 105.87 178.796 105.87 178.797C105.87 178.798 105.87 178.799 105.87 178.801C105.87 178.802 105.87 178.803 105.87 178.804C105.87 178.805 105.87 178.807 105.87 178.808C105.87 178.809 105.87 178.81 105.87 178.811C105.87 178.813 105.87 178.814 105.87 178.815C105.87 178.816 105.87 178.817 105.87 178.819C105.87 178.82 105.87 178.821 105.87 178.822C105.87 178.823 105.87 178.825 105.87 178.826C105.87 178.827 105.87 178.828 105.87 178.829C105.87 178.831 105.87 178.832 105.87 178.833C105.87 178.834 105.87 178.835 105.87 178.837C105.87 178.838 105.87 178.839 105.87 178.84C105.87 178.841 105.87 178.843 105.87 178.844C105.87 178.845 105.87 178.846 105.87 178.847C105.87 178.849 105.87 178.85 105.87 178.851C105.87 178.852 105.87 178.854 105.87 178.855C105.87 178.856 105.87 178.857 105.87 178.858C105.87 178.86 105.87 178.861 105.87 178.862C105.87 178.863 105.87 178.864 105.87 178.866C105.87 178.867 105.87 178.868 105.87 178.869C105.87 178.87 105.87 178.872 105.87 178.873C105.87 178.874 105.87 178.875 105.87 178.876C105.87 178.878 105.87 178.879 105.87 178.88C105.87 178.881 105.87 178.882 105.87 178.884C105.87 178.885 105.87 178.886 105.87 178.887C105.87 178.888 105.87 178.89 105.87 178.891C105.87 178.892 105.87 178.893 105.87 178.894C105.87 178.896 105.87 178.897 105.87 178.898C105.87 178.899 105.87 178.9 105.87 178.902C105.87 178.903 105.87 178.904 105.87 178.905C105.87 178.906 105.87 178.908 105.87 178.909C105.87 178.91 105.87 178.911 105.87 178.912C105.87 178.914 105.87 178.915 105.87 178.916C105.87 178.917 105.87 178.918 105.87 178.92C105.87 178.921 105.87 178.922 105.87 178.923C105.87 178.924 105.87 178.926 105.87 178.927C105.87 178.928 105.87 178.929 105.87 178.93C105.87 178.932 105.87 178.933 105.87 178.934C105.87 178.935 105.87 178.936 105.87 178.938C105.87 178.939 105.87 178.94 105.87 178.941C105.87 178.943 105.87 178.944 105.87 178.945C105.87 178.946 105.87 178.947 105.87 178.949C105.87 178.95 105.87 178.951 105.87 178.952C105.87 178.953 105.87 178.955 105.87 178.956C105.87 178.957 105.87 178.958 105.87 178.959C105.87 178.961 105.87 178.962 105.87 178.963C105.87 178.964 105.87 178.965 105.87 178.967C105.87 178.968 105.87 178.969 105.87 178.97C105.87 178.971 105.87 178.973 105.87 178.974C105.87 178.975 105.87 178.976 105.87 178.977C105.87 178.979 105.87 178.98 105.87 178.981C105.87 178.982 105.87 178.983 105.87 178.985C105.87 178.986 105.87 178.987 105.87 178.988C105.87 178.989 105.87 178.991 105.87 178.992C105.87 178.993 105.87 178.994 105.87 178.995C105.87 178.997 105.87 178.998 105.87 178.999C105.87 179 105.87 179.001 105.87 179.003C105.87 179.004 105.87 179.005 105.87 179.006C105.87 179.007 105.87 179.009 105.87 179.01C105.87 179.011 105.87 179.012 105.87 179.013C105.87 179.015 105.87 179.016 105.87 179.017C105.87 179.018 105.87 179.019 105.87 179.021C105.87 179.022 105.87 179.023 105.87 179.024C105.87 179.025 105.87 179.027 105.87 179.028C105.87 179.029 105.87 179.03 105.87 179.031C105.87 179.033 105.87 179.034 105.87 179.035C105.87 179.036 105.87 179.037 105.87 179.039C105.87 179.04 105.87 179.041 105.87 179.042C105.87 179.043 105.87 179.045 105.87 179.046C105.87 179.047 105.87 179.048 105.87 179.049C105.87 179.051 105.87 179.052 105.87 179.053C105.87 179.054 105.87 179.055 105.87 179.057C105.87 179.058 105.87 179.059 105.87 179.06C105.87 179.061 105.87 179.063 105.87 179.064C105.87 179.065 105.87 179.066 105.87 179.067C105.87 179.069 105.87 179.07 105.87 179.071C105.87 179.072 105.87 179.073 105.87 179.075C105.87 179.076 105.87 179.077 105.87 179.078C105.87 179.079 105.87 179.081 105.87 179.082C105.87 179.083 105.87 179.084 105.87 179.085C105.87 179.087 105.87 179.088 105.87 179.089C105.87 179.09 105.87 179.091 105.87 179.093C105.87 179.094 105.87 179.095 105.87 179.096C105.87 179.097 105.87 179.099 105.87 179.1C105.87 179.101 105.87 179.102 105.87 179.103C105.87 179.105 105.87 179.106 105.87 179.107C105.87 179.108 105.87 179.109 105.87 179.111C105.87 179.112 105.87 179.113 105.87 179.114C105.87 179.115 105.87 179.117 105.87 179.118C105.87 179.119 105.87 179.12 105.87 179.121C105.87 179.123 105.87 179.124 105.87 179.125C105.87 179.126 105.87 179.127 105.87 179.129C105.87 179.13 105.87 179.131 105.87 179.132C105.87 179.133 105.87 179.135 105.87 179.136C105.87 179.137 105.87 179.138 105.87 179.139C105.87 179.141 105.87 179.142 105.87 179.143C105.87 179.144 105.87 179.145 105.87 179.147C105.87 179.148 105.87 179.149 105.87 179.15C105.87 179.151 105.87 179.153 105.87 179.154C105.87 179.155 105.87 179.156 105.87 179.157C105.87 179.159 105.87 179.16 105.87 179.161C105.87 179.162 105.87 179.163 105.87 179.165C105.87 179.166 105.87 179.167 105.87 179.168C105.87 179.169 105.87 179.171 105.87 179.172C105.87 179.173 105.87 179.174 105.87 179.175C105.87 179.177 105.87 179.178 105.87 179.179C105.87 179.18 105.87 179.181 105.87 179.183C105.87 179.184 105.87 179.185 105.87 179.186C105.87 179.187 105.87 179.189 105.87 179.19C105.87 179.191 105.87 179.192 105.87 179.193C105.87 179.195 105.87 179.196 105.87 179.197C105.87 179.198 105.87 179.199 105.87 179.201C105.87 179.202 105.87 179.203 105.87 179.204C105.87 179.205 105.87 179.207 105.87 179.208C105.87 179.209 105.87 179.21 105.87 179.211C105.87 179.213 105.87 179.214 105.87 179.215C105.87 179.216 105.87 179.217 105.87 179.219C105.87 179.22 105.87 179.221 105.87 179.222C105.87 179.223 105.87 179.225 105.87 179.226C105.87 179.227 105.87 179.228 105.87 179.229C105.87 179.231 105.87 179.232 105.87 179.233C105.87 179.234 105.87 179.235 105.87 179.236C105.87 179.238 105.87 179.239 105.87 179.24C105.87 179.241 105.87 179.242 105.87 179.244C105.87 179.245 105.87 179.246 105.87 179.247C105.87 179.248 105.87 179.25 105.87 179.251C105.87 179.252 105.87 179.253 105.87 179.254C105.87 179.256 105.87 179.257 105.87 179.258C105.87 179.259 105.87 179.26 105.87 179.262C105.87 179.263 105.87 179.264 105.87 179.265C105.87 179.266 105.87 179.268 105.87 179.269C105.87 179.27 105.87 179.271 105.87 179.272C105.87 179.274 105.87 179.275 105.87 179.276C105.87 179.277 105.87 179.278 105.87 179.28C105.87 179.281 105.87 179.282 105.87 179.283C105.87 179.284 105.87 179.286 105.87 179.287C105.87 179.288 105.87 179.289 105.87 179.29C105.87 179.292 105.87 179.293 105.87 179.294C105.87 179.295 105.87 179.296 105.87 179.298C105.87 179.299 105.87 179.3 105.87 179.301C105.87 179.302 105.87 179.304 105.87 179.305C105.87 179.306 105.87 179.307 105.87 179.308C105.87 179.31 105.87 179.311 105.87 179.312C105.87 179.313 105.87 179.314 105.87 179.316C105.87 179.317 105.87 179.318 105.87 179.319C105.87 179.32 105.87 179.322 105.87 179.323C105.87 179.324 105.87 179.325 105.87 179.326C105.87 179.327 105.87 179.329 105.87 179.33C105.87 179.331 105.87 179.332 105.87 179.333C105.87 179.335 105.87 179.336 105.87 179.337C105.87 179.338 105.87 179.339 105.87 179.341C105.87 179.342 105.87 179.343 105.87 179.344C105.87 179.345 105.87 179.347 105.87 179.348C105.87 179.349 105.87 179.35 105.87 179.351C105.87 179.353 105.87 179.354 105.87 179.355C105.87 179.356 105.87 179.357 105.87 179.359C105.87 179.36 105.87 179.361 105.87 179.362C105.87 179.363 105.87 179.365 105.87 179.366C105.87 179.367 105.87 179.368 105.87 179.369C105.87 179.371 105.87 179.372 105.87 179.373C105.87 179.374 105.87 179.375 105.87 179.377C105.87 179.378 105.87 179.379 105.87 179.38C105.87 179.381 105.87 179.383 105.87 179.384C105.87 179.385 105.87 179.386 105.87 179.387C105.87 179.389 105.87 179.39 105.87 179.391C105.87 179.392 105.87 179.393 105.87 179.395C105.87 179.396 105.87 179.397 105.87 179.398C105.87 179.399 105.87 179.4 105.87 179.402C105.87 179.403 105.87 179.404 105.87 179.405C105.87 179.406 105.87 179.408 105.87 179.409C105.87 179.41 105.87 179.411 105.87 179.412C105.87 179.414 105.87 179.415 105.87 179.416C105.87 179.417 105.87 179.418 105.87 179.42C105.87 179.421 105.87 179.422 105.87 179.423C105.87 179.424 105.87 179.426 105.87 179.427C105.87 179.428 105.87 179.429 105.87 179.43C105.87 179.432 105.87 179.433 105.87 179.434C105.87 179.435 105.87 179.436 105.87 179.438C105.87 179.439 105.87 179.44 105.87 179.441C105.87 179.442 105.87 179.444 105.87 179.445C105.87 179.446 105.87 179.447 105.87 179.448C105.87 179.45 105.87 179.451 105.87 179.452C105.87 179.453 105.87 179.454 105.87 179.455C105.87 179.457 105.87 179.458 105.87 179.459C105.87 179.46 105.87 179.461 105.87 179.463C105.87 179.464 105.87 179.465 105.87 179.466C105.87 179.467 105.87 179.469 105.87 179.47C105.87 179.471 105.87 179.472 105.87 179.473C105.87 179.475 105.87 179.476 105.87 179.477C105.87 179.478 105.87 179.479 105.87 179.481C105.87 179.482 105.87 179.483 105.87 179.484C105.87 179.485 105.87 179.487 105.87 179.488C105.87 179.489 105.87 179.49 105.87 179.491C105.87 179.493 105.87 179.494 105.87 179.495C105.87 179.496 105.87 179.497 105.87 179.499C105.87 179.5 105.87 179.501 105.87 179.502C105.87 179.503 105.87 179.505 105.87 179.506C105.87 179.507 105.87 179.508 105.87 179.509C105.87 179.51 105.87 179.512 105.87 179.513C105.87 179.514 105.87 179.515 105.87 179.516C105.87 179.518 105.87 179.519 105.87 179.52C105.87 179.521 105.87 179.522 105.87 179.524C105.87 179.525 105.87 179.526 105.87 179.527C105.87 179.528 105.87 179.53 105.87 179.531C105.87 179.532 105.87 179.533 105.87 179.534C105.87 179.536 105.87 179.537 105.87 179.538C105.87 179.539 105.87 179.54 105.87 179.542C105.87 179.543 105.87 179.544 105.87 179.545C105.87 179.546 105.87 179.548 105.87 179.549C105.87 179.55 105.87 179.551 105.87 179.552C105.87 179.553 105.87 179.555 105.87 179.556C105.87 179.557 105.87 179.558 105.87 179.559C105.87 179.561 105.87 179.562 105.87 179.563C105.87 179.564 105.87 179.565 105.87 179.567C105.87 179.568 105.87 179.569 105.87 179.57C105.87 179.571 105.87 179.573 105.87 179.574C105.87 179.575 105.87 179.576 105.87 179.577C105.87 179.579 105.87 179.58 105.87 179.581C105.87 179.582 105.87 179.583 105.87 179.585C105.87 179.586 105.87 179.587 105.87 179.588C105.87 179.589 105.87 179.591 105.87 179.592C105.87 179.593 105.87 179.594 105.87 179.595C105.87 179.596 105.87 179.598 105.87 179.599C105.87 179.6 105.87 179.601 105.87 179.602C105.87 179.604 105.87 179.605 105.87 179.606C105.87 179.607 105.87 179.608 105.87 179.61C105.87 179.611 105.87 179.612 105.87 179.613C105.87 179.614 105.87 179.616 105.87 179.617C105.87 179.618 105.87 179.619 105.87 179.62C105.87 179.622 105.87 179.623 105.87 179.624C105.87 179.625 105.87 179.626 105.87 179.628C105.87 179.629 105.87 179.63 105.87 179.631C105.87 179.632 105.87 179.634 105.87 179.635C105.87 179.636 105.87 179.637 105.87 179.638C105.87 179.639 105.87 179.641 105.87 179.642C105.87 179.643 105.87 179.644 105.87 179.645C105.87 179.647 105.87 179.648 105.87 179.649C105.87 179.65 105.87 179.651 105.87 179.653C105.87 179.654 105.87 179.655 105.87 179.656C105.87 179.657 105.87 179.659 105.87 179.66C105.87 179.661 105.87 179.662 105.87 179.663C105.87 179.665 105.87 179.666 105.87 179.667C105.87 179.668 105.87 179.669 105.87 179.671C105.87 179.672 105.87 179.673 105.87 179.674C105.87 179.675 105.87 179.676 105.87 179.678C105.87 179.679 105.87 179.68 105.87 179.681C105.87 179.682 105.87 179.684 105.87 179.685C105.87 179.686 105.87 179.687 105.87 179.688C105.87 179.69 105.87 179.691 105.87 179.692C105.87 179.693 105.87 179.694 105.87 179.696C105.87 179.697 105.87 179.698 105.87 179.699C105.87 179.7 105.87 179.702 105.87 179.703C105.87 179.704 105.87 179.705 105.87 179.706C105.87 179.708 105.87 179.709 105.87 179.71C105.87 179.711 105.87 179.712 105.87 179.713C105.87 179.715 105.87 179.716 105.87 179.717C105.87 179.718 105.87 179.719 105.87 179.721C105.87 179.722 105.87 179.723 105.87 179.724C105.87 179.725 105.87 179.727 105.87 179.728C105.87 179.729 105.87 179.73 105.87 179.731C105.87 179.733 105.87 179.734 105.87 179.735C105.87 179.736 105.87 179.737 105.87 179.739C105.87 179.74 105.87 179.741 105.87 179.742C105.87 179.743 105.87 179.745 105.87 179.746C105.87 179.747 105.87 179.748 105.87 179.749C105.87 179.75 105.87 179.752 105.87 179.753C105.87 179.754 105.87 179.755 105.87 179.756C105.87 179.758 105.87 179.759 105.87 179.76C105.87 179.761 105.87 179.762 105.87 179.764C105.87 179.765 105.87 179.766 105.87 179.767C105.87 179.768 105.87 179.77 105.87 179.771C105.87 179.772 105.87 179.773 105.87 179.774C105.87 179.776 105.87 179.777 105.87 179.778C105.87 179.779 105.87 179.78 105.87 179.781C105.87 179.783 105.87 179.784 105.87 179.785C105.87 179.786 105.87 179.787 105.87 179.789C105.87 179.79 105.87 179.791 105.87 179.792C105.87 179.793 105.87 179.795 105.87 179.796C105.87 179.797 105.87 179.798 105.87 179.799C105.87 179.801 105.87 179.802 105.87 179.803C105.87 179.804 105.87 179.805 105.87 179.807C105.87 179.808 105.87 179.809 105.87 179.81C105.87 179.811 105.87 179.813 105.87 179.814C105.87 179.815 105.87 179.816 105.87 179.817C105.87 179.818 105.87 179.82 105.87 179.821C105.87 179.822 105.87 179.823 105.87 179.824C105.87 179.826 105.87 179.827 105.87 179.828C105.87 179.829 105.87 179.83 105.87 179.832C105.87 179.833 105.87 179.834 105.87 179.835C105.87 179.836 105.87 179.838 105.87 179.839C105.87 179.84 105.87 179.841 105.87 179.842C105.87 179.844 105.87 179.845 105.87 179.846C105.87 179.847 105.87 179.848 105.87 179.849C105.87 179.851 105.87 179.852 105.87 179.853C105.87 179.854 105.87 179.855 105.87 179.857C105.87 179.858 105.87 179.859 105.87 179.86C105.87 179.861 105.87 179.863 105.87 179.864C105.87 179.865 105.87 179.866 105.87 179.867C105.87 179.869 105.87 179.87 105.87 179.871C105.87 179.872 105.87 179.873 105.87 179.875C105.87 179.876 105.87 179.877 105.87 179.878C105.87 179.879 105.87 179.88 105.87 179.882C105.87 179.883 105.87 179.884 105.87 179.885C105.87 179.886 105.87 179.888 105.87 179.889C105.87 179.89 105.87 179.891 105.87 179.892C105.87 179.894 105.87 179.895 105.87 179.896C105.87 179.897 105.87 179.898 105.87 179.9C105.87 179.901 105.87 179.902 105.87 179.903C105.87 179.904 105.87 179.906 105.87 179.907C105.87 179.908 105.87 179.909 105.87 179.91C105.87 179.911 105.87 179.913 105.87 179.914C105.87 179.915 105.87 179.916 105.87 179.917C105.87 179.919 105.87 179.92 105.87 179.921C105.87 179.922 105.87 179.923 105.87 179.925C105.87 179.926 105.87 179.927 105.87 179.928C105.87 179.929 105.87 179.931 105.87 179.932C105.87 179.933 105.87 179.934 105.87 179.935C105.87 179.937 105.87 179.938 105.87 179.939C105.87 179.94 105.87 179.941 105.87 179.942C105.87 179.944 105.87 179.945 105.87 179.946C105.87 179.947 105.87 179.948 105.87 179.95C105.87 179.951 105.87 179.952 105.87 179.953C105.87 179.954 105.87 179.956 105.87 179.957C105.87 179.958 105.87 179.959 105.87 179.96C105.87 179.962 105.87 179.963 105.87 179.964C105.87 179.965 105.87 179.966 105.87 179.968C105.87 179.969 105.87 179.97 105.87 179.971C105.87 179.972 105.87 179.973 105.87 179.975C105.87 179.976 105.87 179.977 105.87 179.978C105.87 179.979 105.87 179.981 105.87 179.982C105.87 179.983 105.87 179.984 105.87 179.985C105.87 179.987 105.87 179.988 105.87 179.989C105.87 179.99 105.87 179.991 105.87 179.993C105.87 179.994 105.87 179.995 105.87 179.996C105.87 179.997 105.87 179.999 105.87 180C105.87 180.001 105.87 180.002 105.87 180.003C105.87 180.004 105.87 180.006 105.87 180.007C105.87 180.008 105.87 180.009 105.87 180.01C105.87 180.012 105.87 180.013 105.87 180.014C105.87 180.015 105.87 180.016 105.87 180.018C105.87 180.019 105.87 180.02 105.87 180.021C105.87 180.022 105.87 180.024 105.87 180.025C105.87 180.026 105.87 180.027 105.87 180.028C105.87 180.03 105.87 180.031 105.87 180.032C105.87 180.033 105.87 180.034 105.87 180.035C105.87 180.037 105.87 180.038 105.87 180.039C105.87 180.04 105.87 180.041 105.87 180.043C105.87 180.044 105.87 180.045 105.87 180.046C105.87 180.047 105.87 180.049 105.87 180.05C105.87 180.051 105.87 180.052 105.87 180.053C105.87 180.055 105.87 180.056 105.87 180.057C105.87 180.058 105.87 180.059 105.87 180.06C105.87 180.062 105.87 180.063 105.87 180.064C105.87 180.065 105.87 180.066 105.87 180.068C105.87 180.069 105.87 180.07 105.87 180.071C105.87 180.072 105.87 180.074 105.87 180.075C105.87 180.076 105.87 180.077 105.87 180.078C105.87 180.08 105.87 180.081 105.87 180.082C105.87 180.083 105.87 180.084 105.87 180.086C105.87 180.087 105.87 180.088 105.87 180.089C105.87 180.09 105.87 180.091 105.87 180.093C105.87 180.094 105.87 180.095 105.87 180.096C105.87 180.097 105.87 180.099 105.87 180.1C105.87 180.101 105.87 180.102 105.87 180.103C105.87 180.105 105.87 180.106 105.87 180.107C105.87 180.108 105.87 180.109 105.87 180.111C105.87 180.112 105.87 180.113 105.87 180.114C105.87 180.115 105.87 180.117 105.87 180.118C105.87 180.119 105.87 180.12 105.87 180.121C105.87 180.122 105.87 180.124 105.87 180.125C105.87 180.126 105.87 180.127 105.87 180.128C105.87 180.13 105.87 180.131 105.87 180.132C105.87 180.133 105.87 180.134 105.87 180.136C105.87 180.137 105.87 180.138 105.87 180.139C105.87 180.14 105.87 180.142 105.87 180.143C105.87 180.144 105.87 180.145 105.87 180.146C105.87 180.147 105.87 180.149 105.87 180.15C105.87 180.151 105.87 180.152 105.87 180.153C105.87 180.155 105.87 180.156 105.87 180.157C105.87 180.158 105.87 180.159 105.87 180.161C105.87 180.162 105.87 180.163 105.87 180.164C105.87 180.165 105.87 180.167 105.87 180.168C105.87 180.169 105.87 180.17 105.87 180.171C105.87 180.173 105.87 180.174 105.87 180.175C105.87 180.176 105.87 180.177 105.87 180.178C105.87 180.18 105.87 180.181 105.87 180.182C105.87 180.183 105.87 180.184 105.87 180.186C105.87 180.187 105.87 180.188 105.87 180.189C105.87 180.19 105.87 180.192 105.87 180.193C105.87 180.194 105.87 180.195 105.87 180.196C105.87 180.198 105.87 180.199 105.87 180.2C105.87 180.201 105.87 180.202 105.87 180.203C105.87 180.205 105.87 180.206 105.87 180.207C105.87 180.208 105.87 180.209 105.87 180.211C105.87 180.212 105.87 180.213 105.87 180.214C105.87 180.215 105.87 180.217 105.87 180.218C105.87 180.219 105.87 180.22 105.87 180.221C105.87 180.223 105.87 180.224 105.87 180.225C105.87 180.226 105.87 180.227 105.87 180.229C105.87 180.23 105.87 180.231 105.87 180.232C105.87 180.233 105.87 180.234 105.87 180.236C105.87 180.237 105.87 180.238 105.87 180.239C105.87 180.24 105.87 180.242 105.87 180.243C105.87 180.244 105.87 180.245 105.87 180.246C105.87 180.248 105.87 180.249 105.87 180.25C105.87 180.251 105.87 180.252 105.87 180.254C105.87 180.255 105.87 180.256 105.87 180.257C105.87 180.258 105.87 180.259 105.87 180.261C105.87 180.262 105.87 180.263 105.87 180.264C105.87 180.265 105.87 180.267 105.87 180.268C105.87 180.269 105.87 180.27 105.87 180.271C105.87 180.273 105.87 180.274 105.87 180.275C105.87 180.276 105.87 180.277 105.87 180.279C105.87 180.28 105.87 180.281 105.87 180.282C105.87 180.283 105.87 180.284 105.87 180.286C105.87 180.287 105.87 180.288 105.87 180.289C105.87 180.29 105.87 180.292 105.87 180.293C105.87 180.294 105.87 180.295 105.87 180.296C105.87 180.298 105.87 180.299 105.87 180.3H106.87ZM106.87 178.46C106.872 170.756 108.695 163.162 112.192 156.298L111.301 155.844C107.733 162.849 105.872 170.598 105.87 178.46L106.87 178.46ZM112.192 156.298C115.689 149.433 120.759 143.493 126.99 138.963L126.402 138.154C120.044 142.777 114.869 148.839 111.301 155.844L112.192 156.298ZM126.99 138.963C133.221 134.432 140.434 131.439 148.042 130.228L147.885 129.24C140.121 130.476 132.76 133.53 126.402 138.154L126.99 138.963ZM148.042 130.228C155.65 129.017 163.437 129.623 170.766 131.996L171.074 131.044C163.595 128.623 155.649 128.005 147.885 129.24L148.042 130.228ZM171.337 131.797C177.398 122.667 185.924 115.444 195.925 110.965L195.516 110.052C185.342 114.608 176.669 121.956 170.503 131.243L171.337 131.797ZM195.925 110.965C205.926 106.486 216.992 104.935 227.839 106.492L227.981 105.502C216.947 103.918 205.69 105.496 195.516 110.052L195.925 110.965ZM227.839 106.492C238.686 108.049 248.869 112.65 257.207 119.761L257.856 119C249.374 111.766 239.016 107.086 227.981 105.502L227.839 106.492ZM257.207 119.761C265.544 126.873 271.694 136.202 274.943 146.668L275.898 146.372C272.593 135.725 266.337 126.234 257.856 119L257.207 119.761ZM275.321 147.01C280.525 148.066 285.47 150.141 289.87 153.114L290.43 152.286C285.921 149.238 280.853 147.112 275.519 146.03L275.321 147.01ZM290.59 152.938C295.615 143.636 297.834 133.077 296.978 122.54L295.982 122.62C296.822 132.965 294.643 143.331 289.71 152.462L290.59 152.938ZM296.978 122.539C295.049 98.9484 276.779 80.1327 254.115 75.2811L253.905 76.2589C276.181 81.0273 294.091 99.5116 295.982 122.621L296.978 122.539ZM254.087 75.276C252.838 75.0811 251.687 74.4864 250.805 73.5812L250.088 74.2791C251.121 75.3393 252.47 76.0358 253.933 76.264L254.087 75.276ZM250.805 73.5812C249.923 72.676 249.358 71.5092 249.196 70.2558L248.204 70.3842C248.394 71.8522 249.055 73.2189 250.088 74.2791L250.805 73.5812ZM249.176 70.1657C244.78 56.6183 236.835 44.4959 226.167 35.0596L225.505 35.8087C236.039 45.1266 243.884 57.0968 248.224 70.4743L249.176 70.1657ZM226.167 35.0596C215.499 25.6233 202.498 19.2177 188.515 16.5091L188.325 17.4909C202.132 20.1655 214.971 26.4907 225.505 35.8087L226.167 35.0596ZM188.42 17L188.611 16.0184L188.61 16.0182L188.42 17ZM109.07 50.29L109.897 50.8517L109.898 50.851L109.07 50.29ZM100.6 53.74L100.295 54.6924L100.304 54.6952L100.312 54.6978L100.6 53.74ZM78.87 50.5L78.8563 49.5L78.8454 49.5003L78.87 50.5ZM80.28 180.3L80.2878 179.3L80.2829 179.3L80.28 180.3ZM99.46 180.3L99.4629 179.3H99.46V180.3ZM104.59 39.27L104.966 40.1965L107.557 39.1442L104.887 38.315L104.59 39.27ZM99.59 37.89L99.8253 36.9181L99.1908 36.7645L98.7949 37.2836L99.59 37.89ZM96.12 42.71L95.2926 42.1483L93.4396 44.8779L96.4963 43.6365L96.12 42.71ZM248.64 70.36L247.689 70.6679L249.63 70.2201L248.64 70.36ZM257.94 61.36L257.728 62.3372L257.731 62.3378L257.94 61.36ZM261.69 62.29L261.426 63.2544L263.306 63.7701L262.627 61.9419L261.69 62.29ZM212.69 9.14999L212.274 10.0592L212.283 10.0634L212.69 9.14999ZM99.56 37.91L98.76 37.3101L97.85 38.5235L99.3239 38.8817L99.56 37.91ZM104.56 39.29L104.937 40.2161L107.528 39.161L104.855 38.3346L104.56 39.29ZM96.09 42.74L95.2626 42.1783L93.4062 44.9129L96.4672 43.6661L96.09 42.74ZM99.56 37.92L100.355 38.5264L101.283 37.3097L99.7962 36.9483L99.56 37.92ZM26.1 56.65L25.4274 55.91L25.4252 55.912L26.1 56.65ZM1.44002 128.48L2.42813 128.326L2.42811 128.326L1.44002 128.48ZM46.75 187.94L46.3376 188.851L46.3383 188.851L46.75 187.94ZM109.23 195.32V196.32H110.655L110.17 194.98L109.23 195.32ZM106.33 180.32L107.329 180.285L107.296 179.323L106.333 179.32L106.33 180.32ZM276.25 68.09L276.725 67.2098L276.724 67.2092L276.25 68.09ZM261.69 62.28L261.953 61.3152L260.079 60.8046L260.752 62.6263L261.69 62.28ZM263.18 66.59L264.133 66.2868L264.132 66.283L263.18 66.59ZM248.72 70.59L249.673 70.2869L249.669 70.2737L248.72 70.59ZM248.65 70.38L249.599 70.0637L247.658 70.5084L248.65 70.38ZM253.96 75.83L254.17 74.8523L254.142 74.8463L254.114 74.842L253.96 75.83ZM296.43 122.64L297.427 122.559L297.427 122.558L296.43 122.64ZM290.1 152.76L289.22 152.285L288.79 153.08L289.539 153.588L290.1 152.76ZM301 163.61L300.175 164.175L301.033 165.429L301.845 164.144L301 163.61ZM311.21 134.52L310.216 134.409L310.216 134.409L311.21 134.52ZM248.65 70.36L247.66 70.4979L247.672 70.589L247.701 70.6762L248.65 70.36ZM248.72 70.57L249.673 70.2663L249.669 70.2538L248.72 70.57ZM263.18 66.57L262.227 66.8718L262.227 66.8729L263.18 66.57ZM261.69 62.26L262.626 61.9084L262.447 61.4306L261.954 61.2956L261.69 62.26ZM257.94 61.33L257.728 62.3072L257.73 62.3078L257.94 61.33ZM282.6 144.57L283.552 144.264L283.552 144.263L282.6 144.57ZM231.51 99.03L231.341 100.016L231.342 100.016L231.51 99.03ZM164.39 127.73L163.564 127.166L161.689 129.91L164.767 128.656L164.39 127.73ZM172.86 124.28L173.237 125.206L175.831 124.15L173.155 123.324L172.86 124.28ZM117.36 136.46L116.692 135.716L116.691 135.717L117.36 136.46ZM99.57 187.37L98.5809 187.517L98.5823 187.526L99.57 187.37ZM129.67 229L129.212 229.889L129.22 229.893L129.67 229ZM283.62 232.4L283.272 231.463L283.271 231.463L283.62 232.4ZM315.68 185.31L316.679 185.277L316.679 185.271L315.68 185.31ZM277.37 139.31L277.589 138.334L277.586 138.334L277.37 139.31ZM273.37 153.77L273.154 154.746L273.155 154.746L273.37 153.77ZM300.67 185.3L299.671 185.334L299.671 185.334L300.67 185.3ZM278.39 218.37L278.719 219.314L278.719 219.314L278.39 218.37ZM155.71 220.28L155.721 219.28L155.709 219.28L155.71 220.28ZM121.41 154.37L122.228 154.945L122.234 154.936L121.41 154.37ZM168.88 138.73L168.587 139.686L168.594 139.688L168.88 138.73ZM177.35 135.28L176.525 134.716L176.523 134.718L177.35 135.28ZM228.92 113.73L228.728 114.711L228.728 114.711L228.92 113.73ZM268.14 148.53L269.092 148.224L269.092 148.223L268.14 148.53ZM100.905 52.7876C93.7812 50.5077 86.3351 49.3975 78.8563 49.5001L78.8837 51.4999C86.1465 51.4003 93.3774 52.4784 100.295 54.6924L100.905 52.7876ZM78.8454 49.5003C61.5276 49.9273 45.0742 57.155 33.0444 69.6198L34.4835 71.0086C46.1482 58.9221 62.1024 51.9137 78.8947 51.4997L78.8454 49.5003ZM33.0444 69.6198C21.0146 82.0845 14.3757 98.7842 14.5639 116.106L16.5638 116.084C16.3813 99.2881 22.8187 83.0952 34.4835 71.0086L33.0444 69.6198ZM14.5639 116.106C14.752 133.428 21.7521 149.98 34.0499 162.18L35.4585 160.76C23.5339 148.93 16.7462 132.881 16.5638 116.084L14.5639 116.106ZM34.0499 162.18C46.3476 174.381 62.9542 181.249 80.2771 181.3L80.2829 179.3C63.4857 179.251 47.383 172.591 35.4585 160.76L34.0499 162.18ZM80.2722 181.3C86.6668 181.35 93.0811 181.3 99.46 181.3V179.3C93.0589 179.3 86.6733 179.35 80.2878 179.3L80.2722 181.3ZM104.887 38.315C103.213 37.7954 101.526 37.3297 99.8253 36.9181L99.3547 38.8619C101.014 39.2636 102.66 39.718 104.293 40.225L104.887 38.315ZM98.7949 37.2836C97.5837 38.8715 96.4163 40.4931 95.2926 42.1483L96.9474 43.2717C98.0504 41.6469 99.1963 40.0551 100.385 38.4964L98.7949 37.2836ZM96.4963 43.6365L104.966 40.1965L104.214 38.3435L95.7437 41.7835L96.4963 43.6365ZM100.312 54.6978C104.172 55.8567 107.884 53.8167 109.897 50.8517L108.243 49.7283C106.576 52.1832 103.688 53.6233 100.888 52.7823L100.312 54.6978ZM109.898 50.851C126.971 25.6613 158.216 12.1704 188.23 17.9818L188.61 16.0182C157.784 10.0496 125.749 23.8987 108.242 49.7289L109.898 50.851ZM188.229 17.9816C201.942 20.6522 214.69 26.9475 225.146 36.213L226.473 34.7161C215.749 25.2137 202.675 18.7574 188.611 16.0184L188.229 17.9816ZM225.146 36.213C235.603 45.4784 243.387 57.3757 247.689 70.6679L249.591 70.0521C245.18 56.4199 237.197 44.2184 226.473 34.7161L225.146 36.213ZM249.63 70.2201C249.343 68.1864 250.04 65.8972 251.492 64.2774C252.914 62.6912 255.047 61.7545 257.728 62.3372L258.152 60.3828C254.714 59.6355 251.866 60.8637 250.003 62.9425C248.17 64.9878 247.277 67.8636 247.65 70.4999L249.63 70.2201ZM257.731 62.3378C258.965 62.6024 260.196 62.9172 261.426 63.2544L261.954 61.3256C260.704 60.9828 259.435 60.6576 258.15 60.3822L257.731 62.3378ZM262.627 61.9419C253.901 38.4383 236.22 18.5439 213.097 8.23662L212.283 10.0634C234.88 20.1361 252.199 39.6016 260.753 62.6381L262.627 61.9419ZM213.106 8.24081C193.592 -0.696723 171.607 -2.68671 150.805 2.60161L151.297 4.53995C171.657 -0.635845 193.174 1.3118 212.274 10.0592L213.106 8.24081ZM150.805 2.60161C130.003 7.88992 111.637 20.138 98.76 37.3101L100.36 38.5099C112.963 21.7032 130.938 9.71575 151.297 4.53995L150.805 2.60161ZM99.3239 38.8817C100.977 39.2835 102.624 39.738 104.265 40.2453L104.855 38.3346C103.176 37.8153 101.49 37.3498 99.7962 36.9383L99.3239 38.8817ZM104.183 38.3639L95.7128 41.8139L96.4672 43.6661L104.937 40.2161L104.183 38.3639ZM96.9174 43.3017C98.0204 41.6769 99.1663 40.0851 100.355 38.5264L98.7649 37.3135C97.5537 38.9015 96.3863 40.5231 95.2626 42.1783L96.9174 43.3017ZM99.7962 36.9483C86.7946 33.7879 73.2163 33.864 60.2509 37.1697L60.7451 39.1077C73.3936 35.8827 86.64 35.8086 99.3238 38.8917L99.7962 36.9483ZM60.2509 37.1697C47.2855 40.4755 35.3285 46.9102 25.4274 55.91L26.7726 57.39C36.4318 48.6101 48.0965 42.3327 60.7451 39.1077L60.2509 37.1697ZM25.4252 55.912C5.32572 74.2892 -3.70701 101.93 0.451929 128.634L2.42811 128.326C-1.63295 102.25 7.19431 75.2907 26.7748 57.388L25.4252 55.912ZM0.451905 128.634C4.50418 154.68 22.3527 177.993 46.3376 188.851L47.1624 187.029C23.7874 176.447 6.37586 153.7 2.42813 128.326L0.451905 128.634ZM46.3383 188.851C59.8066 194.936 73.6914 196.32 88.05 196.32V194.32C73.8087 194.32 60.2534 192.944 47.1617 187.029L46.3383 188.851ZM88.05 196.32H109.23V194.32H88.05V196.32ZM110.17 194.98C108.464 190.26 107.505 185.301 107.329 180.285L105.331 180.355C105.514 185.58 106.512 190.744 108.29 195.66L110.17 194.98ZM106.333 179.32L99.4629 179.3L99.4571 181.3L106.327 181.32L106.333 179.32ZM276.724 67.2092C272.039 64.691 267.084 62.7136 261.953 61.3152L261.427 63.2448C266.412 64.6034 271.226 66.5244 275.777 68.9708L276.724 67.2092ZM260.752 62.6263C261.274 64.04 261.766 65.4635 262.228 66.897L264.132 66.283C263.661 64.8231 263.16 63.3734 262.628 61.9337L260.752 62.6263ZM262.227 66.8932C262.876 68.9333 262.55 70.5965 261.732 71.8546C260.897 73.1389 259.494 74.0806 257.88 74.5216C254.64 75.4068 250.925 74.2245 249.673 70.2869L247.767 70.8931C249.425 76.1055 254.41 77.5432 258.407 76.4509C260.412 75.9031 262.263 74.7067 263.408 72.945C264.571 71.1572 264.954 68.8667 264.133 66.2868L262.227 66.8932ZM249.669 70.2737L249.599 70.0637L247.701 70.6963L247.771 70.9063L249.669 70.2737ZM247.658 70.5084C247.862 72.0837 248.572 73.5503 249.68 74.688L251.113 73.2923C250.306 72.4646 249.79 71.3976 249.642 70.2516L247.658 70.5084ZM249.68 74.688C250.789 75.8257 252.236 76.5731 253.806 76.818L254.114 74.842C252.972 74.6638 251.919 74.12 251.113 73.2923L249.68 74.688ZM253.75 76.8077C275.822 81.5445 293.563 99.8537 295.433 122.722L297.427 122.558C295.477 98.7263 277.018 79.7555 254.17 74.8523L253.75 76.8077ZM295.433 122.721C296.265 132.969 294.107 143.239 289.22 152.285L290.98 153.235C296.051 143.849 298.29 133.193 297.427 122.559L295.433 122.721ZM289.539 153.588C293.717 156.419 297.325 160.01 300.175 164.175L301.825 163.045C298.833 158.674 295.046 154.904 290.661 151.932L289.539 153.588ZM301.845 164.144C307.488 155.218 311.03 145.126 312.204 134.631L310.216 134.409C309.076 144.603 305.635 154.405 300.155 163.076L301.845 164.144ZM312.204 134.631C315.25 107.471 300.729 80.1509 276.725 67.2098L275.775 68.9702C299.071 81.5291 313.17 108.069 310.216 134.409L312.204 134.631ZM247.701 70.6762L247.771 70.8863L249.669 70.2538L249.599 70.0438L247.701 70.6762ZM247.767 70.8737C249.43 76.0893 254.413 77.5311 258.411 76.4384C260.416 75.8905 262.265 74.6932 263.41 72.9301C264.572 71.141 264.954 68.849 264.133 66.2671L262.227 66.8729C262.876 68.916 262.551 70.5816 261.733 71.8409C260.898 73.1262 259.497 74.0683 257.884 74.5091C254.647 75.3939 250.93 74.2107 249.673 70.2663L247.767 70.8737ZM264.133 66.2682C263.668 64.7982 263.166 63.3449 262.626 61.9084L260.754 62.6116C261.281 64.0151 261.772 65.4351 262.227 66.8718L264.133 66.2682ZM261.954 61.2956C260.704 60.9528 259.435 60.6276 258.15 60.3522L257.73 62.3078C258.965 62.5724 260.196 62.8872 261.426 63.2244L261.954 61.2956ZM258.152 60.3528C254.711 59.6049 251.868 60.8432 250.009 62.9299C248.181 64.9825 247.293 67.864 247.66 70.4979L249.64 70.2221C249.357 68.186 250.054 65.8875 251.503 64.2601C252.922 62.6668 255.049 61.7251 257.728 62.3072L258.152 60.3528ZM283.552 144.263C276.028 120.942 256.239 102.243 231.679 98.0443L231.342 100.016C255.101 104.077 274.332 122.198 281.648 144.877L283.552 144.263ZM231.679 98.0443C204.916 93.4671 178.82 104.84 163.564 127.166L165.216 128.294C180.04 106.6 205.364 95.5729 231.341 100.016L231.679 98.0443ZM164.767 128.656L173.237 125.206L172.483 123.354L164.013 126.804L164.767 128.656ZM173.155 123.324C163.474 120.339 153.186 119.911 143.291 122.082L143.72 124.036C153.277 121.938 163.215 122.352 172.565 125.236L173.155 123.324ZM143.291 122.082C133.396 124.254 124.233 128.951 116.692 135.716L118.028 137.204C125.311 130.67 134.162 126.133 143.72 124.036L143.291 122.082ZM116.691 135.717C102.236 148.725 95.7446 168.477 98.5809 187.517L100.559 187.223C97.8154 168.803 104.104 149.735 118.029 137.203L116.691 135.717ZM98.5823 187.526C100.003 196.497 103.516 205.006 108.837 212.366L110.458 211.194C105.321 204.089 101.929 195.874 100.558 187.214L98.5823 187.526ZM108.837 212.366C114.159 219.726 121.139 225.729 129.212 229.889L130.128 228.111C122.334 224.095 115.595 218.3 110.458 211.194L108.837 212.366ZM129.22 229.893C139.183 234.921 149.588 236.29 160.45 236.29V234.29C149.752 234.29 139.697 232.939 130.121 228.107L129.22 229.893ZM160.45 236.29H258.91V234.29H160.45V236.29ZM258.91 236.29C267.259 236.29 275.729 236.401 283.969 233.337L283.271 231.463C275.431 234.379 267.341 234.29 258.91 234.29V236.29ZM283.969 233.337C303.775 225.974 317.384 206.605 316.679 185.277L314.681 185.343C315.356 205.775 302.306 224.386 283.272 231.463L283.969 233.337ZM316.679 185.271C316.252 174.232 312.187 163.644 305.117 155.155L303.58 156.435C310.367 164.585 314.27 174.75 314.681 185.349L316.679 185.271ZM305.117 155.155C298.047 146.666 288.369 140.752 277.589 138.334L277.151 140.286C287.501 142.607 296.792 148.284 303.58 156.435L305.117 155.155ZM277.586 138.334C272.235 137.151 268.451 140.72 267.345 144.713C266.791 146.715 266.872 148.912 267.802 150.785C268.746 152.687 270.521 154.165 273.154 154.746L273.586 152.794C271.509 152.335 270.253 151.225 269.593 149.896C268.92 148.538 268.826 146.86 269.272 145.247C270.169 142.01 273.095 139.389 277.154 140.286L277.586 138.334ZM273.155 154.746C287.763 157.97 299.158 170.104 299.671 185.334L301.669 185.266C301.122 169.016 288.977 156.19 273.586 152.793L273.155 154.746ZM299.671 185.334C300.147 199.438 291.487 212.747 278.061 217.426L278.719 219.314C293.013 214.333 302.174 200.202 301.669 185.266L299.671 185.334ZM278.061 217.426C272.196 219.468 266.318 219.28 259.98 219.28V221.28C266.202 221.28 272.465 221.492 278.719 219.314L278.061 217.426ZM259.98 219.28H169.51V221.28H259.98V219.28ZM169.51 219.28C164.895 219.28 160.315 219.33 155.721 219.28L155.699 221.28C160.305 221.33 164.925 221.28 169.51 221.28V219.28ZM155.709 219.28C148.225 219.29 140.883 217.245 134.482 213.366L133.446 215.077C140.159 219.145 147.861 221.291 155.711 221.28L155.709 219.28ZM134.482 213.366C128.082 209.488 122.87 203.926 119.416 197.288L117.641 198.211C121.265 205.175 126.732 211.009 133.446 215.077L134.482 213.366ZM119.416 197.288C115.961 190.649 114.396 183.19 114.892 175.723L112.897 175.59C112.376 183.423 114.018 191.248 117.641 198.211L119.416 197.288ZM114.892 175.723C115.388 168.255 117.926 161.068 122.228 154.945L120.592 153.795C116.079 160.218 113.417 167.757 112.897 175.59L114.892 175.723ZM122.234 154.936C132.492 140.003 151.49 134.441 168.587 139.686L169.173 137.774C151.33 132.299 131.388 138.077 120.586 153.804L122.234 154.936ZM168.594 139.688C172.472 140.846 176.154 138.817 178.177 135.842L176.523 134.718C174.846 137.183 171.988 138.614 169.166 137.772L168.594 139.688ZM178.175 135.844C189.23 119.679 209.387 110.922 228.728 114.711L229.112 112.749C208.953 108.798 188.01 117.921 176.525 134.716L178.175 135.844ZM228.728 114.711C237.602 116.447 245.849 120.528 252.613 126.529L253.94 125.033C246.909 118.794 238.336 114.553 229.112 112.749L228.728 114.711ZM252.613 126.529C259.376 132.53 264.409 140.233 267.188 148.837L269.092 148.223C266.203 139.278 260.971 131.271 253.94 125.033L252.613 126.529ZM267.188 148.836C268.866 154.058 273.853 155.506 277.852 154.419C279.857 153.874 281.706 152.679 282.848 150.918C284.006 149.13 284.381 146.841 283.552 144.264L281.648 144.876C282.304 146.914 281.983 148.575 281.169 149.83C280.339 151.111 278.94 152.05 277.328 152.489C274.092 153.369 270.364 152.182 269.092 148.224L267.188 148.836Z" fill="white" mask="url(#path-1-inside-1)"/>
</svg>
