<svg width="342" height="320" viewBox="0 0 342 320" fill="none" xmlns="http://www.w3.org/2000/svg">
<path d="M92.23 200.58C86.7503 188.402 84.29 175.082 85.0577 161.75C85.8254 148.418 89.7986 135.468 96.64 124C114.18 95.05 149.12 79.4 182.4 86.14C198.86 89.5408 213.892 97.8791 225.491 110.043C237.09 122.206 244.705 137.617 247.32 154.22C252.851 156.021 258.164 158.432 263.16 161.41C262.027 142.409 255.384 124.149 244.043 108.86C232.703 93.5721 217.155 81.9174 199.3 75.32C161.61 61.5 117.4 73.7 92.03 104.75C67.03 135.35 62.77 179.05 82.03 213.55C84.8889 208.827 88.3143 204.472 92.23 200.58Z" fill="white"/>
<path d="M174.07 41.54V7.88999C174.07 -1.76001 159.07 -1.78001 159.07 7.88999V41.54C159.07 51.19 174.07 51.21 174.07 41.54Z" fill="white"/>
<path d="M97.66 62.05C102.49 70.41 115.45 62.86 110.66 54.48L93.83 25.33C89 16.97 76.04 24.52 80.83 32.9L97.66 62.05Z" fill="white"/>
<path d="M62.22 97.49L33.07 80.66C24.7 75.82 17.13 88.78 25.5 93.66L54.65 110.49C63 115.28 70.59 102.32 62.22 97.49Z" fill="white"/>
<path d="M8.06 173.9H41.71C51.36 173.9 51.38 158.9 41.71 158.9H8.06C-1.6 158.9 -1.61 173.9 8.06 173.9Z" fill="white"/>
<path d="M33.08 252.13L62.23 235.3C70.59 230.47 63.04 217.51 54.66 222.3L25.51 239.13C17.15 244 24.69 257 33.08 252.13Z" fill="white"/>
<path d="M291.42 173.9H325.07C334.72 173.9 334.74 158.9 325.07 158.9H291.42C281.77 158.9 281.75 173.9 291.42 173.9Z" fill="white"/>
<path d="M278.48 110.44L307.63 93.61C315.99 88.78 308.44 75.82 300.06 80.61L270.91 97.44C262.55 102.32 270.1 115.28 278.48 110.44Z" fill="white"/>
<path d="M235.47 62.05L252.3 32.9C257.14 24.53 244.18 16.96 239.3 25.33L222.47 54.48C217.68 62.86 230.64 70.42 235.47 62.05Z" fill="white"/>
<path d="M298.25 203.37C298.79 204.78 299.3 206.21 299.76 207.66C300.215 208.978 300.271 210.401 299.92 211.75C311.349 215.916 320.945 223.976 327.023 234.513C333.101 245.051 335.273 257.393 333.157 269.372C331.04 281.351 324.772 292.202 315.452 300.02C306.131 307.837 294.355 312.121 282.19 312.12H141.54C130.809 312.121 120.261 309.346 110.919 304.067C101.577 298.787 93.7585 291.182 88.2235 281.989C82.6886 272.795 79.6249 262.327 79.3299 251.601C79.0349 240.874 81.5186 230.253 86.54 220.77C85.54 219.33 84.59 217.87 83.68 216.37C83.12 215.44 82.58 214.5 82.06 213.56C73.4197 227.971 70.1505 244.972 72.83 261.56C74.6995 272.556 79.1785 282.942 85.8913 291.849C92.6041 300.756 101.355 307.924 111.41 312.75C123.09 318.22 135.19 319.61 147.86 319.61H271.31C281.11 319.61 290.81 319.89 300.31 316.79C324.94 308.73 342.16 284.96 341.44 258.92C341.017 246.29 336.613 234.116 328.856 224.139C321.099 214.162 310.387 206.893 298.25 203.37Z" fill="white"/>
<path d="M141.54 187.65C148.051 187.639 154.523 188.652 160.72 190.65C169.962 176.748 183.647 166.394 199.538 161.278C215.428 156.163 232.584 156.59 248.2 162.49C248.044 159.713 247.747 156.946 247.31 154.2C243.937 153.108 240.492 152.252 237 151.64C222.274 149.04 207.119 150.503 193.162 155.871C179.206 161.24 166.977 170.311 157.79 182.11C159.46 182.49 161.11 182.93 162.79 183.44L154.32 186.89C155.44 185.25 156.607 183.657 157.82 182.11C146.551 179.482 134.809 179.667 123.628 182.649C112.448 185.631 102.173 191.319 93.71 199.21C93.23 199.66 92.71 200.12 92.29 200.59C93.3802 203.003 94.5917 205.359 95.92 207.65C101.73 201.346 108.783 196.314 116.635 192.871C124.487 189.429 132.967 187.651 141.54 187.65Z" fill="white"/>
<path d="M162.72 183.44C161.07 182.93 159.42 182.49 157.72 182.11C156.507 183.657 155.34 185.25 154.22 186.89L162.72 183.44Z" fill="white"/>
<path d="M263.22 170.28C275.103 178.286 284.406 189.569 290 202.76C291.434 202.179 293.013 202.057 294.52 202.41C295.78 202.68 297.02 203.01 298.25 203.41C291.589 185.871 279.227 171.079 263.15 161.41C263.25 163.06 263.32 164.72 263.33 166.41C263.32 167.7 263.28 169 263.22 170.28Z" fill="white"/>
<path d="M290 202.76C290.958 205.013 291.803 207.312 292.53 209.65C295.042 210.164 297.513 210.866 299.92 211.75C300.271 210.401 300.215 208.978 299.76 207.66C299.3 206.21 298.76 204.79 298.25 203.37C297.02 203.02 295.78 202.69 294.52 202.37C293.009 202.03 291.43 202.166 290 202.76Z" fill="white"/>
<path d="M263.33 166.4C263.39 158.11 252.33 156.94 249.18 162.9C253.872 164.767 258.359 167.112 262.57 169.9C263.105 168.813 263.365 167.611 263.33 166.4Z" fill="white"/>
<path d="M263.22 170.28C263.28 168.99 263.33 167.69 263.34 166.39C263.366 167.589 263.102 168.776 262.57 169.85L263.22 170.28Z" fill="white"/>
<path d="M86.54 220.77C89.0662 216.009 92.199 211.596 95.86 207.64C94.5317 205.349 93.3202 202.993 92.23 200.58C88.3229 204.483 84.9076 208.848 82.06 213.58C82.59 214.52 83.12 215.46 83.68 216.39C84.59 217.87 85.56 219.33 86.54 220.77Z" fill="white"/>
<path d="M248.21 162.51L249.21 162.89C252.38 156.89 263.43 158.1 263.36 166.39C263.36 164.72 263.28 163.06 263.18 161.39C258.184 158.412 252.871 156.001 247.34 154.2C247.771 156.953 248.061 159.727 248.21 162.51Z" fill="white"/>
<path d="M158.73 197.91C162.07 198.91 165.36 197.17 167.2 194.46C181.85 172.92 208.62 161.32 234.35 166.36C239.099 167.292 243.733 168.737 248.17 170.67C248.26 169.25 248.32 167.83 248.33 166.4C248.34 164.97 248.27 163.8 248.2 162.52C232.584 156.62 215.428 156.193 199.538 161.308C183.647 166.424 169.962 176.778 160.72 190.68C149.413 187.024 137.295 186.682 125.799 189.694C114.304 192.707 103.911 198.948 95.85 207.68C97.14 209.89 98.55 212.04 100.07 214.13C114.47 197.39 137.64 191.4 158.73 197.91Z" fill="white"/>
<path d="M290 202.76C288.381 203.506 287.043 204.752 286.185 206.314C285.326 207.877 284.992 209.673 285.23 211.44L285.3 211.64C287.75 219.29 298.25 217.82 299.93 211.74C297.523 210.856 295.052 210.154 292.54 209.64C291.809 207.306 290.961 205.009 290 202.76Z" fill="white"/>
<path d="M285.3 211.64L285.23 211.44C285.41 212.798 286.024 214.062 286.981 215.042C287.938 216.023 289.187 216.667 290.54 216.88C309.93 221.09 325.26 237.27 326.36 257.49C327.36 276.55 316.16 294.77 298.18 301.66C290.06 304.77 281.93 304.61 273.46 304.61H158C152.52 304.61 147 304.66 141.55 304.61C132.412 304.624 123.416 302.348 115.384 297.991C107.351 293.634 100.538 287.335 95.5661 279.668C90.5941 272.001 87.6216 263.211 86.9201 254.1C86.2185 244.989 87.8103 235.848 91.55 227.51C89.77 225.35 88.0833 223.103 86.49 220.77C81.4686 230.253 78.9849 240.874 79.2799 251.601C79.5748 262.327 82.6386 272.795 88.1735 281.989C93.7085 291.182 101.527 298.787 110.869 304.067C120.211 309.346 130.759 312.121 141.49 312.12H282.19C294.355 312.121 306.131 307.837 315.452 300.02C324.772 292.202 331.04 281.351 333.157 269.372C335.273 257.393 333.101 245.051 327.023 234.513C320.945 223.976 311.349 215.916 299.92 211.75C298.25 217.82 287.75 219.3 285.3 211.64Z" fill="white"/>
<path d="M285.24 211.45C285.002 209.683 285.336 207.887 286.195 206.324C287.053 204.762 288.391 203.516 290.01 202.77C284.413 189.578 275.107 178.294 263.22 170.29C263.08 173.237 262.807 176.16 262.4 179.06C273.112 187.3 281.076 198.593 285.24 211.45Z" fill="white"/>
<path d="M250.75 171.85C251.723 172.323 252.683 172.817 253.63 173.33C256.97 174.24 260.93 173.08 262.56 169.85C258.349 167.062 253.862 164.717 249.17 162.85C248.606 163.93 248.314 165.132 248.32 166.35C248.291 167.39 248.494 168.423 248.914 169.374C249.335 170.326 249.962 171.171 250.75 171.85Z" fill="white"/>
<path d="M97.64 217.12C98.42 216.07 99.24 215.06 100.08 214.12C98.56 212.03 97.15 209.88 95.86 207.67C92.199 211.626 89.0662 216.039 86.54 220.8C88.1333 223.133 89.82 225.38 91.6 227.54C93.2185 223.852 95.2444 220.357 97.64 217.12Z" fill="white"/>
<path d="M248.33 166.4C248.33 167.83 248.26 169.25 248.17 170.67C249.037 171.05 249.893 171.443 250.74 171.85C249.962 171.175 249.343 170.336 248.926 169.394C248.51 168.452 248.306 167.43 248.33 166.4Z" fill="white"/>
<path d="M249.18 162.89L248.18 162.51C248.25 163.8 248.3 165.09 248.31 166.39C248.31 165.17 248.609 163.968 249.18 162.89Z" fill="white"/>
<path d="M253.63 173.33C256.694 175.006 259.623 176.919 262.39 179.05C262.797 176.157 263.07 173.233 263.21 170.28L262.56 169.85C260.93 173.09 257 174.24 253.63 173.33Z" fill="white"/>
</svg>
