<svg width="10" height="24" viewBox="0 0 10 24" fill="none" xmlns="http://www.w3.org/2000/svg">
<path d="M2.98059 15.3516L2.98059 3.43821C2.98059 3.19091 2.97552 2.9436 2.98059 2.6973C3.00593 1.55705 4.1923 0.734547 5.26008 1.22055C6.41908 1.74811 6.21384 3.06624 6.21384 4.10615L6.21384 15.1053C6.21384 15.1853 6.20674 15.2685 6.21384 15.3475C6.2407 15.6551 6.43479 15.7712 6.66436 15.9389C6.94384 16.1407 7.19196 16.3827 7.40071 16.657C8.18876 17.6934 8.34586 19.1519 7.76103 20.3216C7.21118 21.4218 6.10336 22.2194 4.86175 22.2985C3.65511 22.375 2.45708 21.847 1.74455 20.8547C1.00111 19.8173 0.856171 18.4064 1.4268 17.255C1.71555 16.6695 2.15781 16.1733 2.70642 15.8193C3.28466 15.4438 2.7571 14.5078 2.17633 14.8838C0.792317 15.7793 -0.0763016 17.329 0.00528935 18.9968C0.0448824 19.73 0.257231 20.4435 0.625017 21.079C0.992801 21.7145 1.5056 22.2541 2.1216 22.6537C3.39868 23.4859 5.04824 23.5918 6.43783 22.9897C7.81272 22.3943 8.86581 21.0807 9.11819 19.5999C9.43543 17.7329 8.60127 15.9065 7.0186 14.8833L7.29074 15.3511L7.28872 3.04951C7.29546 2.80518 7.2853 2.56066 7.25831 2.31772C7.18321 1.80427 6.96244 1.32312 6.6222 0.931313C6.28195 0.539509 5.83649 0.253486 5.33863 0.107155C3.57909 -0.406719 1.91635 1.00061 1.90571 2.77079C1.89355 4.81919 1.90571 6.86758 1.90571 8.91599C1.90571 11.0211 1.86365 13.1309 1.90571 15.2345C1.90622 15.2735 1.90571 15.3125 1.90571 15.3511C1.9052 16.0438 2.98059 16.0438 2.98059 15.3516Z" fill="white"/>
<path d="M4.0433 16.395L4.04432 2.69679C4.04434 2.5499 4.10271 2.40902 4.20658 2.30515C4.31045 2.20128 4.45133 2.14291 4.59823 2.14288C4.74512 2.14291 4.886 2.20128 4.98987 2.30515C5.09374 2.40902 5.15211 2.5499 5.15213 2.69679L5.15112 16.395C5.73852 16.531 6.25534 16.8784 6.60308 17.371C6.95083 17.8636 7.10518 18.4668 7.03673 19.0659C6.96828 19.6649 6.68181 20.2178 6.23191 20.6193C5.78202 21.0207 5.20015 21.2425 4.59721 21.2425C3.99427 21.2425 3.41241 21.0207 2.96251 20.6193C2.51262 20.2178 2.22614 19.6649 2.15769 19.0659C2.08924 18.4668 2.2436 17.8636 2.59134 17.371C2.93908 16.8784 3.4559 16.531 4.0433 16.395Z" fill="white"/>
</svg>
