<svg width="17" height="19" viewBox="0 0 17 19" fill="none" xmlns="http://www.w3.org/2000/svg">
<path d="M17 11.7313C17 11.7313 17.0358 20.6299 13.2713 18.7354C9.70348 16.9399 17 11.7313 17 11.7313Z" fill="white"/>
<path d="M10.4592 12.118C10.4592 12.118 10.4906 19.7129 7.27686 18.0957C4.23167 16.5634 10.4592 12.118 10.4592 12.118Z" fill="white"/>
<path d="M13.1388 9.0898C10.094 7.5579 16.3195 3.11207 16.3195 3.11207C16.3195 3.11207 16.3514 10.7069 13.1388 9.0898Z" fill="white"/>
<path d="M4.27406 9.00601C4.27406 9.00601 4.30694 16.6009 1.09228 14.9837C-1.952 13.4518 4.27406 9.00601 4.27406 9.00601Z" fill="white"/>
<path d="M10.1364 0C10.1364 0 10.1672 7.59487 6.95458 5.97773C3.90933 4.44533 10.1364 0 10.1364 0Z" fill="white"/>
<path d="M8.33207 10.907C6.10975 9.78895 10.6545 6.54386 10.6545 6.54386C10.6545 6.54386 10.6774 12.088 8.33207 10.907Z" fill="white"/>
<path d="M0.612007 8.63204C-1.61031 7.51407 2.93445 4.26892 2.93445 4.26892C2.93445 4.26892 2.95738 9.81309 0.612007 8.63204Z" fill="white"/>
</svg>
