<svg width="270" height="202" viewBox="0 0 270 202" fill="none" xmlns="http://www.w3.org/2000/svg">
<mask id="path-1-inside-1" fill="white">
<path d="M210.218 169.208C224.687 169.055 238.611 163.671 249.417 154.05C260.224 144.429 267.183 131.221 269.008 116.868C272.708 86.8679 252.008 58.3979 222.548 52.0079L227.788 57.2479C218.718 28.8579 194.618 6.43791 164.978 1.24791C149.26 -1.51914 133.077 0.338087 118.394 6.59393C103.711 12.8498 91.161 23.235 82.2684 36.4879L90.7384 33.0379C59.3384 23.3479 24.3884 36.8079 8.47838 65.8079C-6.68162 93.4579 -1.14162 129.178 22.1384 150.598C35.0943 162.461 51.9922 169.092 69.5584 169.208C79.2184 169.318 79.2184 154.318 69.5584 154.208C45.0584 153.938 23.1984 137.608 16.7184 113.808C13.6308 102.123 14.4621 89.7479 19.0846 78.581C23.707 67.414 31.8655 58.0719 42.3084 51.9879C55.8884 44.1579 71.8484 42.8979 86.7384 47.4979C90.0784 48.4979 93.3684 46.7579 95.2084 44.0479C109.848 22.5079 136.628 10.9079 162.358 15.9479C174.124 18.2521 185.058 23.6692 194.019 31.6348C202.98 39.6003 209.641 49.823 213.308 61.2379C213.657 62.4886 214.322 63.6281 215.24 64.5461C216.158 65.4641 217.298 66.1295 218.548 66.4779C241.078 71.3679 257.048 92.2279 254.158 115.478C251.418 137.568 232.158 153.888 210.158 154.178C200.518 154.308 200.488 169.308 210.158 169.178L210.218 169.208Z"/>
<path d="M104.848 148.758L97.4784 129.558C96.0284 125.778 92.4784 123.168 88.2484 124.318C84.6384 125.318 81.5484 129.738 83.0084 133.548L90.3784 152.748C91.8284 156.528 95.3784 159.138 99.6084 157.988C103.218 156.988 106.308 152.568 104.848 148.758Z"/>
<path d="M121.318 191.638L113.948 172.438C112.498 168.658 108.948 166.048 104.718 167.198C101.108 168.198 98.0184 172.618 99.4784 176.428L106.848 195.628C108.298 199.408 111.848 202.018 116.078 200.868C119.688 199.868 122.778 195.448 121.318 191.638Z"/>
<path d="M142.808 148.758L135.438 129.558C133.988 125.778 130.438 123.168 126.208 124.318C122.598 125.318 119.508 129.738 120.968 133.548L128.338 152.748C129.788 156.528 133.338 159.138 137.568 157.988C141.178 156.988 144.268 152.568 142.808 148.758Z"/>
<path d="M159.278 191.638L151.908 172.438C150.458 168.658 146.908 166.048 142.678 167.198C139.068 168.198 135.978 172.618 137.438 176.428L144.808 195.628C146.258 199.408 149.808 202.018 154.038 200.868C157.648 199.868 160.738 195.448 159.278 191.638Z"/>
<path d="M180.768 148.758L173.398 129.558C171.948 125.778 168.398 123.168 164.168 124.318C160.558 125.318 157.468 129.738 158.928 133.548L166.298 152.748C167.748 156.528 171.298 159.138 175.528 157.988C179.138 156.988 182.228 152.568 180.768 148.758Z"/>
<path d="M197.238 191.638L189.868 172.438C188.418 168.658 184.868 166.048 180.638 167.198C177.028 168.198 173.938 172.618 175.398 176.428L182.768 195.628C184.218 199.408 187.768 202.018 191.998 200.868C195.608 199.868 198.698 195.448 197.238 191.638Z"/>
</mask>
<path d="M210.218 169.208C224.687 169.055 238.611 163.671 249.417 154.05C260.224 144.429 267.183 131.221 269.008 116.868C272.708 86.8679 252.008 58.3979 222.548 52.0079L227.788 57.2479C218.718 28.8579 194.618 6.43791 164.978 1.24791C149.26 -1.51914 133.077 0.338087 118.394 6.59393C103.711 12.8498 91.161 23.235 82.2684 36.4879L90.7384 33.0379C59.3384 23.3479 24.3884 36.8079 8.47838 65.8079C-6.68162 93.4579 -1.14162 129.178 22.1384 150.598C35.0943 162.461 51.9922 169.092 69.5584 169.208C79.2184 169.318 79.2184 154.318 69.5584 154.208C45.0584 153.938 23.1984 137.608 16.7184 113.808C13.6308 102.123 14.4621 89.7479 19.0846 78.581C23.707 67.414 31.8655 58.0719 42.3084 51.9879C55.8884 44.1579 71.8484 42.8979 86.7384 47.4979C90.0784 48.4979 93.3684 46.7579 95.2084 44.0479C109.848 22.5079 136.628 10.9079 162.358 15.9479C174.124 18.2521 185.058 23.6692 194.019 31.6348C202.98 39.6003 209.641 49.823 213.308 61.2379C213.657 62.4886 214.322 63.6281 215.24 64.5461C216.158 65.4641 217.298 66.1295 218.548 66.4779C241.078 71.3679 257.048 92.2279 254.158 115.478C251.418 137.568 232.158 153.888 210.158 154.178C200.518 154.308 200.488 169.308 210.158 169.178L210.218 169.208Z" fill="white"/>
<path d="M104.848 148.758L97.4784 129.558C96.0284 125.778 92.4784 123.168 88.2484 124.318C84.6384 125.318 81.5484 129.738 83.0084 133.548L90.3784 152.748C91.8284 156.528 95.3784 159.138 99.6084 157.988C103.218 156.988 106.308 152.568 104.848 148.758Z" fill="white"/>
<path d="M121.318 191.638L113.948 172.438C112.498 168.658 108.948 166.048 104.718 167.198C101.108 168.198 98.0184 172.618 99.4784 176.428L106.848 195.628C108.298 199.408 111.848 202.018 116.078 200.868C119.688 199.868 122.778 195.448 121.318 191.638Z" fill="white"/>
<path d="M142.808 148.758L135.438 129.558C133.988 125.778 130.438 123.168 126.208 124.318C122.598 125.318 119.508 129.738 120.968 133.548L128.338 152.748C129.788 156.528 133.338 159.138 137.568 157.988C141.178 156.988 144.268 152.568 142.808 148.758Z" fill="white"/>
<path d="M159.278 191.638L151.908 172.438C150.458 168.658 146.908 166.048 142.678 167.198C139.068 168.198 135.978 172.618 137.438 176.428L144.808 195.628C146.258 199.408 149.808 202.018 154.038 200.868C157.648 199.868 160.738 195.448 159.278 191.638Z" fill="white"/>
<path d="M180.768 148.758L173.398 129.558C171.948 125.778 168.398 123.168 164.168 124.318C160.558 125.318 157.468 129.738 158.928 133.548L166.298 152.748C167.748 156.528 171.298 159.138 175.528 157.988C179.138 156.988 182.228 152.568 180.768 148.758Z" fill="white"/>
<path d="M197.238 191.638L189.868 172.438C188.418 168.658 184.868 166.048 180.638 167.198C177.028 168.198 173.938 172.618 175.398 176.428L182.768 195.628C184.218 199.408 187.768 202.018 191.998 200.868C195.608 199.868 198.698 195.448 197.238 191.638Z" fill="white"/>
<path d="M98.0852 150.569L90.7152 131.369L89.7816 131.727L97.1516 150.927L98.0852 150.569ZM114.555 193.449L107.175 174.249L106.242 174.607L113.622 193.807L114.555 193.449ZM136.045 150.569L128.675 131.369L127.742 131.727L135.112 150.927L136.045 150.569ZM152.515 193.449L145.135 174.249L144.202 174.607L151.582 193.807L152.515 193.449ZM174.005 150.569L166.635 131.369L165.702 131.727L173.072 150.927L174.005 150.569ZM190.475 193.449L183.105 174.249L182.172 174.607L189.542 193.807L190.475 193.449ZM210.218 169.208L209.771 170.102L209.987 170.21L210.229 170.208L210.218 169.208ZM269.008 116.868L270 116.994L270.001 116.99L269.008 116.868ZM222.548 52.0079L222.76 51.0306L219.436 50.3095L221.841 52.715L222.548 52.0079ZM227.788 57.2479L227.081 57.955L228.741 56.9436L227.788 57.2479ZM164.978 1.24791L164.805 2.23276L164.806 2.23292L164.978 1.24791ZM82.2684 36.4879L81.438 35.9307L79.6142 38.6488L82.6456 37.414L82.2684 36.4879ZM90.7384 33.0379L91.1156 33.964L93.7084 32.9079L91.0332 32.0824L90.7384 33.0379ZM8.47838 65.8079L7.60166 65.3269L7.60153 65.3272L8.47838 65.8079ZM22.1384 150.598L21.4613 151.334L21.4631 151.335L22.1384 150.598ZM69.5584 169.208L69.5698 168.208L69.565 168.208L69.5584 169.208ZM69.5584 154.208L69.5698 153.208L69.5694 153.208L69.5584 154.208ZM16.7184 113.808L15.7515 114.063L15.7535 114.071L16.7184 113.808ZM42.3084 51.9879L41.8089 51.1216L41.805 51.1239L42.3084 51.9879ZM86.7384 47.4979L86.4432 48.4534L86.4516 48.4559L86.7384 47.4979ZM95.2084 44.0479L94.3813 43.4858L94.3811 43.4862L95.2084 44.0479ZM162.358 15.9479L162.166 16.9293L162.166 16.9293L162.358 15.9479ZM213.308 61.2379L214.272 60.9696L214.266 60.9507L214.26 60.932L213.308 61.2379ZM218.548 66.4779L218.28 67.4412L218.308 67.449L218.336 67.4552L218.548 66.4779ZM254.158 115.478L253.166 115.355L253.166 115.355L254.158 115.478ZM210.158 154.178L210.145 153.178L210.145 153.178L210.158 154.178ZM210.158 169.178L210.606 168.283L210.388 168.175L210.145 168.178L210.158 169.178ZM104.848 148.758L105.782 148.4L105.782 148.4L104.848 148.758ZM97.4784 129.558L96.5447 129.916L96.5448 129.916L97.4784 129.558ZM88.2484 124.318L87.986 123.353L87.9814 123.354L88.2484 124.318ZM83.0084 133.548L82.0746 133.906L82.0748 133.906L83.0084 133.548ZM90.3784 152.748L91.312 152.39L91.3119 152.39L90.3784 152.748ZM99.6084 157.988L99.8707 158.953L99.8753 158.952L99.6084 157.988ZM121.318 191.638L122.252 191.28L122.252 191.28L121.318 191.638ZM113.948 172.438L113.015 172.796L113.015 172.796L113.948 172.438ZM104.718 167.198L104.456 166.233L104.451 166.234L104.718 167.198ZM99.4784 176.428L98.5446 176.786L98.5448 176.786L99.4784 176.428ZM106.848 195.628L107.782 195.27L107.782 195.27L106.848 195.628ZM116.078 200.868L116.341 201.833L116.345 201.832L116.078 200.868ZM142.808 148.758L143.742 148.4L143.742 148.4L142.808 148.758ZM135.438 129.558L134.505 129.916L134.505 129.916L135.438 129.558ZM126.208 124.318L125.946 123.353L125.941 123.354L126.208 124.318ZM120.968 133.548L120.035 133.906L120.035 133.906L120.968 133.548ZM128.338 152.748L129.272 152.39L129.272 152.39L128.338 152.748ZM137.568 157.988L137.831 158.953L137.835 158.952L137.568 157.988ZM159.278 191.638L160.212 191.28L160.212 191.28L159.278 191.638ZM151.908 172.438L150.975 172.796L150.975 172.796L151.908 172.438ZM142.678 167.198L142.416 166.233L142.411 166.234L142.678 167.198ZM137.438 176.428L136.505 176.786L136.505 176.786L137.438 176.428ZM144.808 195.628L145.742 195.27L145.742 195.27L144.808 195.628ZM154.038 200.868L154.301 201.833L154.305 201.832L154.038 200.868ZM180.768 148.758L181.702 148.4L181.702 148.4L180.768 148.758ZM173.398 129.558L172.465 129.916L172.465 129.916L173.398 129.558ZM164.168 124.318L163.906 123.353L163.901 123.354L164.168 124.318ZM158.928 133.548L157.995 133.906L157.995 133.906L158.928 133.548ZM166.298 152.748L167.232 152.39L167.232 152.39L166.298 152.748ZM175.528 157.988L175.791 158.953L175.795 158.952L175.528 157.988ZM197.238 191.638L198.172 191.28L198.172 191.28L197.238 191.638ZM189.868 172.438L188.935 172.796L188.935 172.796L189.868 172.438ZM180.638 167.198L180.376 166.233L180.371 166.234L180.638 167.198ZM175.398 176.428L174.465 176.786L174.465 176.786L175.398 176.428ZM182.768 195.628L183.702 195.27L183.702 195.27L182.768 195.628ZM191.998 200.868L192.261 201.833L192.265 201.832L191.998 200.868ZM210.229 170.208C224.939 170.053 239.095 164.579 250.082 154.797L248.752 153.303C238.126 162.764 224.434 168.058 210.208 168.208L210.229 170.208ZM250.082 154.797C261.069 145.015 268.145 131.587 270 116.994L268.016 116.742C266.221 130.856 259.379 143.843 248.752 153.303L250.082 154.797ZM270.001 116.99C273.766 86.4655 252.714 57.5278 222.76 51.0306L222.336 52.9852C251.303 59.2681 271.651 87.2704 268.016 116.746L270.001 116.99ZM221.841 52.715L227.081 57.955L228.495 56.5408L223.255 51.3008L221.841 52.715ZM228.741 56.9436C219.566 28.2243 195.182 5.52146 165.151 0.262893L164.806 2.23292C194.054 7.35436 217.871 29.4915 226.836 57.5522L228.741 56.9436ZM165.152 0.263051C149.243 -2.53757 132.863 -0.65781 118.002 5.67395L118.786 7.51391C133.29 1.33398 149.278 -0.500701 164.805 2.23276L165.152 0.263051ZM118.002 5.67395C103.141 12.0057 90.4386 22.517 81.438 35.9307L83.0988 37.0451C91.8835 23.953 104.281 13.6938 118.786 7.51391L118.002 5.67395ZM82.6456 37.414L91.1156 33.964L90.3611 32.1118L81.8911 35.5618L82.6456 37.414ZM91.0332 32.0824C59.1947 22.257 23.7476 35.8969 7.60166 65.3269L9.35511 66.2889C25.0292 37.7189 59.482 24.4388 90.4435 33.9934L91.0332 32.0824ZM7.60153 65.3272C-7.77569 93.3733 -2.16301 129.597 21.4613 151.334L22.8155 149.862C-0.12022 128.759 -5.58755 93.5425 9.35523 66.2887L7.60153 65.3272ZM21.4631 151.335C34.6017 163.366 51.7379 170.091 69.5518 170.208L69.565 168.208C52.2465 168.094 35.5869 161.556 22.8137 149.86L21.4631 151.335ZM69.547 170.208C72.2459 170.239 74.3411 169.203 75.7476 167.581C77.1355 165.981 77.8034 163.869 77.8034 161.79C77.8034 159.711 77.1354 157.59 75.7539 155.966C74.3552 154.321 72.2681 153.239 69.5698 153.208L69.547 155.208C71.6787 155.232 73.2141 156.066 74.2303 157.261C75.2638 158.477 75.8034 160.12 75.8034 161.79C75.8034 163.462 75.2638 165.086 74.2366 166.271C73.2281 167.434 71.7009 168.232 69.5698 168.208L69.547 170.208ZM69.5694 153.208C45.5021 152.943 24.0421 136.9 17.6833 113.545L15.7535 114.071C22.3546 138.316 44.6146 154.933 69.5474 155.208L69.5694 153.208ZM17.6852 113.552C14.6536 102.079 15.4697 89.9282 20.0085 78.9634L18.1606 78.1985C13.4544 89.5677 12.6081 102.167 15.7516 114.063L17.6852 113.552ZM20.0085 78.9634C24.5473 67.9987 32.558 58.8258 42.8118 52.852L41.805 51.1239C31.173 57.3181 22.8668 66.8293 18.1606 78.1985L20.0085 78.9634ZM42.8079 52.8542C56.1262 45.1751 71.7952 43.9281 86.4432 48.4534L87.0335 46.5425C71.9015 41.8677 55.6506 43.1407 41.8089 51.1216L42.8079 52.8542ZM86.4516 48.4559C90.3207 49.6143 94.0226 47.5746 96.0357 44.6096L94.3811 43.4862C92.7142 45.9412 89.8361 47.3815 87.0252 46.5399L86.4516 48.4559ZM96.0354 44.61C110.459 23.3884 136.844 11.9692 162.166 16.9293L162.551 14.9666C136.412 9.84663 109.238 21.6274 94.3813 43.4858L96.0354 44.61ZM162.166 16.9293C173.757 19.1991 184.527 24.5354 193.354 32.3822L194.683 30.8874C185.588 22.803 174.492 17.3052 162.551 14.9666L162.166 16.9293ZM193.354 32.3822C202.182 40.2289 208.743 50.2991 212.356 61.5438L214.26 60.932C210.538 49.3469 203.778 38.9717 194.683 30.8874L193.354 32.3822ZM212.345 61.5063C212.74 62.9228 213.493 64.2134 214.533 65.2532L215.947 63.839C215.151 63.0427 214.574 62.0543 214.272 60.9696L212.345 61.5063ZM214.533 65.2532C215.573 66.293 216.863 67.0466 218.28 67.4412L218.817 65.5146C217.732 65.2124 216.744 64.6352 215.947 63.839L214.533 65.2532ZM218.336 67.4552C240.395 72.2429 255.988 92.6522 253.166 115.355L255.151 115.601C258.109 91.8036 241.762 70.493 218.76 65.5007L218.336 67.4552ZM253.166 115.355C250.491 136.924 231.671 152.894 210.145 153.178L210.172 155.178C232.645 154.882 252.346 138.212 255.151 115.601L253.166 115.355ZM210.145 153.178C207.451 153.214 205.367 154.301 203.969 155.948C202.589 157.574 201.919 159.695 201.917 161.774C201.915 163.853 202.58 165.964 203.968 167.563C205.374 169.183 207.471 170.214 210.172 170.178L210.145 168.178C208.011 168.207 206.485 167.411 205.478 166.252C204.453 165.071 203.915 163.448 203.917 161.776C203.919 160.105 204.46 158.46 205.494 157.242C206.511 156.043 208.046 155.206 210.172 155.178L210.145 153.178ZM209.711 170.072L209.771 170.102L210.666 168.313L210.606 168.283L209.711 170.072ZM105.782 148.4L98.412 129.2L96.5448 129.916L103.915 149.116L105.782 148.4ZM98.412 129.2C96.8328 125.083 92.8459 122.032 87.986 123.353L88.5107 125.283C92.1109 124.304 95.2239 126.473 96.5447 129.916L98.412 129.2ZM87.9814 123.354C85.8994 123.931 84.0284 125.466 82.8735 127.358C81.7146 129.257 81.2066 131.641 82.0746 133.906L83.9422 133.19C83.3501 131.645 83.6571 129.914 84.5807 128.4C85.5083 126.88 86.9874 125.705 88.5153 125.282L87.9814 123.354ZM82.0748 133.906L89.4448 153.106L91.3119 152.39L83.942 133.19L82.0748 133.906ZM89.4447 153.106C91.0239 157.223 95.0109 160.274 99.8707 158.953L99.346 157.023C95.7459 158.002 92.6328 155.833 91.312 152.39L89.4447 153.106ZM99.8753 158.952C101.957 158.375 103.828 156.84 104.983 154.948C106.142 153.049 106.65 150.665 105.782 148.4L103.915 149.116C104.507 150.661 104.2 152.392 103.276 153.906C102.348 155.426 100.869 156.601 99.3414 157.024L99.8753 158.952ZM122.252 191.28L114.882 172.08L113.015 172.796L120.385 191.996L122.252 191.28ZM114.882 172.08C113.303 167.963 109.316 164.912 104.456 166.233L104.981 168.163C108.581 167.184 111.694 169.353 113.015 172.796L114.882 172.08ZM104.451 166.234C102.369 166.811 100.498 168.346 99.3435 170.238C98.1846 172.137 97.6766 174.521 98.5446 176.786L100.412 176.07C99.8201 174.525 100.127 172.794 101.051 171.28C101.978 169.76 103.457 168.585 104.985 168.162L104.451 166.234ZM98.5448 176.786L105.915 195.986L107.782 195.27L100.412 176.07L98.5448 176.786ZM105.915 195.986C107.494 200.103 111.481 203.154 116.341 201.833L115.816 199.903C112.216 200.882 109.103 198.713 107.782 195.27L105.915 195.986ZM116.345 201.832C118.427 201.255 120.298 199.72 121.453 197.828C122.612 195.929 123.12 193.545 122.252 191.28L120.385 191.996C120.977 193.541 120.67 195.272 119.746 196.786C118.818 198.306 117.339 199.481 115.811 199.904L116.345 201.832ZM143.742 148.4L136.372 129.2L134.505 129.916L141.875 149.116L143.742 148.4ZM136.372 129.2C134.793 125.083 130.806 122.032 125.946 123.353L126.471 125.283C130.071 124.304 133.184 126.473 134.505 129.916L136.372 129.2ZM125.941 123.354C123.859 123.931 121.988 125.466 120.834 127.358C119.675 129.257 119.167 131.641 120.035 133.906L121.902 133.19C121.31 131.645 121.617 129.914 122.541 128.4C123.468 126.88 124.947 125.705 126.475 125.282L125.941 123.354ZM120.035 133.906L127.405 153.106L129.272 152.39L121.902 133.19L120.035 133.906ZM127.405 153.106C128.984 157.223 132.971 160.274 137.831 158.953L137.306 157.023C133.706 158.002 130.593 155.833 129.272 152.39L127.405 153.106ZM137.835 158.952C139.917 158.375 141.788 156.84 142.943 154.948C144.102 153.049 144.61 150.665 143.742 148.4L141.875 149.116C142.467 150.661 142.16 152.392 141.236 153.906C140.308 155.426 138.829 156.601 137.301 157.024L137.835 158.952ZM160.212 191.28L152.842 172.08L150.975 172.796L158.345 191.996L160.212 191.28ZM152.842 172.08C151.263 167.963 147.276 164.912 142.416 166.233L142.941 168.163C146.541 167.184 149.654 169.353 150.975 172.796L152.842 172.08ZM142.411 166.234C140.329 166.811 138.458 168.346 137.304 170.238C136.145 172.137 135.637 174.521 136.505 176.786L138.372 176.07C137.78 174.525 138.087 172.794 139.011 171.28C139.938 169.76 141.417 168.585 142.945 168.162L142.411 166.234ZM136.505 176.786L143.875 195.986L145.742 195.27L138.372 176.07L136.505 176.786ZM143.875 195.986C145.454 200.103 149.441 203.154 154.301 201.833L153.776 199.903C150.176 200.882 147.063 198.713 145.742 195.27L143.875 195.986ZM154.305 201.832C156.387 201.255 158.258 199.72 159.413 197.828C160.572 195.929 161.08 193.545 160.212 191.28L158.345 191.996C158.937 193.541 158.63 195.272 157.706 196.786C156.778 198.306 155.299 199.481 153.771 199.904L154.305 201.832ZM181.702 148.4L174.332 129.2L172.465 129.916L179.835 149.116L181.702 148.4ZM174.332 129.2C172.753 125.083 168.766 122.032 163.906 123.353L164.431 125.283C168.031 124.304 171.144 126.473 172.465 129.916L174.332 129.2ZM163.901 123.354C161.819 123.931 159.948 125.466 158.794 127.358C157.635 129.257 157.127 131.641 157.995 133.906L159.862 133.19C159.27 131.645 159.577 129.914 160.501 128.4C161.428 126.88 162.907 125.705 164.435 125.282L163.901 123.354ZM157.995 133.906L165.365 153.106L167.232 152.39L159.862 133.19L157.995 133.906ZM165.365 153.106C166.944 157.223 170.931 160.274 175.791 158.953L175.266 157.023C171.666 158.002 168.553 155.833 167.232 152.39L165.365 153.106ZM175.795 158.952C177.877 158.375 179.748 156.84 180.903 154.948C182.062 153.049 182.57 150.665 181.702 148.4L179.835 149.116C180.427 150.661 180.12 152.392 179.196 153.906C178.268 155.426 176.789 156.601 175.261 157.024L175.795 158.952ZM198.172 191.28L190.802 172.08L188.935 172.796L196.305 191.996L198.172 191.28ZM190.802 172.08C189.223 167.963 185.236 164.912 180.376 166.233L180.901 168.163C184.501 167.184 187.614 169.353 188.935 172.796L190.802 172.08ZM180.371 166.234C178.289 166.811 176.418 168.346 175.264 170.238C174.105 172.137 173.597 174.521 174.465 176.786L176.332 176.07C175.74 174.525 176.047 172.794 176.971 171.28C177.898 169.76 179.377 168.585 180.905 168.162L180.371 166.234ZM174.465 176.786L181.835 195.986L183.702 195.27L176.332 176.07L174.465 176.786ZM181.835 195.986C183.414 200.103 187.401 203.154 192.261 201.833L191.736 199.903C188.136 200.882 185.023 198.713 183.702 195.27L181.835 195.986ZM192.265 201.832C194.347 201.255 196.218 199.72 197.373 197.828C198.532 195.929 199.04 193.545 198.172 191.28L196.305 191.996C196.897 193.541 196.59 195.272 195.666 196.786C194.738 198.306 193.259 199.481 191.731 199.904L192.265 201.832Z" fill="white" mask="url(#path-1-inside-1)"/>
</svg>
