<svg width="26" height="26" viewBox="0 0 26 26" fill="none" xmlns="http://www.w3.org/2000/svg">
<path d="M18.6174 16.4733H17.4881L17.0879 16.0873C18.4887 14.4578 19.332 12.3423 19.332 10.041C19.332 4.90952 15.1725 0.75 10.041 0.75C4.90952 0.75 0.75 4.90952 0.75 10.041C0.75 15.1725 4.90952 19.332 10.041 19.332C12.3423 19.332 14.4578 18.4887 16.0873 17.0879L16.4733 17.4881V18.6174L23.6202 25.75L25.75 23.6202L18.6174 16.4733ZM10.041 16.4733C6.48185 16.4733 3.60878 13.6002 3.60878 10.041C3.60878 6.48185 6.48185 3.60878 10.041 3.60878C13.6002 3.60878 16.4733 6.48185 16.4733 10.041C16.4733 13.6002 13.6002 16.4733 10.041 16.4733Z" fill="white"/>
</svg>
