<svg width="316" height="316" viewBox="0 0 316 316" fill="none" xmlns="http://www.w3.org/2000/svg">
<mask id="path-1-inside-1" fill="white">
<path d="M235.155 157.855C234.895 189.785 214.885 219.545 184.545 230.445C169.42 235.861 152.994 236.491 137.498 232.251C122.002 228.012 108.186 219.107 97.925 206.745C77.405 181.915 75.045 145.605 91.545 118.085C108.045 90.565 141.305 75.535 172.945 82.005C190.415 85.6479 206.112 95.1586 217.429 108.957C228.746 122.755 235.001 140.01 235.155 157.855C235.235 167.505 250.235 167.525 250.155 157.855C249.99 138.904 244.068 120.451 233.173 104.943C222.279 89.4356 206.927 77.6065 189.155 71.025C153.075 57.735 110.635 69.505 86.485 99.365C62.335 129.225 58.6949 172.015 78.5849 205.195C98.5849 238.585 138.155 255.815 176.265 248.305C219.015 239.855 249.855 201.015 250.155 157.855C250.235 148.205 235.235 148.195 235.155 157.855Z"/>
<path d="M165.355 39.245V7.245C165.355 -2.405 150.355 -2.425 150.355 7.245V39.245C150.355 48.895 165.355 48.915 165.355 39.245Z"/>
<path d="M105.025 51.345L89.0249 23.655C84.1949 15.295 71.2349 22.845 76.0249 31.225L92.0249 58.915C96.8549 67.275 109.815 59.725 105.025 51.345Z"/>
<path d="M58.915 92.075L31.225 76.075C22.845 71.235 15.285 84.195 23.655 89.075L51.345 105.075C59.725 109.915 67.285 96.955 58.915 92.075Z"/>
<path d="M39.245 150.355H7.245C-2.405 150.355 -2.425 165.355 7.245 165.355H39.245C48.895 165.355 48.915 150.355 39.245 150.355Z"/>
<path d="M51.345 210.685L23.655 226.685C15.295 231.515 22.845 244.475 31.225 239.685L58.915 223.685C67.275 218.855 59.725 205.895 51.345 210.685Z"/>
<path d="M92.075 256.795L76.075 284.485C71.235 292.865 84.195 300.425 89.075 292.055L105.075 264.365C109.915 255.985 96.955 248.425 92.075 256.795Z"/>
<path d="M150.355 276.465V308.465C150.355 318.115 165.355 318.135 165.355 308.465V276.465C165.355 266.815 150.355 266.795 150.355 276.465Z"/>
<path d="M210.685 264.365L226.685 292.055C231.515 300.415 244.475 292.865 239.685 284.485L223.685 256.795C218.855 248.435 205.895 255.985 210.685 264.365Z"/>
<path d="M256.795 223.635L284.485 239.635C292.865 244.475 300.425 231.515 292.055 226.635L264.365 210.635C255.985 205.795 248.425 218.755 256.795 223.635Z"/>
<path d="M276.465 165.355H308.465C318.115 165.355 318.135 150.355 308.465 150.355H276.465C266.815 150.355 266.795 165.355 276.465 165.355Z"/>
<path d="M264.365 105.025L292.055 89.025C300.415 84.195 292.865 71.235 284.485 76.025L256.795 92.025C248.435 96.855 255.985 109.815 264.365 105.025Z"/>
<path d="M223.635 58.915L239.635 31.225C244.475 22.845 231.515 15.285 226.635 23.655L210.635 51.345C205.795 59.725 218.755 67.285 223.635 58.915Z"/>
</mask>
<path d="M235.155 157.855C234.895 189.785 214.885 219.545 184.545 230.445C169.42 235.861 152.994 236.491 137.498 232.251C122.002 228.012 108.186 219.107 97.925 206.745C77.405 181.915 75.045 145.605 91.545 118.085C108.045 90.565 141.305 75.535 172.945 82.005C190.415 85.6479 206.112 95.1586 217.429 108.957C228.746 122.755 235.001 140.01 235.155 157.855C235.235 167.505 250.235 167.525 250.155 157.855C249.99 138.904 244.068 120.451 233.173 104.943C222.279 89.4356 206.927 77.6065 189.155 71.025C153.075 57.735 110.635 69.505 86.485 99.365C62.335 129.225 58.6949 172.015 78.5849 205.195C98.5849 238.585 138.155 255.815 176.265 248.305C219.015 239.855 249.855 201.015 250.155 157.855C250.235 148.205 235.235 148.195 235.155 157.855Z" fill="white"/>
<path d="M165.355 39.245V7.245C165.355 -2.405 150.355 -2.425 150.355 7.245V39.245C150.355 48.895 165.355 48.915 165.355 39.245Z" fill="white"/>
<path d="M105.025 51.345L89.0249 23.655C84.1949 15.295 71.2349 22.845 76.0249 31.225L92.0249 58.915C96.8549 67.275 109.815 59.725 105.025 51.345Z" fill="white"/>
<path d="M58.915 92.075L31.225 76.075C22.845 71.235 15.285 84.195 23.655 89.075L51.345 105.075C59.725 109.915 67.285 96.955 58.915 92.075Z" fill="white"/>
<path d="M39.245 150.355H7.245C-2.405 150.355 -2.425 165.355 7.245 165.355H39.245C48.895 165.355 48.915 150.355 39.245 150.355Z" fill="white"/>
<path d="M51.345 210.685L23.655 226.685C15.295 231.515 22.845 244.475 31.225 239.685L58.915 223.685C67.275 218.855 59.725 205.895 51.345 210.685Z" fill="white"/>
<path d="M92.075 256.795L76.075 284.485C71.235 292.865 84.195 300.425 89.075 292.055L105.075 264.365C109.915 255.985 96.955 248.425 92.075 256.795Z" fill="white"/>
<path d="M150.355 276.465V308.465C150.355 318.115 165.355 318.135 165.355 308.465V276.465C165.355 266.815 150.355 266.795 150.355 276.465Z" fill="white"/>
<path d="M210.685 264.365L226.685 292.055C231.515 300.415 244.475 292.865 239.685 284.485L223.685 256.795C218.855 248.435 205.895 255.985 210.685 264.365Z" fill="white"/>
<path d="M256.795 223.635L284.485 239.635C292.865 244.475 300.425 231.515 292.055 226.635L264.365 210.635C255.985 205.795 248.425 218.755 256.795 223.635Z" fill="white"/>
<path d="M276.465 165.355H308.465C318.115 165.355 318.135 150.355 308.465 150.355H276.465C266.815 150.355 266.795 165.355 276.465 165.355Z" fill="white"/>
<path d="M264.365 105.025L292.055 89.025C300.415 84.195 292.865 71.235 284.485 76.025L256.795 92.025C248.435 96.855 255.985 109.815 264.365 105.025Z" fill="white"/>
<path d="M223.635 58.915L239.635 31.225C244.475 22.845 231.515 15.285 226.635 23.655L210.635 51.345C205.795 59.725 218.755 67.285 223.635 58.915Z" fill="white"/>
<path d="M98.978 54.8851L82.998 27.1951L82.1319 27.6949L98.1119 55.3849L98.978 54.8851ZM55.3849 98.112L27.6949 82.132L27.195 82.9981L54.885 98.9781L55.3849 98.112ZM39.245 157.355H7.27502V158.355H39.245V157.355ZM54.885 216.732L27.195 232.712L27.6949 233.578L55.3849 217.598L54.885 216.732ZM98.1119 260.325L82.1319 288.015L82.998 288.515L98.978 260.825L98.1119 260.325ZM157.355 276.465V308.435H158.355V276.465H157.355ZM216.732 260.825L232.712 288.515L233.578 288.015L217.598 260.325L216.732 260.825ZM260.325 217.598L288.015 233.578L288.515 232.712L260.825 216.732L260.325 217.598ZM276.465 158.355H308.435V157.355H276.465V158.355ZM260.825 98.9781L288.515 82.9981L288.015 82.132L260.325 98.112L260.825 98.9781ZM217.598 55.3849L233.578 27.6949L232.712 27.1951L216.732 54.8851L217.598 55.3849ZM184.545 230.445L184.882 231.386L184.883 231.386L184.545 230.445ZM97.925 206.745L97.1541 207.382L97.1555 207.384L97.925 206.745ZM172.945 82.005L173.149 81.0261L173.145 81.0253L172.945 82.005ZM189.155 71.025L189.502 70.0872L189.501 70.0866L189.155 71.025ZM78.5849 205.195L79.4428 204.681L79.4426 204.681L78.5849 205.195ZM176.265 248.305L176.458 249.286L176.459 249.286L176.265 248.305ZM105.025 51.345L105.893 50.8488L105.891 50.8447L105.025 51.345ZM89.0249 23.655L88.1591 24.1553L88.1591 24.1553L89.0249 23.655ZM76.0249 31.225L75.1568 31.7213L75.1591 31.7253L76.0249 31.225ZM92.0249 58.915L92.8908 58.4147L92.8908 58.4147L92.0249 58.915ZM58.915 92.075L59.4187 91.2111L59.4153 91.2092L58.915 92.075ZM31.225 76.075L31.7253 75.2092L31.7251 75.2091L31.225 76.075ZM23.655 89.075L23.1513 89.9389L23.1547 89.9409L23.655 89.075ZM51.345 105.075L50.8447 105.941L50.8449 105.941L51.345 105.075ZM51.345 210.685L50.8487 209.817L50.8447 209.819L51.345 210.685ZM23.655 226.685L24.1552 227.551L24.1553 227.551L23.655 226.685ZM31.225 239.685L31.7212 240.553L31.7253 240.551L31.225 239.685ZM58.915 223.685L58.4147 222.819L58.4147 222.819L58.915 223.685ZM92.075 256.795L91.2111 256.291L91.2091 256.295L92.075 256.795ZM76.075 284.485L75.2091 283.985L75.209 283.985L76.075 284.485ZM89.075 292.055L89.9388 292.559L89.9408 292.555L89.075 292.055ZM105.075 264.365L105.941 264.865L105.941 264.865L105.075 264.365ZM210.685 264.365L209.817 264.861L209.819 264.865L210.685 264.365ZM226.685 292.055L227.551 291.555L227.551 291.555L226.685 292.055ZM239.685 284.485L240.553 283.989L240.551 283.985L239.685 284.485ZM223.685 256.795L222.819 257.295L222.819 257.295L223.685 256.795ZM256.795 223.635L256.291 224.499L256.295 224.501L256.795 223.635ZM284.485 239.635L283.985 240.501L283.985 240.501L284.485 239.635ZM292.055 226.635L292.559 225.771L292.555 225.769L292.055 226.635ZM264.365 210.635L264.865 209.769L264.865 209.769L264.365 210.635ZM264.365 105.025L264.861 105.893L264.865 105.891L264.365 105.025ZM292.055 89.025L291.555 88.1591L291.555 88.1592L292.055 89.025ZM284.485 76.025L283.989 75.1568L283.985 75.1592L284.485 76.025ZM256.795 92.025L257.295 92.8909L257.295 92.8909L256.795 92.025ZM223.635 58.915L224.499 59.4187L224.501 59.4153L223.635 58.915ZM239.635 31.225L240.501 31.7253L240.501 31.7251L239.635 31.225ZM226.635 23.655L225.771 23.1513L225.769 23.1547L226.635 23.655ZM210.635 51.345L209.769 50.8447L209.769 50.8449L210.635 51.345ZM234.155 157.847C233.898 189.379 214.133 218.753 184.207 229.504L184.883 231.386C215.637 220.337 235.892 190.191 236.155 157.863L234.155 157.847ZM184.208 229.504C169.276 234.85 153.06 235.473 137.762 231.287L137.235 233.216C152.928 237.51 169.564 236.871 184.882 231.386L184.208 229.504ZM137.762 231.287C122.464 227.101 108.825 218.31 98.6944 206.106L97.1555 207.384C107.548 219.903 121.541 228.922 137.235 233.216L137.762 231.287ZM98.6958 206.108C78.4514 181.611 76.1159 145.764 92.4026 118.599L90.6873 117.571C73.974 145.447 76.3586 182.219 97.1541 207.382L98.6958 206.108ZM92.4026 118.599C108.688 91.4364 141.528 76.6013 172.745 82.9847L173.145 81.0253C141.082 74.4687 107.401 89.6937 90.6873 117.571L92.4026 118.599ZM172.741 82.984C189.987 86.5802 205.484 95.9692 216.656 109.591L218.202 108.323C206.741 94.3479 190.842 84.7155 173.149 81.0261L172.741 82.984ZM216.656 109.591C227.828 123.213 234.003 140.247 234.155 157.864L236.155 157.846C235.999 139.773 229.664 122.297 218.202 108.323L216.656 109.591ZM234.155 157.863C234.177 160.56 235.253 162.647 236.895 164.047C238.516 165.429 240.635 166.099 242.714 166.1C244.793 166.101 246.906 165.435 248.51 164.048C250.136 162.643 251.177 160.548 251.155 157.847L249.155 157.863C249.173 159.997 248.369 161.526 247.202 162.535C246.014 163.563 244.387 164.101 242.716 164.1C241.045 164.099 239.404 163.558 238.193 162.525C237.002 161.509 236.173 159.975 236.155 157.847L234.155 157.863ZM251.155 157.846C250.988 138.692 245.002 120.042 233.991 104.368L232.355 105.518C243.133 120.86 248.992 139.115 249.155 157.864L251.155 157.846ZM233.991 104.368C222.98 88.6948 207.465 76.7392 189.502 70.0872L188.808 71.9628C206.39 78.4739 221.577 90.1764 232.355 105.518L233.991 104.368ZM189.501 70.0866C153.017 56.6481 110.126 68.544 85.7074 98.7362L87.2625 99.9939C111.144 70.466 153.133 58.8219 188.809 71.9634L189.501 70.0866ZM85.7074 98.7362C61.3011 128.913 57.6152 172.159 77.7272 205.709L79.4426 204.681C59.7747 171.871 63.3688 129.537 87.2625 99.9939L85.7074 98.7362ZM77.7271 205.709C97.9472 239.466 137.941 256.876 176.458 249.286L176.072 247.324C138.369 254.754 99.2226 237.704 79.4428 204.681L77.7271 205.709ZM176.459 249.286C219.692 240.74 250.852 201.479 251.155 157.862L249.155 157.848C248.858 200.551 218.338 238.97 176.071 247.324L176.459 249.286ZM251.155 157.863C251.177 155.167 250.135 153.074 248.51 151.669C246.907 150.283 244.794 149.614 242.715 149.614C240.636 149.613 238.517 150.28 236.895 151.661C235.253 153.061 234.177 155.148 234.155 157.847L236.155 157.863C236.173 155.732 237.002 154.198 238.192 153.184C239.403 152.152 241.044 151.613 242.715 151.614C244.386 151.614 246.013 152.154 247.202 153.182C248.37 154.191 249.173 155.718 249.155 157.847L251.155 157.863ZM166.355 39.245V7.245H164.355V39.245H166.355ZM166.355 7.245C166.355 4.54852 165.296 2.45814 163.663 1.05546C162.051 -0.329286 159.935 -0.998612 157.856 -0.999998C155.777 -1.00138 153.66 -0.334854 152.047 1.04967C150.414 2.45218 149.355 4.54415 149.355 7.245H151.355C151.355 5.11086 152.171 3.57907 153.35 2.56721C154.55 1.53736 156.183 0.998888 157.854 1C159.525 1.00112 161.159 1.54179 162.36 2.57267C163.539 3.58561 164.355 5.11649 164.355 7.245H166.355ZM149.355 7.245V39.245H151.355V7.245H149.355ZM149.355 39.245C149.355 41.9415 150.414 44.0319 152.047 45.4345C153.659 46.8193 155.775 47.4886 157.854 47.49C159.933 47.4914 162.05 46.8249 163.663 45.4403C165.296 44.0378 166.355 41.9459 166.355 39.245H164.355C164.355 41.3791 163.539 42.9109 162.36 43.9228C161.16 44.9526 159.527 45.4911 157.856 45.49C156.185 45.4889 154.551 44.9482 153.35 43.9173C152.171 42.9044 151.355 41.3735 151.355 39.245H149.355ZM105.891 50.8447L89.8908 23.1547L88.1591 24.1553L104.159 51.8453L105.891 50.8447ZM89.8908 23.1547C88.5413 20.8189 86.5798 19.5409 84.4645 19.1492C82.3767 18.7626 80.2124 19.251 78.4141 20.2984C76.6157 21.3459 75.119 22.9898 74.4127 24.9998C73.6975 27.0352 73.8185 29.3799 75.1568 31.7213L76.8931 30.7288C75.8364 28.8801 75.7811 27.1386 76.2996 25.6628C76.8271 24.1615 77.9742 22.8692 79.4207 22.0266C80.8675 21.184 82.5494 20.8286 84.1004 21.1158C85.6238 21.3979 87.0936 22.3111 88.1591 24.1553L89.8908 23.1547ZM75.1591 31.7253L91.1591 59.4153L92.8908 58.4147L76.8908 30.7247L75.1591 31.7253ZM91.1591 59.4153C92.5086 61.7511 94.4701 63.0291 96.5854 63.4208C98.6732 63.8074 100.837 63.319 102.636 62.2716C104.434 61.2242 105.931 59.5802 106.637 57.5703C107.352 55.5348 107.231 53.1901 105.893 50.8488L104.157 51.8413C105.213 53.6899 105.269 55.4314 104.75 56.9073C104.223 58.4085 103.076 59.7009 101.629 60.5434C100.182 61.386 98.5004 61.7414 96.9495 61.4542C95.4261 61.1721 93.9563 60.2589 92.8908 58.4147L91.1591 59.4153ZM59.4153 91.2092L31.7253 75.2092L30.7247 76.9409L58.4147 92.9409L59.4153 91.2092ZM31.7251 75.2091C29.3851 73.8575 27.0394 73.7251 25.0015 74.4336C22.9891 75.1332 21.3433 76.6275 20.2948 78.4265C19.2463 80.2254 18.7581 82.3927 19.1449 84.4861C19.5367 86.6064 20.8146 88.5765 23.1513 89.9389L24.1587 88.2111C22.3104 87.1335 21.3945 85.6536 21.1116 84.1227C20.8238 82.5648 21.1799 80.8796 22.0227 79.4336C22.8655 77.9875 24.1578 76.8443 25.6582 76.3227C27.1331 75.8099 28.8749 75.8725 30.7249 76.941L31.7251 75.2091ZM23.1547 89.9409L50.8447 105.941L51.8453 104.209L24.1553 88.2092L23.1547 89.9409ZM50.8449 105.941C53.1849 107.293 55.5306 107.425 57.5685 106.716C59.5809 106.017 61.2268 104.523 62.2752 102.724C63.3237 100.925 63.8119 98.7573 63.4251 96.6639C63.0333 94.5436 61.7554 92.5735 59.4187 91.2111L58.4113 92.9389C60.2596 94.0165 61.1755 95.4964 61.4584 97.0273C61.7462 98.5852 61.3901 100.27 60.5473 101.716C59.7045 103.163 58.4122 104.306 56.9118 104.827C55.4369 105.34 53.6951 105.278 51.8451 104.209L50.8449 105.941ZM39.245 149.355H7.245V151.355H39.245V149.355ZM7.245 149.355C4.54852 149.355 2.45814 150.414 1.05546 152.047C-0.329286 153.659 -0.998612 155.775 -0.999998 157.854C-1.00138 159.933 -0.334854 162.05 1.04967 163.663C2.45218 165.296 4.54415 166.355 7.245 166.355V164.355C5.11086 164.355 3.57907 163.539 2.56721 162.36C1.53736 161.16 0.998888 159.527 1 157.856C1.00112 156.185 1.54179 154.551 2.57267 153.35C3.58561 152.171 5.11649 151.355 7.245 151.355V149.355ZM7.245 166.355H39.245V164.355H7.245V166.355ZM39.245 166.355C41.9415 166.355 44.0319 165.296 45.4345 163.663C46.8193 162.051 47.4886 159.935 47.49 157.856C47.4914 155.777 46.8249 153.66 45.4403 152.047C44.0378 150.414 41.9459 149.355 39.245 149.355V151.355C41.3791 151.355 42.9109 152.171 43.9228 153.35C44.9526 154.55 45.4911 156.183 45.49 157.854C45.4889 159.525 44.9482 161.159 43.9173 162.36C42.9044 163.539 41.3735 164.355 39.245 164.355V166.355ZM50.8447 209.819L23.1547 225.819L24.1553 227.551L51.8453 211.551L50.8447 209.819ZM23.1547 225.819C20.8189 227.169 19.5409 229.13 19.1492 231.245C18.7626 233.333 19.251 235.498 20.2984 237.296C21.3458 239.094 22.9898 240.591 24.9997 241.297C27.0352 242.012 29.3799 241.891 31.7212 240.553L30.7287 238.817C28.88 239.874 27.1385 239.929 25.6627 239.41C24.1615 238.883 22.8691 237.736 22.0266 236.289C21.184 234.842 20.8286 233.161 21.1158 231.61C21.3978 230.086 22.3111 228.616 24.1552 227.551L23.1547 225.819ZM31.7253 240.551L59.4153 224.551L58.4147 222.819L30.7247 238.819L31.7253 240.551ZM59.4152 224.551C61.7511 223.201 63.0291 221.24 63.4208 219.125C63.8073 217.037 63.319 214.872 62.2716 213.074C61.2241 211.276 59.5802 209.779 57.5702 209.073C55.5348 208.358 53.19 208.479 50.8487 209.817L51.8412 211.553C53.6899 210.496 55.4314 210.441 56.9072 210.96C58.4085 211.487 59.7008 212.634 60.5434 214.081C61.386 215.528 61.7414 217.21 61.4542 218.76C61.1721 220.284 60.2588 221.754 58.4147 222.819L59.4152 224.551ZM91.2091 256.295L75.2091 283.985L76.9408 284.985L92.9408 257.295L91.2091 256.295ZM75.209 283.985C73.8575 286.325 73.725 288.671 74.4335 290.709C75.1331 292.721 76.6274 294.367 78.4264 295.415C80.2253 296.464 82.3927 296.952 84.486 296.565C86.6063 296.173 88.5764 294.895 89.9388 292.559L88.2111 291.551C87.1335 293.4 85.6536 294.315 84.1226 294.598C82.5647 294.886 80.8796 294.53 79.4335 293.687C77.9875 292.845 76.8443 291.552 76.3226 290.052C75.8099 288.577 75.8724 286.835 76.9409 284.985L75.209 283.985ZM89.9408 292.555L105.941 264.865L104.209 263.865L88.2091 291.555L89.9408 292.555ZM105.941 264.865C107.292 262.525 107.425 260.179 106.716 258.141C106.017 256.129 104.522 254.483 102.723 253.435C100.925 252.386 98.7572 251.898 96.6639 252.285C94.5436 252.677 92.5735 253.955 91.2111 256.291L92.9388 257.299C94.0164 255.45 95.4963 254.535 97.0273 254.252C98.5852 253.964 100.27 254.32 101.716 255.163C103.162 256.006 104.306 257.298 104.827 258.798C105.34 260.273 105.277 262.015 104.209 263.865L105.941 264.865ZM149.355 276.465V308.465H151.355V276.465H149.355ZM149.355 308.465C149.355 311.161 150.414 313.252 152.047 314.655C153.659 316.039 155.775 316.709 157.854 316.71C159.933 316.711 162.05 316.045 163.663 314.66C165.296 313.258 166.355 311.166 166.355 308.465H164.355C164.355 310.599 163.539 312.131 162.36 313.143C161.16 314.173 159.527 314.711 157.856 314.71C156.185 314.709 154.551 314.168 153.35 313.137C152.171 312.124 151.355 310.594 151.355 308.465H149.355ZM166.355 308.465V276.465H164.355V308.465H166.355ZM166.355 276.465C166.355 273.769 165.296 271.678 163.663 270.275C162.051 268.891 159.935 268.221 157.856 268.22C155.777 268.219 153.66 268.885 152.047 270.27C150.414 271.672 149.355 273.764 149.355 276.465H151.355C151.355 274.331 152.171 272.799 153.35 271.787C154.55 270.757 156.183 270.219 157.854 270.22C159.525 270.221 161.159 270.762 162.36 271.793C163.539 272.806 164.355 274.336 164.355 276.465H166.355ZM209.819 264.865L225.819 292.555L227.551 291.555L211.551 263.865L209.819 264.865ZM225.819 292.555C227.169 294.891 229.13 296.169 231.245 296.561C233.333 296.947 235.498 296.459 237.296 295.412C239.094 294.364 240.591 292.72 241.297 290.71C242.012 288.675 241.891 286.33 240.553 283.989L238.817 284.981C239.874 286.83 239.929 288.571 239.41 290.047C238.883 291.549 237.736 292.841 236.289 293.683C234.842 294.526 233.16 294.881 231.61 294.594C230.086 294.312 228.616 293.399 227.551 291.555L225.819 292.555ZM240.551 283.985L224.551 256.295L222.819 257.295L238.819 284.985L240.551 283.985ZM224.551 256.295C223.201 253.959 221.24 252.681 219.125 252.289C217.037 251.903 214.872 252.391 213.074 253.438C211.276 254.486 209.779 256.13 209.073 258.14C208.358 260.175 208.479 262.52 209.817 264.861L211.553 263.869C210.496 262.02 210.441 260.279 210.96 258.803C211.487 257.301 212.634 256.009 214.081 255.167C215.528 254.324 217.209 253.969 218.76 254.256C220.284 254.538 221.754 255.451 222.819 257.295L224.551 256.295ZM256.295 224.501L283.985 240.501L284.985 238.769L257.295 222.769L256.295 224.501ZM283.985 240.501C286.325 241.852 288.671 241.985 290.709 241.276C292.721 240.577 294.367 239.083 295.415 237.284C296.464 235.485 296.952 233.317 296.565 231.224C296.173 229.104 294.895 227.134 292.559 225.771L291.551 227.499C293.4 228.576 294.315 230.056 294.598 231.587C294.886 233.145 294.53 234.83 293.687 236.276C292.845 237.722 291.552 238.866 290.052 239.387C288.577 239.9 286.835 239.838 284.985 238.769L283.985 240.501ZM292.555 225.769L264.865 209.769L263.865 211.501L291.555 227.501L292.555 225.769ZM264.865 209.769C262.525 208.418 260.179 208.285 258.141 208.994C256.129 209.693 254.483 211.187 253.435 212.986C252.386 214.785 251.898 216.953 252.285 219.046C252.677 221.166 253.955 223.136 256.291 224.499L257.299 222.771C255.45 221.694 254.535 220.214 254.252 218.683C253.964 217.125 254.32 215.44 255.163 213.994C256.006 212.548 257.298 211.404 258.798 210.883C260.273 210.37 262.015 210.432 263.865 211.501L264.865 209.769ZM276.465 166.355H308.465V164.355H276.465V166.355ZM308.465 166.355C311.161 166.355 313.252 165.296 314.655 163.663C316.039 162.051 316.709 159.935 316.71 157.856C316.711 155.777 316.045 153.66 314.66 152.047C313.258 150.414 311.166 149.355 308.465 149.355V151.355C310.599 151.355 312.131 152.171 313.143 153.35C314.173 154.55 314.711 156.183 314.71 157.854C314.709 159.525 314.168 161.159 313.137 162.36C312.124 163.539 310.593 164.355 308.465 164.355V166.355ZM308.465 149.355H276.465V151.355H308.465V149.355ZM276.465 149.355C273.768 149.355 271.678 150.414 270.275 152.047C268.891 153.659 268.221 155.775 268.22 157.854C268.219 159.933 268.885 162.05 270.27 163.663C271.672 165.296 273.764 166.355 276.465 166.355V164.355C274.331 164.355 272.799 163.539 271.787 162.36C270.757 161.16 270.219 159.527 270.22 157.856C270.221 156.185 270.762 154.551 271.793 153.35C272.806 152.171 274.336 151.355 276.465 151.355V149.355ZM264.865 105.891L292.555 89.8908L291.555 88.1592L263.865 104.159L264.865 105.891ZM292.555 89.8909C294.891 88.5413 296.169 86.5799 296.561 84.4646C296.947 82.3767 296.459 80.2125 295.412 78.4142C294.364 76.6158 292.72 75.119 290.71 74.4128C288.675 73.6976 286.33 73.8185 283.989 75.1568L284.981 76.8932C286.83 75.8365 288.571 75.7811 290.047 76.2997C291.549 76.8272 292.841 77.9742 293.683 79.4208C294.526 80.8675 294.881 82.5495 294.594 84.1004C294.312 85.6239 293.399 87.0937 291.555 88.1591L292.555 89.8909ZM283.985 75.1592L256.295 91.1592L257.295 92.8909L284.985 76.8908L283.985 75.1592ZM256.295 91.1591C253.959 92.5087 252.681 94.4702 252.289 96.5854C251.903 98.6733 252.391 100.838 253.438 102.636C254.486 104.434 256.13 105.931 258.14 106.637C260.175 107.352 262.52 107.231 264.861 105.893L263.869 104.157C262.02 105.214 260.279 105.269 258.803 104.75C257.301 104.223 256.009 103.076 255.167 101.629C254.324 100.182 253.969 98.5005 254.256 96.9496C254.538 95.4261 255.451 93.9563 257.295 92.8909L256.295 91.1591ZM224.501 59.4153L240.501 31.7253L238.769 30.7247L222.769 58.4147L224.501 59.4153ZM240.501 31.7251C241.852 29.3851 241.985 27.0394 241.276 25.0015C240.577 22.9891 239.083 21.3433 237.284 20.2948C235.485 19.2463 233.317 18.7581 231.224 19.1449C229.104 19.5367 227.134 20.8146 225.771 23.1513L227.499 24.1587C228.576 22.3104 230.056 21.3945 231.587 21.1116C233.145 20.8238 234.83 21.1799 236.276 22.0227C237.723 22.8655 238.866 24.1578 239.387 25.6582C239.9 27.1331 239.838 28.8749 238.769 30.7249L240.501 31.7251ZM225.769 23.1547L209.769 50.8447L211.501 51.8453L227.501 24.1553L225.769 23.1547ZM209.769 50.8449C208.418 53.1849 208.285 55.5306 208.994 57.5685C209.693 59.5809 211.188 61.2268 212.986 62.2752C214.785 63.3237 216.953 63.8119 219.046 63.4251C221.166 63.0333 223.136 61.7554 224.499 59.4187L222.771 58.4113C221.694 60.2596 220.214 61.1755 218.683 61.4584C217.125 61.7462 215.44 61.3901 213.994 60.5473C212.548 59.7045 211.404 58.4122 210.883 56.9118C210.37 55.4369 210.432 53.6951 211.501 51.8451L209.769 50.8449Z" fill="white" mask="url(#path-1-inside-1)"/>
</svg>
