<svg width="25" height="21" viewBox="0 0 25 21" fill="none" xmlns="http://www.w3.org/2000/svg">
<path d="M1.04167 8.33333H17.7083C20 8.33333 21.875 6.45833 21.875 4.16667C21.875 1.875 20 0 17.7083 0C15.4167 0 13.5417 1.875 13.5417 4.16667C13.5417 4.79167 13.9583 5.20833 14.5833 5.20833C15.2083 5.20833 15.625 4.79167 15.625 4.16667C15.625 3.02083 16.5625 2.08333 17.7083 2.08333C18.8542 2.08333 19.7917 3.02083 19.7917 4.16667C19.7917 5.3125 18.8542 6.25 17.7083 6.25H1.04167C0.416667 6.25 0 6.66667 0 7.29167C0 7.91667 0.416667 8.33333 1.04167 8.33333Z" fill="white"/>
<path d="M11.4583 12.5H1.04167C0.520833 12.5 0 12.9167 0 13.5417C0 14.0625 0.416667 14.5833 1.04167 14.5833H11.4583C12.6042 14.5833 13.5417 15.5208 13.5417 16.6667C13.5417 17.8125 12.6042 18.75 11.4583 18.75C10.3125 18.75 9.375 17.8125 9.375 16.6667C9.375 16.0417 8.95833 15.625 8.33333 15.625C7.70833 15.625 7.29167 16.0417 7.29167 16.6667C7.29167 18.9583 9.16667 20.8333 11.4583 20.8333C13.75 20.8333 15.625 18.9583 15.625 16.6667C15.625 14.375 13.75 12.5 11.4583 12.5Z" fill="white"/>
<path d="M20.8333 9.375H1.04167C0.520833 9.375 0 9.79167 0 10.4167C0 10.9375 0.416667 11.4583 1.04167 11.4583H20.8333C21.9792 11.4583 22.9167 12.3958 22.9167 13.5417C22.9167 14.6875 21.9792 15.625 20.8333 15.625C19.6875 15.625 18.75 14.6875 18.75 13.5417C18.75 12.9167 18.3333 12.5 17.7083 12.5C17.0833 12.5 16.6667 12.9167 16.6667 13.5417C16.6667 15.8333 18.5417 17.7083 20.8333 17.7083C23.125 17.7083 25 15.8333 25 13.5417C25 11.25 23.125 9.375 20.8333 9.375Z" fill="white"/>
</svg>
